<?xml version="1.0" encoding="utf-8"?>
<!-- Generator: Adobe Illustrator 21.1.0, SVG Export Plug-In . SVG Version: 6.00 Build 0)  -->
<svg version="1.1" id="Layer_1" xmlns="http://www.w3.org/2000/svg" xmlns:xlink="http://www.w3.org/1999/xlink" x="0px" y="0px"
	 viewBox="0 0 490 492" style="enable-background:new 0 0 490 492;" xml:space="preserve">
<path d="M245,6C112.4,6,4.8,113.6,4.8,246.2c0,132.7,107.6,240.2,240.2,240.2s240.2-107.6,240.2-240.2C485.3,113.6,377.7,6,245,6z
	 M245,474.7c-126.2,0-228.5-102.3-228.5-228.5C16.6,120.1,118.9,17.8,245,17.8c126.2,0,228.5,102.3,228.5,228.5
	C473.5,372.4,371.2,474.7,245,474.7z"/>
<g>
	<path d="M336.9,313.4c-3.7,0-7.1,0.9-10.3,2.4l-58.7-58.7c0.6-1.3,1.1-2.7,1.5-4.2h44v0.2c2.7,10.4,12.1,18.2,23.4,18.2
		c13.4,0,24.2-10.8,24.2-24.2c0-13.4-10.8-24.2-24.2-24.2c-11.3,0-20.7,7.7-23.4,18.2h-44.1c-0.6-2.3-1.5-4.5-2.8-6.5l57.6-57.6
		c3.7,2.2,8,3.6,12.6,3.6c13.4,0,24.2-10.8,24.2-24.2c0-13.4-10.7-24.4-24.1-24.4c-13.4,0-24.2,10.8-24.2,24.2
		c0,4.3,1.2,8.4,3.2,11.9L257.9,226c-1.8-1-3.8-1.8-5.8-2.4v-44.1c10.4-2.7,18.2-12.1,18.2-23.4c0-13.4-10.8-24.2-24.2-24.2
		c-13.4,0-24.2,10.8-24.2,24.2c0,11.3,7.7,20.7,18.2,23.4v44.1c-1.5,0.4-2.9,0.9-4.2,1.5l-58.7-58.7c1.5-3.1,2.4-6.6,2.4-10.3
		c0-13.4-10.8-24.2-24.2-24.2c-13.4,0-24.2,10.8-24.2,24.2c0,13.4,10.8,24.2,24.2,24.2c5.3,0,10.1-1.7,14.1-4.6l57.1,57.1
		c-1.7,2.4-3,5.1-3.7,8h-44.1c-2.7-10.4-12.1-18.2-23.4-18.2c-13.4,0-24.2,10.8-24.2,24.2c0,13.4,10.8,24.2,24.2,24.2
		c11.3,0,20.7-7.7,23.4-18.2h44.1c0.5,2.1,1.3,4,2.4,5.8l-57.9,57.9c-3.5-2-7.5-3.2-11.9-3.2c-13.4,0-24.2,10.8-24.2,24.2
		s10.8,24.2,24.2,24.2c13.4,0,24.2-10.8,24.2-24.2c0-4.6-1.4-8.9-3.6-12.6l57.6-57.6c2,1.2,4.2,2.2,6.5,2.8v44.1
		c-10.4,2.7-18.2,12.1-18.2,23.4c0,13.4,10.8,24.2,24.2,24.2c13.4,0,24.2-10.8,24.2-24.2c0-11.3-7.7-20.7-18.2-23.4v-44.1
		c2.9-0.8,5.6-2,8-3.7l57.1,57.1c-2.9,4-4.6,8.8-4.6,14.1c0,13.4,10.8,24.2,24.2,24.2s24.2-10.8,24.2-24.2S350.3,313.4,336.9,313.4z
		 M336.2,232c9.3,0,16.8,7.1,16.8,15.8s-7.5,15.8-16.8,15.8s-16.8-7.1-16.8-15.8S327,232,336.2,232z M336.2,140
		c9.3,0,16.8,7.1,16.8,15.8s-7.5,15.8-16.8,15.8s-16.8-7.1-16.8-15.8S327,140,336.2,140z M155.2,171.5c-9.3,0-16.8-7.1-16.8-15.8
		S146,140,155.2,140s16.8,7.1,16.8,15.8S164.5,171.5,155.2,171.5z M153.8,262.5c-9.3,0-16.8-7.1-16.8-15.8s7.5-15.8,16.8-15.8
		s16.8,7.1,16.8,15.8S163,262.5,153.8,262.5z M153.8,352.5c-9.3,0-16.8-7.1-16.8-15.8s7.5-15.8,16.8-15.8s16.8,7.1,16.8,15.8
		S163,352.5,153.8,352.5z M230,155.8c0-8.7,7.5-15.8,16.8-15.8s16.8,7.1,16.8,15.8s-7.5,15.8-16.8,15.8S230,164.4,230,155.8z
		 M262,336.8c0,8.7-7.5,15.8-16.8,15.8s-16.8-7.1-16.8-15.8S236,321,245.2,321S262,328.1,262,336.8z M246.2,262.5
		c-9.3,0-16.8-7.1-16.8-15.8S237,231,246.2,231s16.8,7.1,16.8,15.8S255.5,262.5,246.2,262.5z M336.2,352.5
		c-9.3,0-16.8-7.1-16.8-15.8S327,321,336.2,321s16.8,7.1,16.8,15.8S345.5,352.5,336.2,352.5z"/>
	<ellipse cx="155.2" cy="155.8" rx="16.8" ry="15.8"/>
	<ellipse cx="246.8" cy="155.8" rx="16.8" ry="15.8"/>
	<ellipse cx="336.2" cy="155.8" rx="16.8" ry="15.8"/>
	<ellipse cx="336.2" cy="247.8" rx="16.8" ry="15.8"/>
	<ellipse cx="336.2" cy="336.8" rx="16.8" ry="15.8"/>
	<ellipse cx="245.2" cy="336.8" rx="16.8" ry="15.8"/>
	<ellipse cx="153.8" cy="336.8" rx="16.8" ry="15.8"/>
	<ellipse cx="153.8" cy="246.8" rx="16.8" ry="15.8"/>
	<ellipse cx="246.2" cy="246.8" rx="16.8" ry="15.8"/>
</g>
</svg>
