<?xml version="1.0" encoding="utf-8"?>
<!-- Generator: Adobe Illustrator 21.1.0, SVG Export Plug-In . SVG Version: 6.00 Build 0)  -->
<svg version="1.1" id="Layer_1" xmlns="http://www.w3.org/2000/svg" xmlns:xlink="http://www.w3.org/1999/xlink" x="0px" y="0px"
	 viewBox="0 0 490 492" style="enable-background:new 0 0 490 492;" xml:space="preserve">
<path d="M245,6C112.4,6,4.8,113.6,4.8,246.2c0,132.7,107.6,240.2,240.2,240.2s240.2-107.6,240.2-240.2C485.3,113.6,377.7,6,245,6z
	 M245,474.7c-126.2,0-228.5-102.3-228.5-228.5C16.6,120.1,118.9,17.8,245,17.8c126.2,0,228.5,102.3,228.5,228.5
	C473.5,372.4,371.2,474.7,245,474.7z"/>
<g>
	<path d="M245.1,208.8c-20.5,0-37.2,16.7-37.2,37.2s16.7,37.2,37.2,37.2s37.2-16.7,37.2-37.2S265.6,208.8,245.1,208.8z"/>
	<path d="M345.2,221.2h-8.4c-2.1-7.9-5.2-15.5-9.4-22.6l5.9-5.9c2.2-2.2,3.4-5.1,3.4-8.1s-1.2-6-3.4-8.2l-18.8-18.8
		c-4.3-4.3-11.9-4.4-16.3,0l-5.9,5.9c-7.1-4.1-14.7-7.2-22.6-9.3v-8.4c0-6.4-5.1-11.5-11.5-11.5h-26.7c-6.4,0-11.5,5.1-11.5,11.5
		v8.4c-7.9,2.1-15.5,5.2-22.6,9.4l-5.8-5.9c-4.4-4.4-11.9-4.3-16.3,0l-18.8,18.8c-2.2,2.2-3.4,5.1-3.4,8.2c0,3.1,1.2,6,3.4,8.1
		l5.9,5.9c-4.1,7.1-7.2,14.7-9.3,22.6h-8.4c-6.4,0-11.5,5.1-11.5,11.5v26.6c0,6.4,5.1,11.5,11.5,11.5h8.4c2.1,7.9,5.2,15.5,9.4,22.6
		l-5.9,5.9c-2.2,2.2-3.4,5.1-3.4,8.1c0,3.1,1.2,6,3.4,8.2l18.8,18.8c4.3,4.4,11.9,4.4,16.3,0l5.9-5.9c7.1,4.1,14.7,7.2,22.6,9.4v8.4
		c0,6.4,5.1,11.5,11.5,11.5h26.7c6.4,0,11.5-5.1,11.5-11.5v-8.4c7.9-2.1,15.5-5.2,22.6-9.4l5.9,5.9c4.4,4.4,11.9,4.3,16.3,0
		l18.8-18.8c2.2-2.2,3.4-5.1,3.4-8.2c0-3.1-1.2-6-3.4-8.1l-5.9-5.9c4.1-7.1,7.2-14.7,9.4-22.6h8.4c6.4,0,11.5-5.1,11.5-11.5v-26.6
		C356.7,226.4,351.6,221.2,345.2,221.2z M294.7,246c0,27.4-22.3,49.6-49.6,49.6s-49.6-22.2-49.6-49.6s22.2-49.6,49.6-49.6
		S294.7,218.6,294.7,246z"/>
</g>
</svg>
