<?xml version="1.0" encoding="utf-8"?>
<!-- Generator: Adobe Illustrator 21.1.0, SVG Export Plug-In . SVG Version: 6.00 Build 0)  -->
<svg version="1.1" id="Layer_1" xmlns="http://www.w3.org/2000/svg" xmlns:xlink="http://www.w3.org/1999/xlink" x="0px" y="0px"
	 viewBox="0 0 500 500" style="enable-background:new 0 0 500 500;" xml:space="preserve">
<g>
	<g>
		<path d="M249.9,494c-134.5,0-244-109.5-244-244S115.4,6,249.9,6s244,109.4,244,244C493.9,384.5,384.4,494,249.9,494z M249.9,33.9
			c-119.2,0-216.1,97-216.1,216.1s96.9,216.1,216.1,216.1C369,466.1,466,369.1,466,250S369,33.9,249.9,33.9z"/>
	</g>
	<path d="M346.1,236h-82.3v-82.2c0-7.7-6.2-14-13.9-14c-7.7,0-14,6.3-14,14V236h-82.2c-7.7,0-14,6.3-14,14c0,7.7,6.3,13.9,14,13.9
		h82.2v82.3c0,7.7,6.3,13.9,14,13.9c7.7,0,13.9-6.2,13.9-13.9v-82.3h82.3c7.7,0,13.9-6.2,13.9-13.9C360,242.3,353.8,236,346.1,236z"
		/>
</g>
</svg>
