<?xml version="1.0" encoding="utf-8"?>
<!-- Generator: Adobe Illustrator 21.1.0, SVG Export Plug-In . SVG Version: 6.00 Build 0)  -->
<svg version="1.1" id="Layer_1" xmlns="http://www.w3.org/2000/svg" xmlns:xlink="http://www.w3.org/1999/xlink" x="0px" y="0px"
	 viewBox="0 0 342 347" style="enable-background:new 0 0 342 347;" xml:space="preserve">
<path d="M308.7,191.5c0,5.3-1.9,9.9-5.6,13.6c-3.7,3.7-8.3,5.6-13.6,5.6h-83.1v83.1c0,5.3-1.9,9.9-5.6,13.6
	c-3.7,3.7-8.3,5.6-13.6,5.6h-38.4c-5.3,0-9.9-1.9-13.6-5.6c-3.7-3.7-5.6-8.3-5.6-13.6v-83.1H46.5c-5.3,0-9.9-1.9-13.6-5.6
	c-3.7-3.7-5.6-8.3-5.6-13.6v-38.4c0-5.3,1.9-9.9,5.6-13.6c3.7-3.7,8.3-5.6,13.6-5.6h83.1V50.8c0-5.3,1.9-9.9,5.6-13.6
	c3.7-3.7,8.3-5.6,13.6-5.6h38.4c5.3,0,9.9,1.9,13.6,5.6c3.7,3.7,5.6,8.3,5.6,13.6v83.1h83.1c5.3,0,9.9,1.9,13.6,5.6
	c3.7,3.7,5.6,8.3,5.6,13.6V191.5z"/>
</svg>
