<?xml version="1.0" encoding="utf-8"?>
<!-- Generator: Adobe Illustrator 21.1.0, SVG Export Plug-In . SVG Version: 6.00 Build 0)  -->
<svg version="1.1" xmlns="http://www.w3.org/2000/svg" xmlns:xlink="http://www.w3.org/1999/xlink" x="0px" y="0px"
	 viewBox="0 0 410.7 411.8" style="enable-background:new 0 0 410.7 411.8;" xml:space="preserve">
<g id="Layer_1">
</g>
<g id="Layer_2">
	<polygon points="228.2,116.1 212.1,132 197.2,116.1 183.5,116.1 183.5,174 198.2,174 212.1,188.9 227.2,174 400.5,174 400.5,116.1 
			"/>
	<path d="M227,312.8l-15,15l-14-15h-14.7v44.8c0,7.2,5.9,13.1,13.1,13.1h203.6v-58H227z"/>
	<path d="M197.5,18.3c-7.2,0-13.1,5.9-13.1,13.1v45.1h13.5L213,92.9l16.3-16.3h171.8V18.3H197.5z"/>
	<polygon points="228.2,215.1 212.1,231 197.2,215.1 183.5,215.1 183.5,273 198.2,273 212.1,287.9 227.2,273 400.5,273 400.5,215.1 
			"/>
	<g>
		<path d="M162.3,307.6l-22.4-22.4c-1.1-1.1-2.4-1.7-3.9-1.7c-1.5,0-2.8,0.6-3.9,1.7c-1.1,1.1-1.7,2.4-1.7,3.9v11.2H96.7v-33.6h11.2
			c1.5,0,2.8-0.6,3.9-1.7c1.1-1.1,1.7-2.4,1.7-3.9c0-1.5-0.6-2.8-1.7-3.9l-22.4-22.4c-1.1-1.1-2.4-1.7-3.9-1.7s-2.8,0.6-3.9,1.7
			l-22.4,22.4c-1.1,1.1-1.7,2.4-1.7,3.9c0,1.5,0.6,2.8,1.7,3.9c1.1,1.1,2.4,1.7,3.9,1.7h11.2v33.6H40.6v-11.2c0-1.5-0.6-2.8-1.7-3.9
			c-1.1-1.1-2.4-1.7-3.9-1.7c-1.5,0-2.8,0.6-3.9,1.7L8.7,307.6C7.6,308.7,7,310,7,311.5c0,1.5,0.6,2.8,1.7,3.9l22.4,22.4
			c1.1,1.1,2.4,1.7,3.9,1.7c1.5,0,2.8-0.6,3.9-1.7c1.1-1.1,1.7-2.4,1.7-3.9v-11.2h33.6v33.6H63.1c-1.5,0-2.8,0.6-3.9,1.7
			c-1.1,1.1-1.7,2.4-1.7,3.9s0.6,2.8,1.7,3.9l22.4,22.4c1.1,1.1,2.4,1.7,3.9,1.7c1.5,0,2.8-0.6,3.9-1.7l22.4-22.4
			c1.1-1.1,1.7-2.4,1.7-3.9c0-1.5-0.6-2.8-1.7-3.9c-1.1-1.1-2.4-1.7-3.9-1.7H96.7v-33.6h33.6v11.2c0,1.5,0.6,2.8,1.7,3.9
			c1.1,1.1,2.4,1.7,3.9,1.7c1.5,0,2.8-0.6,3.9-1.7l22.4-22.4c1.1-1.1,1.7-2.4,1.7-3.9C164,310,163.4,308.7,162.3,307.6z"/>
	</g>
</g>
</svg>
