<?xml version="1.0" encoding="utf-8"?>
<!-- Generator: Adobe Illustrator 21.1.0, SVG Export Plug-In . SVG Version: 6.00 Build 0)  -->
<svg version="1.1" id="Layer_1" xmlns="http://www.w3.org/2000/svg" xmlns:xlink="http://www.w3.org/1999/xlink" x="0px" y="0px"
	 viewBox="0 0 500 500" style="enable-background:new 0 0 500 500;" xml:space="preserve">
<g id="Layer_2">
	<polygon points="279.4,143 259.8,162.4 241.7,143 225,143 225,213.5 242.9,213.5 259.8,231.6 278.2,213.5 489.1,213.5 489.1,143 	
		"/>
	<path d="M278,382.4l-18.3,18.3l-17-18.3h-17.9v54.5c0,8.8,7.2,15.9,15.9,15.9h247.8v-70.6H278V382.4z"/>
	<path d="M242.1,24c-8.8,0-15.9,7.2-15.9,15.9v54.9h16.4l18.4,20l19.8-19.8h209.1V24H242.1z"/>
	<polygon points="279.4,263.5 259.8,282.8 241.7,263.5 225,263.5 225,333.9 242.9,333.9 259.8,352.1 278.2,333.9 489.1,333.9 
		489.1,263.5 	"/>
	<g>
		<path d="M199.2,376L172,348.8c-1.3-1.3-2.9-2.1-4.7-2.1s-3.4,0.7-4.7,2.1c-1.3,1.3-2.1,2.9-2.1,4.7v13.6h-41v-40.9H133
			c1.8,0,3.4-0.7,4.7-2.1c1.3-1.3,2.1-2.9,2.1-4.7c0-1.8-0.7-3.4-2.1-4.7l-27.3-27.3c-1.3-1.3-2.9-2.1-4.7-2.1s-3.4,0.7-4.7,2.1
			l-27.3,27.3c-1.3,1.3-2.1,2.9-2.1,4.7c0,1.8,0.7,3.4,2.1,4.7s2.9,2.1,4.7,2.1h13.6v40.9h-41v-13.6c0-1.8-0.7-3.4-2.1-4.7
			c-1.3-1.3-2.9-2.1-4.7-2.1c-1.8,0-3.4,0.7-4.7,2.1L12.3,376c-1.3,1.3-2.1,2.9-2.1,4.7s0.7,3.4,2.1,4.7l27.3,27.3
			c1.3,1.3,2.9,2.1,4.7,2.1c1.8,0,3.4-0.7,4.7-2.1c1.3-1.3,2.1-2.9,2.1-4.7v-13.6H92v40.9H78.5c-1.8,0-3.4,0.7-4.7,2.1
			c-1.3,1.3-2.1,2.9-2.1,4.7s0.7,3.4,2.1,4.7l27.3,27.3c1.3,1.3,2.9,2.1,4.7,2.1c1.8,0,3.4-0.7,4.7-2.1l27.3-27.3
			c1.3-1.3,2.1-2.9,2.1-4.7s-0.7-3.4-2.1-4.7s-2.9-2.1-4.7-2.1h-13.6v-40.9h40.9v13.6c0,1.8,0.7,3.4,2.1,4.7
			c1.3,1.3,2.9,2.1,4.7,2.1s3.4-0.7,4.7-2.1l27.3-27.3c1.3-1.3,2.1-2.9,2.1-4.7C201.3,379,200.6,377.4,199.2,376z"/>
	</g>
</g>
</svg>
