<?xml version="1.0" encoding="utf-8"?>
<!-- Generator: Adobe Illustrator 21.1.0, SVG Export Plug-In . SVG Version: 6.00 Build 0)  -->
<svg version="1.1" id="Layer_1" xmlns="http://www.w3.org/2000/svg" xmlns:xlink="http://www.w3.org/1999/xlink" x="0px" y="0px"
	 viewBox="0 0 500 500" style="enable-background:new 0 0 500 500;" xml:space="preserve">
<path d="M464.9,367.6c-42-36.3-80.8-87.5-80.8-215.3c0-74-60.2-134.3-134.3-134.3c-74,0-134.3,60.2-134.3,134.3
	c0,127.9-38.8,179.1-80.8,215.4c-11.6,10.1-18.3,24.7-18.3,40.1c0,8.4,6.8,15.3,15.3,15.3h144.9c7.1,33.9,37.2,59.5,73.2,59.5
	s66.1-25.6,73.2-59.5H468c8.4,0,15.3-6.8,15.3-15.3C483.3,392.2,476.6,377.6,464.9,367.6z M249.9,451.9c-19,0-35.3-12.1-41.5-29h83
	C285.1,439.8,268.9,451.9,249.9,451.9z M53,392.4c0.6-0.6,1.1-1.2,1.8-1.7c64-55.3,91.3-126.6,91.3-238.4
	c0-57.2,46.5-103.7,103.7-103.7c57.2,0,103.7,46.5,103.7,103.7c0,111.7,27.3,183,91.4,238.4c0.6,0.5,1.2,1.1,1.8,1.7H53z"/>
</svg>
