<?xml version="1.0" encoding="utf-8"?>
<!-- Generator: Adobe Illustrator 21.1.0, SVG Export Plug-In . SVG Version: 6.00 Build 0)  -->
<svg version="1.1" xmlns="http://www.w3.org/2000/svg" xmlns:xlink="http://www.w3.org/1999/xlink" x="0px" y="0px"
	 viewBox="0 0 460 387" style="enable-background:new 0 0 460 387;" xml:space="preserve">
<g id="Layer_1">
</g>
<g id="Layer_2">
	<g>
		<path d="M335.7,202.9l-143.2-143c-5.1-5.1-11.9-9.4-20.4-12.9c-8.5-3.5-16.4-5.3-23.4-5.3H65.3c-6.9,0-13,2.5-18,7.6
			c-5.1,5.1-7.6,11.1-7.6,18v83.3c0,7.1,1.8,14.9,5.3,23.4c3.5,8.5,7.8,15.3,12.9,20.2l143.2,143.4c4.9,4.9,10.9,7.4,18,7.4
			c6.9,0,13-2.5,18.2-7.4l98.3-98.5c4.9-4.9,7.4-10.9,7.4-18C343.1,214.2,340.6,208.1,335.7,202.9z M121.9,123.9
			c-5,5-11,7.5-18.1,7.5c-7.1,0-13.1-2.5-18.1-7.5c-5-5-7.5-11-7.5-18.1c0-7.1,2.5-13.1,7.5-18.1c5-5,11-7.5,18.1-7.5
			c7.1,0,13.1,2.5,18.1,7.5c5,5,7.5,11,7.5,18.1C129.4,112.8,126.9,118.9,121.9,123.9z"/>
		<path d="M412.6,202.9l-143.2-143c-5.1-5.1-11.9-9.4-20.4-12.9c-8.5-3.5-16.4-5.3-23.4-5.3h-44.9c7.1,0,14.9,1.8,23.4,5.3
			c8.5,3.5,15.4,7.8,20.4,12.9l143.2,143c4.9,5.2,7.4,11.3,7.4,18.2c0,7.1-2.5,13.1-7.4,18l-94.1,94.1c4,4.1,7.5,7.1,10.6,9
			c3.1,1.9,7,2.8,11.8,2.8c6.9,0,13-2.5,18.2-7.4l98.3-98.5c4.9-4.9,7.4-10.9,7.4-18C420,214.2,417.5,208.1,412.6,202.9z"/>
	</g>
</g>
</svg>
