<?xml version="1.0" encoding="utf-8"?>
<!-- Generator: Adobe Illustrator 21.1.0, SVG Export Plug-In . SVG Version: 6.00 Build 0)  -->
<svg version="1.1" id="Layer_1" xmlns="http://www.w3.org/2000/svg" xmlns:xlink="http://www.w3.org/1999/xlink" x="0px" y="0px"
	 viewBox="0 0 460 387" style="enable-background:new 0 0 460 387;" xml:space="preserve">
<g id="Layer_1_1_">
</g>
<g>
	<g>
		<path d="M259.5,12.7c-4.1,0-7.3,3.2-7.3,7.3v144.6c0,4.1,3.2,7.3,7.3,7.3H404c4.1,0,7.3-3.2,7.3-7.3c0-37.1-13.5-72.8-38-100.6
			C344.5,31.4,303,12.7,259.5,12.7z"/>
		<path d="M375.7,209.8c0-4.1-3.2-7.3-7.3-7.3H219.5v-149c0-4.1-3.2-7.3-7.3-7.3c-90.2,0-163.6,73.4-163.6,163.6
			c0,90.2,73.4,163.6,163.6,163.6S375.7,299.9,375.7,209.8z M212.2,358.7c-82.1,0-149-66.9-149-149c0-79.7,62.9-145,141.7-148.8
			v148.8c0,4.1,3.2,7.3,7.3,7.3H361C357.1,295.8,291.9,358.7,212.2,358.7z"/>
	</g>
</g>
</svg>
