<?xml version="1.0" encoding="utf-8"?>
<!-- Generator: Adobe Illustrator 21.1.0, SVG Export Plug-In . SVG Version: 6.00 Build 0)  -->
<svg version="1.1" id="Layer_1" xmlns="http://www.w3.org/2000/svg" xmlns:xlink="http://www.w3.org/1999/xlink" x="0px" y="0px"
	 viewBox="0 0 500 500" style="enable-background:new 0 0 500 500;" xml:space="preserve">
<path d="M414.6,204.7h-27.1v-56.2c0-0.2,0.1-0.3,0.1-0.5c0-75.1-61-136-136-136h0c0,0,0,0-0.1,0c-75,0-136,60.9-136,136
	c0,0.2,0.1,0.3,0.1,0.5v56.2H86.1c-13.7,1.4-24.4,12.9-24.4,27v175.6c0,0,0,0.1,0,0.1c0,5.1,0.6,10,1.5,14.8c0.3,1.7,0.8,3.3,1.2,5
	c0.8,3,1.7,6,2.8,8.9c0.7,2,1.6,3.9,2.5,5.8c1.1,2.2,2.3,4.4,3.5,6.5c1.3,2.1,2.5,4.3,3.9,6.3c0.6,0.9,1.4,1.7,2.1,2.5
	c7,8.9,15.7,16.3,25.7,21.7c0.3,0.2,0.6,0.3,0.9,0.5c3.6,1.9,7.3,3.5,11.2,4.8l0,0c8.3,2.9,17.1,4.8,26.5,4.8h214
	c45,0,81.7-36.7,81.7-81.7V231.6C439,217.6,428.3,206.1,414.6,204.7z M140.4,148c0-61.3,49.9-111.1,111.1-111.1
	c61.2,0,111.1,49.8,111.1,111.1v56.7H140.4V148z M410.8,407.2c0,29.4-23.9,53.5-53.5,53.5H143.4c-16.6,0-31.2-7.7-41-19.6
	c-1.5-1.8-3-3.8-4.3-5.8c-0.6-1-1.2-2.1-1.7-3.2c-0.9-1.7-1.8-3.3-2.5-5c-1.1-2.7-1.9-5.4-2.6-8.3c-0.1-0.3-0.2-0.6-0.3-0.9
	c-0.7-3.5-1.1-7-1.1-10.7V232.6h320.8V407.2z M253.1,401.4c29.1,0,52.7-23.7,52.7-52.7c0-29.1-23.7-52.7-52.7-52.7
	c-29.1,0-52.7,23.7-52.7,52.7C200.4,377.7,224,401.4,253.1,401.4z M253.1,324.1c13.6,0,24.5,11.1,24.5,24.5
	c0,13.5-11,24.6-24.5,24.6c-13.6,0-24.5-11.1-24.5-24.5S239.6,324.1,253.1,324.1z"/>
</svg>
