<?xml version="1.0" encoding="utf-8"?>
<!-- Generator: Adobe Illustrator 21.1.0, SVG Export Plug-In . SVG Version: 6.00 Build 0)  -->
<svg version="1.1" id="Layer_1" xmlns="http://www.w3.org/2000/svg" xmlns:xlink="http://www.w3.org/1999/xlink" x="0px" y="0px"
	 viewBox="0 0 490 492" style="enable-background:new 0 0 490 492;" xml:space="preserve">
<style type="text/css">
	.st0{fill:none;}
</style>
<path d="M245,6C112.4,6,4.8,113.6,4.8,246.2c0,132.7,107.6,240.2,240.2,240.2s240.2-107.6,240.2-240.2C485.3,113.6,377.7,6,245,6z
	 M245,474.7c-126.2,0-228.5-102.3-228.5-228.5C16.6,120.1,118.9,17.8,245,17.8c126.2,0,228.5,102.3,228.5,228.5
	C473.5,372.4,371.2,474.7,245,474.7z"/>
<circle class="st0" cx="155.2" cy="247" r="12.1"/>
<circle class="st0" cx="155.2" cy="156.2" r="12.1"/>
<circle class="st0" cx="336.8" cy="247" r="12.1"/>
<circle class="st0" cx="155.2" cy="337.8" r="12.1"/>
<circle class="st0" cx="336.8" cy="156.2" r="12.1"/>
<circle class="st0" cx="246" cy="156.2" r="12.1"/>
<circle class="st0" cx="336.8" cy="337.8" r="12.1"/>
<circle class="st0" cx="246" cy="247" r="12.1"/>
<circle class="st0" cx="246" cy="337.8" r="12.1"/>
<path d="M313.4,253.1c2.7,10.4,12.1,18.2,23.4,18.2c13.4,0,24.2-10.8,24.2-24.2s-10.8-24.2-24.2-24.2c-11.3,0-20.7,7.7-23.4,18.2
	h-44.1c-0.6-2.3-1.5-4.5-2.8-6.5l57.6-57.6c3.7,2.2,8,3.6,12.6,3.6c13.4,0,24.2-10.8,24.2-24.2S350.2,132,336.8,132
	c-13.4,0-24.2,10.8-24.2,24.2c0,4.3,1.2,8.4,3.2,11.9L257.9,226c-1.8-1-3.8-1.8-5.8-2.4v-44.1c10.4-2.7,18.2-12.1,18.2-23.4
	c0-13.4-10.8-24.2-24.2-24.2s-24.2,10.8-24.2,24.2c0,11.3,7.7,20.7,18.2,23.4v44.1c-1.5,0.4-2.9,0.9-4.2,1.5l-58.7-58.7
	c1.5-3.1,2.4-6.6,2.4-10.3c0-13.4-10.8-24.2-24.2-24.2c-13.4,0-24.2,10.8-24.2,24.2s10.8,24.2,24.2,24.2c5.3,0,10.1-1.7,14.1-4.6
	l57.1,57.1c-1.7,2.4-3,5.1-3.7,8h-44.1c-2.7-10.4-12.1-18.2-23.4-18.2c-13.4,0-24.2,10.8-24.2,24.2s10.8,24.2,24.2,24.2
	c11.3,0,20.7-7.7,23.4-18.2h44.1c0.5,2.1,1.3,4,2.4,5.8l-57.9,57.9c-3.5-2-7.5-3.2-11.9-3.2c-13.4,0-24.2,10.8-24.2,24.2
	s10.8,24.2,24.2,24.2c13.4,0,24.2-10.8,24.2-24.2c0-4.6-1.4-8.9-3.6-12.6l57.6-57.6c2,1.2,4.2,2.2,6.5,2.8v44.1
	c-10.4,2.7-18.2,12.1-18.2,23.4c0,13.4,10.8,24.2,24.2,24.2s24.2-10.8,24.2-24.2c0-11.3-7.7-20.7-18.2-23.4v-44.1
	c2.9-0.8,5.6-2,8-3.7l57.1,57.1c-2.9,4-4.6,8.8-4.6,14.1c0,13.4,10.8,24.2,24.2,24.2c13.4,0,24.2-10.8,24.2-24.2
	s-10.8-24.2-24.2-24.2c-3.7,0-7.1,0.9-10.3,2.4l-58.7-58.7c0.6-1.3,1.1-2.7,1.5-4.2H313.4z M336.8,234.9c6.7,0,12.1,5.4,12.1,12.1
	s-5.4,12.1-12.1,12.1c-6.7,0-12.1-5.4-12.1-12.1S330.1,234.9,336.8,234.9z M336.8,144.1c6.7,0,12.1,5.4,12.1,12.1
	s-5.4,12.1-12.1,12.1c-6.7,0-12.1-5.4-12.1-12.1S330.1,144.1,336.8,144.1z M155.2,168.3c-6.7,0-12.1-5.4-12.1-12.1
	s5.4-12.1,12.1-12.1c6.7,0,12.1,5.4,12.1,12.1S161.9,168.3,155.2,168.3z M155.2,259.1c-6.7,0-12.1-5.4-12.1-12.1s5.4-12.1,12.1-12.1
	c6.7,0,12.1,5.4,12.1,12.1S161.9,259.1,155.2,259.1z M155.2,349.9c-6.7,0-12.1-5.4-12.1-12.1c0-6.7,5.4-12.1,12.1-12.1
	c6.7,0,12.1,5.4,12.1,12.1C167.3,344.5,161.9,349.9,155.2,349.9z M233.9,156.2c0-6.7,5.4-12.1,12.1-12.1s12.1,5.4,12.1,12.1
	c0,6.7-5.4,12.1-12.1,12.1S233.9,162.9,233.9,156.2z M258.1,337.8c0,6.7-5.4,12.1-12.1,12.1s-12.1-5.4-12.1-12.1
	c0-6.7,5.4-12.1,12.1-12.1S258.1,331.1,258.1,337.8z M246,259.1c-6.7,0-12.1-5.4-12.1-12.1c0-6.7,5.4-12.1,12.1-12.1
	s12.1,5.4,12.1,12.1C258.1,253.7,252.7,259.1,246,259.1z M348.9,337.8c0,6.7-5.4,12.1-12.1,12.1c-6.7,0-12.1-5.4-12.1-12.1
	c0-6.7,5.4-12.1,12.1-12.1C343.5,325.7,348.9,331.1,348.9,337.8z"/>
</svg>
