<?xml version="1.0" encoding="utf-8"?>
<!-- Generator: Adobe Illustrator 21.1.0, SVG Export Plug-In . SVG Version: 6.00 Build 0)  -->
<svg version="1.1" id="Layer_1" xmlns="http://www.w3.org/2000/svg" xmlns:xlink="http://www.w3.org/1999/xlink" x="0px" y="0px"
	 viewBox="0 0 460 387" style="enable-background:new 0 0 460 387;" xml:space="preserve">
<g id="Layer_1_1_">
</g>
<g>
	<g>
		<path d="M450.2,188.8l-95.5-95.5c-3-3-8.2-3-11.2,0l-20.7,20.7c-3.1,3.1-3.1,8.1,0,11.2l69.2,69.2l-69.2,69.2
			c-3.1,3.1-3.1,8.1,0,11.2l20.7,20.7c1.5,1.5,3.5,2.3,5.6,2.3c2.1,0,4.1-0.8,5.6-2.3l95.5-95.5
			C453.3,196.9,453.3,191.9,450.2,188.8z"/>
		<path d="M137.1,263.6l-69.2-69.2l69.2-69.2c1.5-1.5,2.3-3.5,2.3-5.6c0-2.1-0.8-4.1-2.3-5.6l-20.7-20.7c-1.5-1.5-3.5-2.3-5.6-2.3
			c-2.1,0-4.1,0.8-5.6,2.3L9.6,188.8c-3.1,3.1-3.1,8.1,0,11.2l95.5,95.5c1.5,1.5,3.5,2.3,5.6,2.3s4.1-0.8,5.6-2.3l20.7-20.7
			C140.2,271.7,140.2,266.7,137.1,263.6z"/>
		<path d="M284.2,61.1c-1-1.8-2.7-3.2-4.7-3.8l-16.8-5c-4.2-1.2-8.6,1.2-9.8,5.4l-78,264c-0.6,2-0.4,4.2,0.6,6
			c1,1.8,2.7,3.2,4.7,3.8l16.8,5c0.7,0.2,1.5,0.3,2.2,0.3c3.4,0,6.6-2.2,7.6-5.7l78-264C285.5,65.1,285.3,62.9,284.2,61.1z"/>
	</g>
</g>
</svg>
