<?xml version="1.0" encoding="utf-8"?>
<!-- Generator: Adobe Illustrator 22.1.0, SVG Export Plug-In . SVG Version: 6.00 Build 0)  -->
<svg version="1.1" id="Layer_2_1_" xmlns="http://www.w3.org/2000/svg" xmlns:xlink="http://www.w3.org/1999/xlink" x="0px" y="0px"
	 viewBox="0 0 452 452" style="enable-background:new 0 0 452 452;" xml:space="preserve">
<g>
	<g>
		<path d="M398.3,186.1l-27-4.6c-2.8-9.1-6.4-17.8-10.8-26.2l15.9-22.2c6.7-9.5,5.7-22.4-2.6-30.6L350,78.7c-4.5-4.5-10.4-7-16.8-7
			c-5,0-9.7,1.5-13.7,4.4L297.2,92c-8.7-4.6-17.7-8.3-27.1-11.2l-4.5-26.6c-1.9-11.5-11.8-19.8-23.4-19.8h-33.8
			c-11.6,0-21.5,8.3-23.4,19.8l-4.7,27.3c-9,2.8-17.7,6.5-26.1,11l-22.1-15.9c-4-2.9-8.8-4.4-13.8-4.4c-6.3,0-12.4,2.5-16.8,7
			l-24,23.9c-8.2,8.2-9.3,21.1-2.6,30.6l16,22.5c-4.4,8.4-7.9,17.2-10.7,26.2l-26.6,4.5C42.3,188.9,34,198.7,34,210.4v33.8
			c0,11.6,8.3,21.5,19.8,23.4l27.3,4.7c2.8,9,6.5,17.7,11,26.1l-15.8,22c-6.7,9.5-5.7,22.4,2.6,30.6l23.9,23.9
			c4.5,4.5,10.4,7,16.8,7c5,0,9.7-1.5,13.7-4.4l22.5-16c8.1,4.3,16.6,7.7,25.3,10.4l4.5,27c1.9,11.5,11.8,19.8,23.4,19.8h33.9
			c11.6,0,21.5-8.3,23.4-19.8l4.6-27c9.1-2.8,17.8-6.4,26.2-10.8l22.2,15.9c4,2.9,8.8,4.4,13.8,4.4l0,0c6.3,0,12.3-2.5,16.8-7
			l23.9-23.9c8.2-8.2,9.3-21.1,2.6-30.6l-15.9-22.3c4.4-8.4,8.1-17.2,10.8-26.2l27-4.5c11.5-1.9,19.8-11.8,19.8-23.4v-33.8
			C418.2,197.9,409.8,188.1,398.3,186.1z M396.5,243.3c0,1-0.7,1.9-1.8,2.1L361,251c-4.3,0.7-7.6,3.9-8.7,7.9
			c-3,11.8-7.7,23.1-14,33.6c-2.2,3.7-2,8.3,0.5,11.8l19.8,27.9c0.6,0.8,0.5,2-0.2,2.7l-23.9,23.9c-0.6,0.6-1.1,0.6-1.5,0.6
			c-0.5,0-0.9-0.2-1.2-0.4L304,339.4c-3.4-2.5-8.1-2.6-11.8-0.5c-10.5,6.3-21.8,10.9-33.6,14c-4.2,1-7.3,4.5-7.9,8.7l-5.7,33.7
			c-0.2,1-1,1.8-2.1,1.8h-33.8c-1,0-1.9-0.7-2.1-1.8l-5.6-33.7c-0.7-4.3-3.9-7.6-7.9-8.7c-11.5-3-22.5-7.5-32.9-13.5
			c-1.7-1-3.6-1.4-5.5-1.4c-2.2,0-4.4,0.6-6.3,2l-28.1,20c-0.4,0.2-0.8,0.4-1.2,0.4c-0.3,0-1-0.1-1.5-0.6l-23.9-23.9
			c-0.7-0.7-0.8-1.8-0.2-2.7l19.7-27.7c2.5-3.5,2.6-8.2,0.5-11.9c-6.3-10.4-11.1-21.7-14.1-33.5c-1.1-4.1-4.5-7.2-8.7-7.9l-33.9-5.8
			c-1-0.2-1.8-1-1.8-2.1v-33.8c0-1,0.7-1.9,1.8-2.1l33.5-5.6c4.3-0.7,7.7-3.9,8.7-8c3-11.8,7.5-23.2,13.7-33.7
			c2.2-3.7,1.9-8.3-0.6-11.7l-20-28.1c-0.6-0.8-0.5-2,0.2-2.7l23.9-23.9c0.6-0.6,1.1-0.6,1.5-0.6c0.5,0,0.9,0.2,1.2,0.4l27.7,19.7
			c3.5,2.5,8.2,2.6,11.9,0.5c10.4-6.3,21.7-11.1,33.5-14.1c4.1-1.1,7.2-4.5,7.9-8.7l5.8-33.9c0.2-1,1-1.8,2.1-1.8h33.8
			c1,0,1.9,0.7,2.1,1.8l5.6,33.5c0.7,4.3,3.9,7.7,8,8.7c12.1,3,23.7,7.8,34.4,14.1c3.7,2.2,8.3,2,11.8-0.5l27.7-19.9
			c0.4-0.2,0.8-0.4,1.2-0.4c0.3,0,1,0.1,1.5,0.6l23.9,23.9c0.7,0.7,0.8,1.8,0.2,2.7L339,148.4c-2.5,3.4-2.6,8.1-0.5,11.8
			c6.3,10.5,10.9,21.8,14,33.6c1,4.2,4.5,7.3,8.7,7.9l33.7,5.7c1,0.2,1.8,1,1.8,2.1L396.5,243.3L396.5,243.3z"/>
		<path d="M226,143.5c-45.7,0-82.9,37.1-82.9,82.9s37.1,82.9,82.9,82.9s82.9-37.1,82.9-82.9S271.8,143.5,226,143.5z M226,287.6
			c-33.8,0-61.2-27.4-61.2-61.2s27.4-61.2,61.2-61.2s61.2,27.4,61.2,61.2S259.8,287.6,226,287.6z"/>
	</g>
</g>
</svg>
