<?xml version="1.0" encoding="utf-8"?>
<!-- Generator: Adobe Illustrator 21.1.0, SVG Export Plug-In . SVG Version: 6.00 Build 0)  -->
<svg version="1.1" id="Layer_1" xmlns="http://www.w3.org/2000/svg" xmlns:xlink="http://www.w3.org/1999/xlink" x="0px" y="0px"
	 viewBox="0 0 500 500" style="enable-background:new 0 0 500 500;" xml:space="preserve">
<path d="M15.4,75.8v348.5c0,33,26.8,59.8,59.8,59.8h348.5c33,0,59.8-26.8,59.8-59.8V75.8c0-33-26.8-59.8-59.8-59.8H75.2
	C42.2,16,15.4,42.8,15.4,75.8z M160.2,260.6c5.1-5,13.3-5,18.4,0l70.7,69.8l70.7-69.8c5.1-5,13.3-5,18.4,0c5.1,5,5.1,13.2,0,18.2
	l-79.9,78.9c-2.5,2.5-5.9,3.8-9.2,3.8s-6.7-1.3-9.2-3.8l-79.9-78.9C155.1,273.8,155.1,265.7,160.2,260.6z M160.2,162.5
	c5.1-5,13.3-5,18.4,0l70.7,69.8l70.7-69.8c5.1-5,13.3-5,18.4,0c5.1,5,5.1,13.2,0,18.2l-79.9,78.9c-2.5,2.5-5.9,3.8-9.2,3.8
	s-6.7-1.3-9.2-3.8l-79.9-78.9C155.1,175.7,155.1,167.6,160.2,162.5z"/>
</svg>
