<?xml version="1.0" encoding="utf-8"?>
<!-- Generator: Adobe Illustrator 21.1.0, SVG Export Plug-In . SVG Version: 6.00 Build 0)  -->
<svg version="1.1" id="Layer_1" xmlns="http://www.w3.org/2000/svg" xmlns:xlink="http://www.w3.org/1999/xlink" x="0px" y="0px"
	 viewBox="0 0 500 500" style="enable-background:new 0 0 500 500;" xml:space="preserve">
<path d="M75.2,484.1h348.5c33,0,59.8-26.8,59.8-59.8V75.8c0-33-26.8-59.8-59.8-59.8H75.2c-33,0-59.8,26.8-59.8,59.8v348.5
	C15.4,457.3,42.2,484.1,75.2,484.1z M260.1,339.4c-5-5.1-5-13.3,0-18.4l69.8-70.7l-69.8-70.7c-5-5.1-5-13.3,0-18.4
	c5-5.1,13.2-5.1,18.2,0l78.9,79.9c2.5,2.5,3.8,5.9,3.8,9.2s-1.3,6.7-3.8,9.2l-78.9,79.9C273.2,344.5,265.1,344.5,260.1,339.4z
	 M162,339.4c-5-5.1-5-13.3,0-18.4l69.8-70.7L162,179.6c-5-5.1-5-13.3,0-18.4c5-5.1,13.2-5.1,18.2,0l78.9,79.9
	c2.5,2.5,3.8,5.9,3.8,9.2s-1.3,6.7-3.8,9.2l-78.9,79.9C175.1,344.5,167,344.5,162,339.4z"/>
</svg>
