<?xml version="1.0" encoding="utf-8"?>
<!-- Generator: Adobe Illustrator 21.1.0, SVG Export Plug-In . SVG Version: 6.00 Build 0)  -->
<svg version="1.1" id="Layer_1" xmlns="http://www.w3.org/2000/svg" xmlns:xlink="http://www.w3.org/1999/xlink" x="0px" y="0px"
	 viewBox="0 0 500 500" style="enable-background:new 0 0 500 500;" xml:space="preserve">
<path d="M483.6,424.3V75.8c0-33-26.8-59.8-59.8-59.8H75.2c-33,0-59.8,26.8-59.8,59.8v348.5c0,33,26.8,59.8,59.8,59.8h348.5
	C456.8,484.1,483.6,457.3,483.6,424.3z M220.7,339.4l-78.9-79.9c-2.5-2.5-3.8-5.9-3.8-9.2s1.3-6.7,3.8-9.2l78.9-79.9
	c5-5.1,13.2-5.1,18.2,0c5,5.1,5,13.3,0,18.4l-69.8,70.7l69.8,70.7c5,5.1,5,13.3,0,18.4C233.9,344.5,225.8,344.5,220.7,339.4z
	 M318.8,339.4l-78.9-79.9c-2.5-2.5-3.8-5.9-3.8-9.2s1.3-6.7,3.8-9.2l78.9-79.9c5-5.1,13.2-5.1,18.2,0c5,5.1,5,13.3,0,18.4
	l-69.8,70.7L337,321c5,5.1,5,13.3,0,18.4C332,344.5,323.9,344.5,318.8,339.4z"/>
</svg>
