<?xml version="1.0" encoding="utf-8"?>
<!-- Generator: Adobe Illustrator 21.1.0, SVG Export Plug-In . SVG Version: 6.00 Build 0)  -->
<svg version="1.1" id="Layer_1" xmlns="http://www.w3.org/2000/svg" xmlns:xlink="http://www.w3.org/1999/xlink" x="0px" y="0px"
	 viewBox="0 0 500 500" style="enable-background:new 0 0 500 500;" xml:space="preserve">
<g>
	<path d="M472.2,199.4h-18c-4.6-17.1-11.4-33.4-20.2-48.7l12.7-12.7c4.7-4.7,7.3-10.9,7.3-17.5s-2.6-12.9-7.3-17.6l-40.6-40.6
		c-9.4-9.4-25.7-9.4-35.1,0L358.2,75c-15.3-8.8-31.6-15.6-48.7-20.2v-18c0-13.7-11.1-24.8-24.8-24.8h-57.5
		c-13.7,0-24.8,11.1-24.8,24.8v18C185.3,59.4,169,66.2,153.7,75L141,62.3c-9.4-9.4-25.7-9.4-35.1,0l-40.6,40.6
		c-4.7,4.7-7.3,10.9-7.3,17.6c0,6.6,2.6,12.9,7.3,17.5L78,150.7c-8.8,15.3-15.6,31.6-20.2,48.7h-18c-13.7,0-24.8,11.1-24.8,24.8
		v57.5c0,13.7,11.1,24.8,24.8,24.8h18c4.6,17.1,11.4,33.4,20.2,48.7L65.3,368c-4.7,4.7-7.3,10.9-7.3,17.5s2.6,12.9,7.3,17.6
		l40.6,40.6c9.4,9.4,25.7,9.4,35.1,0l12.7-12.7c15.3,8.8,31.7,15.6,48.7,20.2v18c0,13.7,11.1,24.8,24.8,24.8h57.5
		c13.7,0,24.8-11.1,24.8-24.8v-18c17.1-4.6,33.4-11.4,48.7-20.2l12.7,12.7c9.4,9.4,25.7,9.4,35.1,0l40.6-40.6
		c4.7-4.7,7.3-10.9,7.3-17.6c0-6.6-2.6-12.9-7.3-17.5L434,355.3c8.8-15.3,15.6-31.7,20.2-48.7h18c13.7,0,24.8-11.1,24.8-24.8v-57.5
		C497,210.6,485.9,199.4,472.2,199.4z M479.1,281.7c0,3.8-3.1,7-7,7H440l-1.6,6.9c-4.7,20-12.5,38.9-23.3,56.3l-3.7,6l22.7,22.7
		c2.7,2.7,2.7,7.1,0,9.9l-40.6,40.6c-2.7,2.7-7.1,2.7-9.9,0l-22.7-22.7l-6,3.7c-17.4,10.8-36.4,18.7-56.3,23.3l-6.9,1.6v32.1
		c0,3.8-3.1,7-7,7h-57.5c-3.8,0-7-3.1-7-7V437l-6.9-1.6c-20-4.7-38.9-12.5-56.3-23.3l-6-3.7l-22.7,22.7c-2.7,2.7-7.1,2.7-9.9,0
		l-40.6-40.6c-2.7-2.7-2.7-7.1,0-9.9l22.7-22.7l-3.7-6c-10.8-17.4-18.7-36.4-23.3-56.3l-1.6-6.9H39.8c-3.8,0-7-3.1-7-7v-57.5
		c0-3.8,3.1-7,7-7h32.1l1.6-6.9c4.7-20,12.5-38.9,23.3-56.3l3.7-6l-22.7-22.7c-2.7-2.7-2.7-7.1,0-9.9l40.6-40.6
		c2.7-2.7,7.1-2.7,9.9,0L151,97.6l6-3.7c17.4-10.8,36.4-18.7,56.3-23.3l6.9-1.6V36.8c0-3.8,3.1-7,7-7h57.5c3.8,0,7,3.1,7,7v32.1
		l6.9,1.6c20,4.7,38.9,12.5,56.3,23.3l6,3.7l22.7-22.7c2.7-2.7,7.1-2.7,9.9,0l40.6,40.6c2.7,2.7,2.7,7.1,0,9.9L411.4,148l3.7,6
		c10.8,17.4,18.7,36.3,23.3,56.3l1.6,6.9h32.1c3.8,0,7,3.1,7,7V281.7z"/>
	<path d="M256,163.7c-49.2,0-89.3,40-89.3,89.3s40,89.3,89.3,89.3s89.3-40,89.3-89.3S305.2,163.7,256,163.7z M256,324.4
		c-39.4,0-71.4-32-71.4-71.4s32-71.4,71.4-71.4s71.4,32,71.4,71.4S295.4,324.4,256,324.4z"/>
</g>
</svg>
