<?xml version="1.0" encoding="utf-8"?>
<!-- Generator: Adobe Illustrator 21.1.0, SVG Export Plug-In . SVG Version: 6.00 Build 0)  -->
<svg version="1.1" id="Layer_1" xmlns="http://www.w3.org/2000/svg" xmlns:xlink="http://www.w3.org/1999/xlink" x="0px" y="0px"
	 viewBox="0 0 490 492" style="enable-background:new 0 0 490 492;" xml:space="preserve">
<g>
	<path d="M350.1,224.2h-8.7c-2.2-8.2-5.5-16.1-9.7-23.4l6.1-6.1c2.3-2.3,3.5-5.2,3.5-8.4c0-3.2-1.3-6.2-3.5-8.5l-19.5-19.5
		c-4.5-4.5-12.4-4.5-16.9,0l-6.2,6.1c-7.4-4.2-15.2-7.5-23.4-9.7v-8.7c0-6.6-5.3-11.9-11.9-11.9h-27.7c-6.6,0-11.9,5.3-11.9,11.9
		v8.7c-8.2,2.2-16.1,5.5-23.4,9.7l-6.1-6.1c-4.5-4.5-12.4-4.5-16.9,0l-19.5,19.5c-2.3,2.3-3.5,5.2-3.5,8.5c0,3.2,1.3,6.2,3.5,8.4
		l6.1,6.1c-4.2,7.4-7.5,15.2-9.7,23.4h-8.7c-6.6,0-11.9,5.3-11.9,11.9v27.7c0,6.6,5.3,11.9,11.9,11.9h8.7c2.2,8.2,5.5,16.1,9.7,23.4
		l-6.1,6.2c-2.3,2.3-3.5,5.2-3.5,8.4s1.3,6.2,3.5,8.5l19.5,19.5c4.5,4.5,12.4,4.5,16.9,0l6.1-6.1c7.4,4.2,15.3,7.5,23.4,9.7v8.7
		c0,6.6,5.3,11.9,11.9,11.9h27.7c6.6,0,11.9-5.3,11.9-11.9v-8.7c8.2-2.2,16.1-5.5,23.4-9.7l6.1,6.1c4.5,4.5,12.4,4.5,16.9,0
		l19.5-19.5c2.3-2.3,3.5-5.2,3.5-8.5c0-3.2-1.3-6.2-3.5-8.4l-6.1-6.1c4.2-7.4,7.5-15.3,9.7-23.4h8.7c6.6,0,11.9-5.3,11.9-11.9v-27.7
		C362,229.6,356.7,224.2,350.1,224.2z M353.4,263.8c0,1.8-1.5,3.4-3.4,3.4h-15.5l-0.8,3.3c-2.3,9.6-6,18.7-11.2,27.1l-1.8,2.9
		l10.9,10.9c1.3,1.3,1.3,3.4,0,4.8l-19.5,19.5c-1.3,1.3-3.4,1.3-4.8,0l-10.9-10.9l-2.9,1.8c-8.4,5.2-17.5,9-27.1,11.2l-3.3,0.8V354
		c0,1.8-1.5,3.4-3.4,3.4h-27.7c-1.8,0-3.4-1.5-3.4-3.4v-15.5l-3.3-0.8c-9.6-2.3-18.7-6-27.1-11.2l-2.9-1.8l-10.9,10.9
		c-1.3,1.3-3.4,1.3-4.8,0l-19.5-19.5c-1.3-1.3-1.3-3.4,0-4.8l10.9-10.9l-1.8-2.9c-5.2-8.4-9-17.5-11.2-27.1l-0.8-3.3h-15.5
		c-1.8,0-3.4-1.5-3.4-3.4v-27.7c0-1.8,1.5-3.4,3.4-3.4h15.5l0.8-3.3c2.3-9.6,6-18.7,11.2-27.1l1.8-2.9l-10.9-10.9
		c-1.3-1.3-1.3-3.4,0-4.8l19.5-19.5c1.3-1.3,3.4-1.3,4.8,0l10.9,11l2.9-1.8c8.4-5.2,17.5-9,27.1-11.2l3.3-0.8v-15.5
		c0-1.8,1.5-3.4,3.4-3.4h27.7c1.8,0,3.4,1.5,3.4,3.4v15.5l3.3,0.8c9.6,2.3,18.7,6,27.1,11.2l2.9,1.8l10.9-10.9
		c1.3-1.3,3.4-1.3,4.8,0l19.5,19.5c1.3,1.3,1.3,3.4,0,4.8l-10.9,10.9l1.8,2.9c5.2,8.4,9,17.5,11.2,27.1l0.8,3.3H350
		c1.8,0,3.4,1.5,3.4,3.4V263.8z"/>
	<path d="M246,207c-23.7,0-43,19.3-43,43s19.3,43,43,43s43-19.3,43-43S269.7,207,246,207z M246,284.4c-19,0-34.4-15.4-34.4-34.4
		s15.4-34.4,34.4-34.4s34.4,15.4,34.4,34.4S265,284.4,246,284.4z"/>
</g>
<path d="M245,6C112.4,6,4.8,113.6,4.8,246.2c0,132.7,107.6,240.2,240.2,240.2s240.2-107.6,240.2-240.2C485.3,113.6,377.7,6,245,6z
	 M245,474.7c-126.2,0-228.5-102.3-228.5-228.5C16.6,120.1,118.9,17.8,245,17.8c126.2,0,228.5,102.3,228.5,228.5
	C473.5,372.4,371.2,474.7,245,474.7z"/>
</svg>
