<?xml version="1.0" encoding="utf-8"?>
<!-- Generator: Adobe Illustrator 21.1.0, SVG Export Plug-In . SVG Version: 6.00 Build 0)  -->
<svg version="1.1" id="Layer_2" xmlns="http://www.w3.org/2000/svg" xmlns:xlink="http://www.w3.org/1999/xlink" x="0px" y="0px"
	 viewBox="0 0 482 452" style="enable-background:new 0 0 482 452;" xml:space="preserve">
<path d="M147,174c0,0,16-10,27,2s7,24,1,30s-96,97-96,97s-30,23-5,55s41,27,45,28s18-2,27-12s84-84,84-84l17-17c0,0,11-13,7-32
	c0,0,0-6-10-19s-6-23,0-31s24-9,32,2s20,20,22,52s-18,55-22,59s-55,56-55,56l-49,49c0,0-26,23-55,20c0,0-21,5-51-18s-36-41-36-41
	s-15-23-6-58c0,0,2-20,27-42S147,174,147,174z"/>
<path d="M330.3,277.6c0,0-16,10-27-2s-7-24-1-30s96-97,96-97s30-23,5-55s-41-27-45-28s-18,2-27,12s-84,84-84,84l-17,17
	c0,0-11,13-7,32c0,0,0,6,10,19s6,23,0,31s-24,9-32-2s-20-20-22-52s18-55,22-59s55-56,55-56l49-49c0,0,26-23,55-20c0,0,21-5,51,18
	s36,41,36,41s15,23,6,58c0,0-2,20-27,42S330.3,277.6,330.3,277.6z"/>
</svg>
