<?xml version="1.0" encoding="utf-8"?>
<!-- Generator: Adobe Illustrator 21.1.0, SVG Export Plug-In . SVG Version: 6.00 Build 0)  -->
<svg version="1.1" id="Layer_2" xmlns="http://www.w3.org/2000/svg" xmlns:xlink="http://www.w3.org/1999/xlink" x="0px" y="0px"
	 viewBox="0 0 482 452" style="enable-background:new 0 0 482 452;" xml:space="preserve">
<g>
	<g>
		<path d="M251.2,195.3c-4.7,4.7-4.7,12.3,0,17c19.6,19.6,19.6,51.3,0,70.9L148.4,386c-19.6,19.6-51.3,19.6-70.9,0l-15.4-15.4
			c-19.6-19.6-19.6-51.3,0-70.9l102.8-102.8c4.7-4.7,4.7-12.3,0-17s-12.3-4.7-17,0L45,282.7c-14,14-21.8,32.6-21.8,52.6
			c0,19.9,7.6,38.4,21.8,52.6l15.4,15.4C74.9,417.7,94,425,113,425s38.1-7.3,52.6-21.8l102.8-102.8c29-29,29-76.2,0-105.2
			C263.5,190.5,255.9,190.5,251.2,195.3z"/>
		<path d="M432.9,60.2l-15.4-15.4c-29-29-76.2-29-105.2,0L209.5,147.6c-29,29-29,76.2,0,105.2c4.7,4.7,12.3,4.7,17,0
			c4.7-4.7,4.7-12.3,0-17c-19.6-19.6-19.6-51.3,0-70.9L329.3,62c19.6-19.6,51.3-19.6,70.9,0l15.4,15.4c19.6,19.6,19.6,51.3,0,70.9
			L312.8,251.1c-4.7,4.7-4.7,12.3,0,17c2.4,2.4,5.4,3.6,8.5,3.6c3.1,0,6.2-1.1,8.5-3.6l102.8-102.8c14-14,21.8-32.6,21.8-52.6
			S447,74.3,432.9,60.2z"/>
	</g>
</g>
</svg>
