<?xml version="1.0" encoding="utf-8"?>
<!-- Generator: Adobe Illustrator 21.1.0, SVG Export Plug-In . SVG Version: 6.00 Build 0)  -->
<svg version="1.1" id="Layer_1" xmlns="http://www.w3.org/2000/svg" xmlns:xlink="http://www.w3.org/1999/xlink" x="0px" y="0px"
	 viewBox="0 0 500 500" style="enable-background:new 0 0 500 500;" xml:space="preserve">
<g>
	<g>
		<path d="M264.2,218.2c-5.3,5.3-5.3,13.8,0,19.2c22,22,22,57.7,0,79.6L148.8,432.3c-22,22-57.7,22-79.6,0L51.9,415
			c-22-22-22-57.7,0-79.6L167.2,220c5.3-5.3,5.3-13.8,0-19.2s-13.8-5.3-19.2,0L32.7,316.2C17,332,8.2,352.9,8.2,375.2
			s8.6,43.2,24.5,59L50,451.5c16.2,16.2,37.6,24.4,59,24.4s42.7-8.1,59-24.4l115.3-115.3c32.5-32.5,32.5-85.4,0-117.9
			C278.1,212.9,269.5,212.9,264.2,218.2z"/>
		<path d="M468,66.7l-17.3-17.3c-32.5-32.5-85.4-32.5-117.9,0L217.4,164.7c-32.5,32.5-32.5,85.4,0,117.9c5.3,5.3,13.8,5.3,19.2,0
			c5.3-5.3,5.3-13.8,0-19.2c-22-22-22-57.7,0-79.6L351.9,68.5c22-22,57.7-22,79.6,0l17.3,17.3c22,22,22,57.7,0,79.6L333.5,280.8
			c-5.3,5.3-5.3,13.8,0,19.2c2.6,2.6,6.1,4,9.5,4s6.9-1.3,9.5-4l115.3-115.3c15.7-15.7,24.5-36.7,24.5-59S483.8,82.5,468,66.7z"/>
	</g>
</g>
</svg>
