<?xml version="1.0" encoding="utf-8"?>
<!-- Generator: Adobe Illustrator 21.1.0, SVG Export Plug-In . SVG Version: 6.00 Build 0)  -->
<svg version="1.1" id="Layer_1" xmlns="http://www.w3.org/2000/svg" xmlns:xlink="http://www.w3.org/1999/xlink" x="0px" y="0px"
	 viewBox="0 0 490 492" style="enable-background:new 0 0 490 492;" xml:space="preserve">
<path d="M245,6C112.4,6,4.8,113.6,4.8,246.2c0,132.7,107.6,240.2,240.2,240.2s240.2-107.6,240.2-240.2C485.3,113.6,377.7,6,245,6z
	 M245,474.7c-126.2,0-228.5-102.3-228.5-228.5C16.6,120.1,118.9,17.8,245,17.8c126.2,0,228.5,102.3,228.5,228.5
	C473.5,372.4,371.2,474.7,245,474.7z"/>
<g>
	<g>
		<path d="M251.5,230c-2.6,2.6-2.6,6.8,0,9.4c10.8,10.8,10.8,28.3,0,39.1l-56.7,56.7c-10.8,10.8-28.3,10.8-39.1,0l-8.5-8.5
			c-10.8-10.8-10.8-28.3,0-39.1l56.7-56.7c2.6-2.6,2.6-6.8,0-9.4s-6.8-2.6-9.4,0l-56.7,56.7c-7.7,7.7-12,18-12,29s4.2,21.2,12,29
			l8.5,8.5c8,8,18.5,12,29,12s21-4,29-12l56.7-56.7c16-16,16-42,0-58C258.3,227.4,254.1,227.4,251.5,230z"/>
		<path d="M351.7,155.5l-8.5-8.5c-16-16-42-16-58,0l-56.7,56.7c-16,16-16,42,0,58c2.6,2.6,6.8,2.6,9.4,0c2.6-2.6,2.6-6.8,0-9.4
			c-10.8-10.8-10.8-28.3,0-39.1l56.7-56.7c10.8-10.8,28.3-10.8,39.1,0l8.5,8.5c10.8,10.8,10.8,28.3,0,39.1l-56.7,56.7
			c-2.6,2.6-2.6,6.8,0,9.4c1.3,1.3,3,2,4.7,2c1.7,0,3.4-0.6,4.7-2l56.7-56.7c7.7-7.7,12-18,12-29S359.5,163.3,351.7,155.5z"/>
	</g>
</g>
</svg>
