<?xml version="1.0" encoding="utf-8"?>
<!-- Generator: Adobe Illustrator 21.1.0, SVG Export Plug-In . SVG Version: 6.00 Build 0)  -->
<svg version="1.1" id="Layer_1" xmlns="http://www.w3.org/2000/svg" xmlns:xlink="http://www.w3.org/1999/xlink" x="0px" y="0px"
	 viewBox="0 0 490 492" style="enable-background:new 0 0 490 492;" xml:space="preserve">
<path d="M245,6C112.4,6,4.8,113.6,4.8,246.2c0,132.7,107.6,240.2,240.2,240.2s240.2-107.6,240.2-240.2C485.3,113.6,377.7,6,245,6z
	 M245,474.7c-126.2,0-228.5-102.3-228.5-228.5C16.6,120.1,118.9,17.8,245,17.8c126.2,0,228.5,102.3,228.5,228.5
	C473.5,372.4,371.2,474.7,245,474.7z"/>
<path d="M352.6,132.5H141.3c-6,0-10.9,4.9-10.9,10.9v49c0,6,4.9,10.9,10.9,10.9v0h211.3c6,0,10.9-4.9,10.9-10.9v-49
	C363.4,137.4,358.6,132.5,352.6,132.5z M167.9,186.3c-10.4,0-18.9-8.5-18.9-18.9c0-10.4,8.5-18.9,18.9-18.9s18.9,8.5,18.9,18.9
	C186.8,177.8,178.3,186.3,167.9,186.3z M266.4,165.3c-2.3,0-4.2-1.9-4.2-4.2c0-2.3,1.9-4.2,4.2-4.2s4.2,1.9,4.2,4.2
	C270.6,163.5,268.7,165.3,266.4,165.3z M274.8,177.9c-2.3,0-4.2-1.9-4.2-4.2c0-2.3,1.9-4.2,4.2-4.2s4.2,1.9,4.2,4.2
	C278.9,176,277.1,177.9,274.8,177.9z M283.1,165.3c-2.3,0-4.2-1.9-4.2-4.2c0-2.3,1.9-4.2,4.2-4.2c2.3,0,4.2,1.9,4.2,4.2
	C287.3,163.5,285.4,165.3,283.1,165.3z M291.5,177.9c-2.3,0-4.2-1.9-4.2-4.2c0-2.3,1.9-4.2,4.2-4.2s4.2,1.9,4.2,4.2
	C295.7,176,293.8,177.9,291.5,177.9z M299.9,165.3c-2.3,0-4.2-1.9-4.2-4.2c0-2.3,1.9-4.2,4.2-4.2c2.3,0,4.2,1.9,4.2,4.2
	C304.1,163.5,302.2,165.3,299.9,165.3z M308.3,177.9c-2.3,0-4.2-1.9-4.2-4.2c0-2.3,1.9-4.2,4.2-4.2s4.2,1.9,4.2,4.2
	C312.5,176,310.6,177.9,308.3,177.9z M316.7,165.3c-2.3,0-4.2-1.9-4.2-4.2c0-2.3,1.9-4.2,4.2-4.2c2.3,0,4.2,1.9,4.2,4.2
	C320.8,163.5,319,165.3,316.7,165.3z M325,177.9c-2.3,0-4.2-1.9-4.2-4.2c0-2.3,1.9-4.2,4.2-4.2s4.2,1.9,4.2,4.2
	C329.2,176,327.3,177.9,325,177.9z M333.4,165.3c-2.3,0-4.2-1.9-4.2-4.2c0-2.3,1.9-4.2,4.2-4.2s4.2,1.9,4.2,4.2
	C337.6,163.5,335.7,165.3,333.4,165.3z M341.8,177.9c-2.3,0-4.2-1.9-4.2-4.2c0-2.3,1.9-4.2,4.2-4.2s4.2,1.9,4.2,4.2
	C346,176,344.1,177.9,341.8,177.9z"/>
<path d="M352.6,212H141.3c-6,0-10.9,4.9-10.9,10.9v49c0,6,4.9,10.9,10.9,10.9v0h211.3c6,0,10.9-4.9,10.9-10.9v-49
	C363.4,216.9,358.6,212,352.6,212z M167.9,265.8c-10.4,0-18.9-8.5-18.9-18.9c0-10.4,8.5-18.9,18.9-18.9s18.9,8.5,18.9,18.9
	C186.8,257.3,178.3,265.8,167.9,265.8z M266.4,244.9c-2.3,0-4.2-1.9-4.2-4.2c0-2.3,1.9-4.2,4.2-4.2s4.2,1.9,4.2,4.2
	C270.6,243,268.7,244.9,266.4,244.9z M274.8,257.4c-2.3,0-4.2-1.9-4.2-4.2c0-2.3,1.9-4.2,4.2-4.2s4.2,1.9,4.2,4.2
	C278.9,255.6,277.1,257.4,274.8,257.4z M283.1,244.9c-2.3,0-4.2-1.9-4.2-4.2c0-2.3,1.9-4.2,4.2-4.2c2.3,0,4.2,1.9,4.2,4.2
	C287.3,243,285.4,244.9,283.1,244.9z M291.5,257.4c-2.3,0-4.2-1.9-4.2-4.2c0-2.3,1.9-4.2,4.2-4.2s4.2,1.9,4.2,4.2
	C295.7,255.6,293.8,257.4,291.5,257.4z M299.9,244.9c-2.3,0-4.2-1.9-4.2-4.2c0-2.3,1.9-4.2,4.2-4.2c2.3,0,4.2,1.9,4.2,4.2
	C304.1,243,302.2,244.9,299.9,244.9z M308.3,257.4c-2.3,0-4.2-1.9-4.2-4.2c0-2.3,1.9-4.2,4.2-4.2s4.2,1.9,4.2,4.2
	C312.5,255.6,310.6,257.4,308.3,257.4z M316.7,244.9c-2.3,0-4.2-1.9-4.2-4.2c0-2.3,1.9-4.2,4.2-4.2c2.3,0,4.2,1.9,4.2,4.2
	C320.8,243,319,244.9,316.7,244.9z M325,257.4c-2.3,0-4.2-1.9-4.2-4.2c0-2.3,1.9-4.2,4.2-4.2s4.2,1.9,4.2,4.2
	C329.2,255.6,327.3,257.4,325,257.4z M333.4,244.9c-2.3,0-4.2-1.9-4.2-4.2c0-2.3,1.9-4.2,4.2-4.2s4.2,1.9,4.2,4.2
	C337.6,243,335.7,244.9,333.4,244.9z M341.8,257.4c-2.3,0-4.2-1.9-4.2-4.2c0-2.3,1.9-4.2,4.2-4.2s4.2,1.9,4.2,4.2
	C346,255.6,344.1,257.4,341.8,257.4z"/>
<path d="M352.6,290.8H141.3c-6,0-10.9,4.9-10.9,10.9v49c0,6,4.9,10.9,10.9,10.9v0h211.3c6,0,10.9-4.9,10.9-10.9v-49
	C363.4,295.6,358.6,290.8,352.6,290.8z M167.9,344.5c-10.4,0-18.9-8.5-18.9-18.9c0-10.4,8.5-18.9,18.9-18.9s18.9,8.5,18.9,18.9
	C186.8,336.1,178.3,344.5,167.9,344.5z M266.4,323.6c-2.3,0-4.2-1.9-4.2-4.2c0-2.3,1.9-4.2,4.2-4.2s4.2,1.9,4.2,4.2
	C270.6,321.7,268.7,323.6,266.4,323.6z M274.8,336.2c-2.3,0-4.2-1.9-4.2-4.2c0-2.3,1.9-4.2,4.2-4.2s4.2,1.9,4.2,4.2
	C278.9,334.3,277.1,336.2,274.8,336.2z M283.1,323.6c-2.3,0-4.2-1.9-4.2-4.2c0-2.3,1.9-4.2,4.2-4.2c2.3,0,4.2,1.9,4.2,4.2
	C287.3,321.7,285.4,323.6,283.1,323.6z M291.5,336.2c-2.3,0-4.2-1.9-4.2-4.2c0-2.3,1.9-4.2,4.2-4.2s4.2,1.9,4.2,4.2
	C295.7,334.3,293.8,336.2,291.5,336.2z M299.9,323.6c-2.3,0-4.2-1.9-4.2-4.2c0-2.3,1.9-4.2,4.2-4.2c2.3,0,4.2,1.9,4.2,4.2
	C304.1,321.7,302.2,323.6,299.9,323.6z M308.3,336.2c-2.3,0-4.2-1.9-4.2-4.2c0-2.3,1.9-4.2,4.2-4.2s4.2,1.9,4.2,4.2
	C312.5,334.3,310.6,336.2,308.3,336.2z M316.7,323.6c-2.3,0-4.2-1.9-4.2-4.2c0-2.3,1.9-4.2,4.2-4.2c2.3,0,4.2,1.9,4.2,4.2
	C320.8,321.7,319,323.6,316.7,323.6z M325,336.2c-2.3,0-4.2-1.9-4.2-4.2c0-2.3,1.9-4.2,4.2-4.2s4.2,1.9,4.2,4.2
	C329.2,334.3,327.3,336.2,325,336.2z M333.4,323.6c-2.3,0-4.2-1.9-4.2-4.2c0-2.3,1.9-4.2,4.2-4.2s4.2,1.9,4.2,4.2
	C337.6,321.7,335.7,323.6,333.4,323.6z M341.8,336.2c-2.3,0-4.2-1.9-4.2-4.2c0-2.3,1.9-4.2,4.2-4.2s4.2,1.9,4.2,4.2
	C346,334.3,344.1,336.2,341.8,336.2z"/>
</svg>
