<?xml version="1.0" encoding="utf-8"?>
<!-- Generator: Adobe Illustrator 21.1.0, SVG Export Plug-In . SVG Version: 6.00 Build 0)  -->
<svg version="1.1" id="Layer_1" xmlns="http://www.w3.org/2000/svg" xmlns:xlink="http://www.w3.org/1999/xlink" x="0px" y="0px"
	 viewBox="0 0 482 500" style="enable-background:new 0 0 482 500;" xml:space="preserve">
<style type="text/css">
	.st0{fill:none;}
</style>
<path class="st0" d="M192.1,330h96.8c17,0,30.9-13.8,30.9-30.9v-13.2c0-4.9-3.9-8.8-8.8-8.8c-4.9,0-8.8,3.9-8.8,8.8v13.2
	c0,7.3-5.9,13.3-13.3,13.3h-96.8c-7.3,0-13.3-5.9-13.3-13.3v-13.2c0-4.9-3.9-8.8-8.8-8.8c-4.9,0-8.8,3.9-8.8,8.8v13.2
	C161.3,316.1,175.1,330,192.1,330z"/>
<path class="st0" d="M192.1,203.3h96.8c17,0,30.9-13.8,30.9-30.9v-13.2c0-4.9-3.9-8.8-8.8-8.8c-4.9,0-8.8,3.9-8.8,8.8v13.2
	c0,7.3-5.9,13.3-13.3,13.3h-96.8c-7.3,0-13.3-5.9-13.3-13.3v-13.2c0-4.9-3.9-8.8-8.8-8.8c-4.9,0-8.8,3.9-8.8,8.8v13.2
	C161.3,189.4,175.1,203.3,192.1,203.3z"/>
<path class="st0" d="M192.1,456.3h96.8c17,0,30.9-13.8,30.9-30.9v-13.2c0-4.9-3.9-8.8-8.8-8.8c-4.9,0-8.8,3.9-8.8,8.8v13.2
	c0,7.3-5.9,13.3-13.3,13.3h-96.8c-7.3,0-13.3-5.9-13.3-13.3v-13.2c0-4.9-3.9-8.8-8.8-8.8c-4.9,0-8.8,3.9-8.8,8.8v13.2
	C161.3,442.4,175.1,456.3,192.1,456.3z"/>
<polygon points="126.3,33.1 355.4,33.1 440.4,108.8 463.5,108.8 361.6,18 120.2,18 18.2,108.9 41.3,108.9 "/>
<path d="M18.2,125.4v103h444.8v-103H18.2z M319.8,172.4c0,17-13.8,30.9-30.9,30.9h-96.8c-17,0-30.9-13.8-30.9-30.9v-13.2
	c0-4.9,3.9-8.8,8.8-8.8c4.9,0,8.8,3.9,8.8,8.8v13.2c0,7.3,5.9,13.3,13.3,13.3h96.8c7.3,0,13.3-5.9,13.3-13.3v-13.2
	c0-4.9,3.9-8.8,8.8-8.8c4.9,0,8.8,3.9,8.8,8.8V172.4z"/>
<path d="M18.2,256.4v92.3h444.8v-92.3H18.2z M319.8,299.1c0,17-13.8,30.9-30.9,30.9h-96.8c-17,0-30.9-13.8-30.9-30.9v-13.2
	c0-4.9,3.9-8.8,8.8-8.8c4.9,0,8.8,3.9,8.8,8.8v13.2c0,7.3,5.9,13.3,13.3,13.3h96.8c7.3,0,13.3-5.9,13.3-13.3v-13.2
	c0-4.9,3.9-8.8,8.8-8.8c4.9,0,8.8,3.9,8.8,8.8V299.1z"/>
<path d="M18.2,378.8v101.3h444.8V378.8H18.2z M319.8,425.4c0,17-13.8,30.9-30.9,30.9h-96.8c-17,0-30.9-13.8-30.9-30.9v-13.2
	c0-4.9,3.9-8.8,8.8-8.8c4.9,0,8.8,3.9,8.8,8.8v13.2c0,7.3,5.9,13.3,13.3,13.3h96.8c7.3,0,13.3-5.9,13.3-13.3v-13.2
	c0-4.9,3.9-8.8,8.8-8.8c4.9,0,8.8,3.9,8.8,8.8V425.4z"/>
</svg>
