<?xml version="1.0" encoding="utf-8"?>
<!-- Generator: Adobe Illustrator 21.1.0, SVG Export Plug-In . SVG Version: 6.00 Build 0)  -->
<svg version="1.1" id="Layer_1" xmlns="http://www.w3.org/2000/svg" xmlns:xlink="http://www.w3.org/1999/xlink" x="0px" y="0px"
	 viewBox="0 0 490 492" style="enable-background:new 0 0 490 492;" xml:space="preserve">
<path d="M245,6C112.4,6,4.8,113.6,4.8,246.2c0,132.7,107.6,240.2,240.2,240.2s240.2-107.6,240.2-240.2C485.3,113.6,377.7,6,245,6z
	 M245,474.7c-126.2,0-228.5-102.3-228.5-228.5C16.6,120.1,118.9,17.8,245,17.8c126.2,0,228.5,102.3,228.5,228.5
	C473.5,372.4,371.2,474.7,245,474.7z"/>
<g>
	<path d="M362.5,196v-45.8c0-9.9-8-17.9-17.9-17.9H147.3c-9.9,0-17.9,8-17.9,17.9V196c0,5.7,2.7,10.7,6.9,14
		c-4.2,3.3-6.9,8.3-6.9,14v45.8c0,5.7,2.7,10.7,6.9,14c-4.2,3.3-6.9,8.3-6.9,14v45.8c0,9.9,8,17.9,17.9,17.9h197.3
		c9.9,0,17.9-8,17.9-17.9v-45.8c0-5.7-2.7-10.7-6.9-14c4.2-3.3,6.9-8.3,6.9-14V224c0-5.7-2.7-10.7-6.9-14
		C359.7,206.7,362.5,201.7,362.5,196z M354.7,297.8v45.8c0,5.6-4.5,10.1-10.1,10.1H147.3c-5.6,0-10.1-4.5-10.1-10.1v-45.8
		c0-5.6,4.5-10.1,10.1-10.1h197.3C350.1,287.7,354.7,292.3,354.7,297.8z M354.7,224v45.8c0,5.6-4.5,10.1-10.1,10.1H147.3
		c-5.6,0-10.1-4.5-10.1-10.1V224c0-5.6,4.5-10.1,10.1-10.1h197.3C350.1,213.9,354.7,218.5,354.7,224z M147.3,206.1
		c-5.6,0-10.1-4.5-10.1-10.1v-45.8c0-5.6,4.5-10.1,10.1-10.1h197.3c5.6,0,10.1,4.5,10.1,10.1V196c0,5.6-4.5,10.1-10.1,10.1
		L147.3,206.1L147.3,206.1z"/>
	<path d="M170.2,264.4c9.6,0,17.5-7.8,17.5-17.5c0-9.6-7.8-17.5-17.5-17.5s-17.5,7.8-17.5,17.5C152.7,256.6,160.5,264.4,170.2,264.4
		z M170.2,237.2c5.4,0,9.7,4.4,9.7,9.7s-4.4,9.7-9.7,9.7s-9.7-4.4-9.7-9.7S164.8,237.2,170.2,237.2z"/>
	<circle cx="323.6" cy="241.1" r="3.9"/>
	<circle cx="308.1" cy="241.1" r="3.9"/>
	<circle cx="331.4" cy="252.7" r="3.9"/>
	<circle cx="315.8" cy="252.7" r="3.9"/>
	<circle cx="292.5" cy="241.1" r="3.9"/>
	<circle cx="300.3" cy="252.7" r="3.9"/>
	<circle cx="277" cy="241.1" r="3.9"/>
	<circle cx="284.8" cy="252.7" r="3.9"/>
	<circle cx="261.5" cy="241.1" r="3.9"/>
	<circle cx="269.2" cy="252.7" r="3.9"/>
	<path d="M170.2,337.9c9.6,0,17.5-7.8,17.5-17.5c0-9.6-7.8-17.5-17.5-17.5s-17.5,7.8-17.5,17.5C152.7,330.1,160.5,337.9,170.2,337.9
		z M170.2,310.7c5.4,0,9.7,4.4,9.7,9.7s-4.4,9.7-9.7,9.7s-9.7-4.4-9.7-9.7S164.8,310.7,170.2,310.7z"/>
	<circle cx="323.6" cy="314.6" r="3.9"/>
	<circle cx="308.1" cy="314.6" r="3.9"/>
	<circle cx="331.4" cy="326.2" r="3.9"/>
	<circle cx="315.8" cy="326.2" r="3.9"/>
	<circle cx="292.5" cy="314.6" r="3.9"/>
	<circle cx="300.3" cy="326.2" r="3.9"/>
	<circle cx="277" cy="314.6" r="3.9"/>
	<circle cx="284.8" cy="326.2" r="3.9"/>
	<circle cx="261.5" cy="314.6" r="3.9"/>
	<circle cx="269.2" cy="326.2" r="3.9"/>
	<path d="M170.2,189.4c9.6,0,17.5-7.8,17.5-17.5c0-9.6-7.8-17.5-17.5-17.5s-17.5,7.8-17.5,17.5C152.7,181.6,160.5,189.4,170.2,189.4
		z M170.2,162.3c5.4,0,9.7,4.4,9.7,9.7s-4.4,9.7-9.7,9.7s-9.7-4.4-9.7-9.7S164.8,162.3,170.2,162.3z"/>
	<circle cx="323.6" cy="166.1" r="3.9"/>
	<circle cx="308.1" cy="166.1" r="3.9"/>
	<circle cx="331.4" cy="177.8" r="3.9"/>
	<circle cx="315.8" cy="177.8" r="3.9"/>
	<circle cx="292.5" cy="166.1" r="3.9"/>
	<circle cx="300.3" cy="177.8" r="3.9"/>
	<circle cx="277" cy="166.1" r="3.9"/>
	<circle cx="284.8" cy="177.8" r="3.9"/>
	<circle cx="261.5" cy="166.1" r="3.9"/>
	<circle cx="269.2" cy="177.8" r="3.9"/>
</g>
</svg>
