<?xml version="1.0" encoding="utf-8"?>
<!-- Generator: Adobe Illustrator 21.1.0, SVG Export Plug-In . SVG Version: 6.00 Build 0)  -->
<svg version="1.1" id="Layer_1" xmlns="http://www.w3.org/2000/svg" xmlns:xlink="http://www.w3.org/1999/xlink" x="0px" y="0px"
	 viewBox="0 0 500 500" style="enable-background:new 0 0 500 500;" xml:space="preserve">
<path d="M249.8,19C143.1,19,62.7,55.3,62.7,103.5v293c0,48.2,80.4,84.6,187.1,84.6s187.1-36.3,187.1-84.6v-293
	C436.8,55.3,356.4,19,249.8,19z M413.7,298.8c0,29-67.3,61.5-164,61.5s-164-32.3-164-61.5v-55.7c31.3,25.8,91.5,42.6,164,42.6
	s132.7-16.8,164-42.6V298.8z M413.7,201.2c0,29-67.3,61.5-164,61.5s-164-32.3-164-61.5v-55.7c31.3,25.8,91.5,42.6,164,42.6
	s132.7-16.8,164-42.6V201.2z M249.8,42.1c96.6,0,164,32.3,164,61.5s-67.3,61.5-164,61.5s-164-32.3-164-61.5S153.1,42.1,249.8,42.1z
	 M249.8,457.9c-96.6,0-164-32.3-164-61.5v-55.7c31.3,25.8,91.5,42.6,164,42.6s132.7-16.8,164-42.6v55.7
	C413.7,425.5,346.4,457.9,249.8,457.9z"/>
</svg>
