<?xml version="1.0" encoding="utf-8"?>
<!-- Generator: Adobe Illustrator 21.1.0, SVG Export Plug-In . SVG Version: 6.00 Build 0)  -->
<svg version="1.1" id="Layer_1" xmlns="http://www.w3.org/2000/svg" xmlns:xlink="http://www.w3.org/1999/xlink" x="0px" y="0px"
	 viewBox="0 0 500 500" style="enable-background:new 0 0 500 500;" xml:space="preserve">
<style type="text/css">
</style>
<g>
	<path class="st0" d="M166.4,270.4c0,41.1,34.3,60,34.5,60.1c0.3,0.1,24.1,13.1,34.6,18.9v-60.1c0,0,2.5-20.1-22.6-35.2
		c-9.5-5.7-27.6-16.1-46.5-26.8C166.4,232.7,166.4,244.5,166.4,270.4z"/>
	<path class="st0" d="M155.1,359.7c-28.6-16.8-35.8-35.9-37.5-46.7c-0.7-4.6-0.4-90-0.3-113.4c-9.1-5.1-15.1-8.4-15.1-8.4
		s-2.9-1.2-6.3-1.5c-1.9,0.1-3.3,1.4-4.3,3c0,0,0,0,0,0c-0.1,0.2-0.2,0.4-0.4,0.6c-0.9,1.6-1.4,3.3-1.7,4.3
		c-0.2,1.1-0.4,2.3-0.4,3.7v118.2c0,0-2.5,30.2,17.6,42.7c16.7,10.4,97.5,59,124.4,75.2c0,0,0,0.1,0,0.1l4.2,2.5V407
		C223.1,399.7,189.1,379.7,155.1,359.7z"/>
	<path d="M179,139.7l49,26.4v-55.3c-35.2-12.6-60.4,7.5-60.4,7.5V22.7c-50.3,20.1-50.3,52.8-50.3,52.8v65.4
		C153.8,127.1,179,139.7,179,139.7z"/>
	<path d="M411.1,289.8l23.3-60.6c2.9-7.4,6.6-24.1,7-27.5c1.8-13.8,0.3-45-40.9-69.9c-1.9-1.2-3.8-2.3-5.6-3.3
		c0-0.1-48.3-28-79.3-46c-55.9-32.6-83.9,16.3-83.9,16.3c18.6,0,46.6,16.3,46.6,16.3s55.9,32.6,90.9,53.6c35,21,23.3,55.9,23.3,55.9
		l-17.3,49.8l-7.4,20c0-35.8-0.2-71.7-0.2-71.7s2.5-27.7-27.7-45.3c-30.2-17.6-39-23.9-39-23.9v60.4c0,0,17.6,15.1,17.6,37.7
		s0,125.7,0,125.7s-2.3,31.5-15.3,39.2c-0.3,0.1-1.2,0.7-1.6,1c-0.7,0.6-1.7,1.6-1.9,2.4c-0.5,1.7,0.1,3.2,6.2,0.2
		c9-4.5,52.3-25.2,61.3-54.7c0.4-1.4,0.6-25.3,0.6-53.1l1,0.7v0l0.1,0.1l0.2,0.1l0.1,0l1.4,0.8l52.3,36.4l37.3-21L411.1,289.8z"/>
	<path d="M238,113.3v95.6L134.9,151c0,0-32.7-15.1-62.9,2.5c-30.2,17.6-32.7,50.3-32.7,80.5c0,30.2,0,113.2,0,113.2
		s0,37.7,27.7,52.8c27.7,15.1,113.2,65.4,113.2,65.4s32.7,20.1,60.4,7.5c0.4-0.2,0.9-0.4,1.3-0.6c45.3-16.9,48.7-54.3,48.7-54.3
		l0.3-251.9C290.9,166.1,288.3,130.9,238,113.3z M235.5,289.3v60.1c-10.6-5.8-34.3-18.8-34.6-18.9c-0.2-0.1-34.5-19-34.5-60.1
		c0-25.9,0-37.7,0-43.1c18.9,10.7,37,21.1,46.5,26.8C238,269.2,235.5,289.3,235.5,289.3z M231.4,437.5
		C231.4,437.4,231.4,437.4,231.4,437.5c-27-16.3-107.7-64.8-124.4-75.2c-20.1-12.6-17.6-42.7-17.6-42.7V201.3c0-1.4,0.1-2.6,0.4-3.7
		c0.2-1,0.8-2.7,1.7-4.3c0.1-0.2,0.2-0.4,0.4-0.6c0,0,0,0,0,0c1-1.6,2.4-2.9,4.3-3c3.4,0.3,6.3,1.5,6.3,1.5s5.9,3.3,15.1,8.4
		c-0.1,23.4-0.4,108.8,0.3,113.4c1.6,10.8,8.9,29.9,37.5,46.7c34,20,68,40,80.5,47.3v32.9L231.4,437.5z"/>
</g>
</svg>
