<?xml version="1.0" encoding="utf-8"?>
<!-- Generator: Adobe Illustrator 21.1.0, SVG Export Plug-In . SVG Version: 6.00 Build 0)  -->
<svg version="1.1" id="Layer_1" xmlns="http://www.w3.org/2000/svg" xmlns:xlink="http://www.w3.org/1999/xlink" x="0px" y="0px"
	 viewBox="0 0 342 347" style="enable-background:new 0 0 342 347;" xml:space="preserve">
<g>
	<path d="M281.4,95.1l-59.3-62.9c-6.3-6.7-14.7-11.1-25.1-13.1v102.6h96.7C291.9,110.7,287.8,101.8,281.4,95.1z"/>
	<path d="M191,147.5c-5.1,0-9.4-1.9-12.9-5.6s-5.3-8.3-5.3-13.7V18.5H69.4c-5.1,0-9.4,1.9-12.9,5.6c-3.5,3.8-5.3,8.3-5.3,13.7v270.8
		c0,5.4,1.8,9.9,5.3,13.7c3.5,3.8,7.9,5.6,12.9,5.6h206.7c5.1,0,9.4-1.9,12.9-5.6c3.5-3.8,5.3-8.3,5.3-13.7V147.5H191z M235.5,273
		H109.9c-2.8,0-5-2.2-5-5c0-2.8,2.3-5,5-5h125.6c2.8,0,5,2.2,5,5C240.5,270.8,238.3,273,235.5,273z M235.5,232.8H109.9
		c-2.8,0-5-2.2-5-5c0-2.8,2.3-5,5-5h125.6c2.8,0,5,2.2,5,5C240.5,230.6,238.3,232.8,235.5,232.8z M235.5,192.7H109.9
		c-2.8,0-5-2.2-5-5s2.3-5,5-5h125.6c2.8,0,5,2.2,5,5S238.3,192.7,235.5,192.7z"/>
</g>
</svg>
