<?xml version="1.0" encoding="utf-8"?>
<!-- Generator: Adobe Illustrator 21.1.0, SVG Export Plug-In . SVG Version: 6.00 Build 0)  -->
<svg version="1.1" id="Layer_1" xmlns="http://www.w3.org/2000/svg" xmlns:xlink="http://www.w3.org/1999/xlink" x="0px" y="0px"
	 viewBox="0 0 228 287" style="enable-background:new 0 0 228 287;" xml:space="preserve">
<g>
	<path d="M169,110.2H61.3c-2.4,0-4.3,1.9-4.3,4.3c0,2.4,1.9,4.3,4.3,4.3H169c2.4,0,4.3-1.9,4.3-4.3
		C173.3,112.1,171.4,110.2,169,110.2z"/>
	<path d="M61.3,84.4h43.1c2.4,0,4.3-1.9,4.3-4.3s-1.9-4.3-4.3-4.3H61.3c-2.4,0-4.3,1.9-4.3,4.3S58.9,84.4,61.3,84.4z"/>
	<path d="M169,144.7H61.3c-2.4,0-4.3,1.9-4.3,4.3s1.9,4.3,4.3,4.3H169c2.4,0,4.3-1.9,4.3-4.3S171.4,144.7,169,144.7z"/>
	<path d="M169,179.2H61.3c-2.4,0-4.3,1.9-4.3,4.3c0,2.4,1.9,4.3,4.3,4.3H169c2.4,0,4.3-1.9,4.3-4.3
		C173.3,181.1,171.4,179.2,169,179.2z"/>
	<path d="M169,213.7H61.3c-2.4,0-4.3,1.9-4.3,4.3s1.9,4.3,4.3,4.3H169c2.4,0,4.3-1.9,4.3-4.3S171.4,213.7,169,213.7z"/>
	<path d="M153.6,15.4H13.8V274h202.6V78.3L153.6,15.4z M156.1,30.1l45.6,45.6h-45.6V30.1z M22.5,265.4V24h125v60.3h60.3v181H22.5z"
		/>
</g>
</svg>
