<?xml version="1.0" encoding="utf-8"?>
<!-- Generator: Adobe Illustrator 21.1.0, SVG Export Plug-In . SVG Version: 6.00 Build 0)  -->
<svg version="1.1" id="Layer_1" xmlns="http://www.w3.org/2000/svg" xmlns:xlink="http://www.w3.org/1999/xlink" x="0px" y="0px"
	 viewBox="0 0 342 418" style="enable-background:new 0 0 342 418;" xml:space="preserve">
<g>
	<path d="M267.1,176.4H107.4c-3.5,0-6.4,2.9-6.4,6.4s2.9,6.4,6.4,6.4h159.7c3.5,0,6.4-2.9,6.4-6.4S270.6,176.4,267.1,176.4z"/>
	<path d="M107.4,138.1h63.9c3.5,0,6.4-2.9,6.4-6.4s-2.9-6.4-6.4-6.4h-63.9c-3.5,0-6.4,2.9-6.4,6.4S103.9,138.1,107.4,138.1z"/>
	<path d="M267.1,227.5H107.4c-3.5,0-6.4,2.9-6.4,6.4s2.9,6.4,6.4,6.4h159.7c3.5,0,6.4-2.9,6.4-6.4S270.6,227.5,267.1,227.5z"/>
	<path d="M267.1,278.6H107.4c-3.5,0-6.4,2.9-6.4,6.4c0,3.5,2.9,6.4,6.4,6.4h159.7c3.5,0,6.4-2.9,6.4-6.4
		C273.5,281.5,270.6,278.6,267.1,278.6z"/>
	<path d="M267.1,329.7H107.4c-3.5,0-6.4,2.9-6.4,6.4s2.9,6.4,6.4,6.4h159.7c3.5,0,6.4-2.9,6.4-6.4S270.6,329.7,267.1,329.7z"/>
	<path d="M292.7,109.9V16.7H18v351.3h31.9V400h274.7V141.8L292.7,109.9z M235.2,70.5l57.5,57.5l10.1,10.1h-67.6V70.5z M30.8,355.3
		V29.5h249.1v67.6l-48.5-48.5H49.9v306.6H30.8z M62.7,387.2v-19.2V61.4h159.7v89.4h89.4v236.4H62.7z"/>
</g>
</svg>
