<?xml version="1.0" encoding="utf-8"?>
<!-- Generator: Adobe Illustrator 21.1.0, SVG Export Plug-In . SVG Version: 6.00 Build 0)  -->
<svg version="1.1" xmlns="http://www.w3.org/2000/svg" xmlns:xlink="http://www.w3.org/1999/xlink" x="0px" y="0px"
	 viewBox="0 0 356 359" style="enable-background:new 0 0 356 359;" xml:space="preserve">
<g id="Layer_1">
</g>
<g id="Layer_2">
	<g>
		<path d="M355.1,174.7c-0.6-1.4-1.4-2.6-2.4-3.6l-37.9-37.9c-4.3-4.3-11.4-4.3-15.7,0c-4.3,4.3-4.3,11.4,0,15.7l19,19l-128.5,0
			l0-128.4l19.8,19.8c2.2,2.2,5,3.3,7.9,3.3c2.8,0,5.7-1.1,7.9-3.3c4.3-4.3,4.3-11.4,0-15.7L186.4,4.7c-1-1-2.3-1.8-3.6-2.4
			c-2.7-1.1-5.8-1.1-8.5,0c-1.4,0.6-2.6,1.4-3.6,2.4c0,0,0,0,0,0l-38,37.9c-4.3,4.3-4.3,11.4,0,15.7c2.2,2.2,5,3.3,7.9,3.3
			c2.8,0,5.7-1.1,7.9-3.3l19-19l0,128.4l-128.4,0l19-19c4.3-4.3,4.3-11.4,0-15.7c-4.3-4.3-11.4-4.3-15.7,0L4.3,171.1
			c-2.2,2.2-3.3,5-3.3,7.9s1.1,5.7,3.3,7.9L43,225.6c2.2,2.2,5,3.3,7.9,3.3c2.8,0,5.7-1.1,7.9-3.3c4.3-4.3,4.3-11.4,0-15.7
			l-19.8-19.8l128.4,0l0,128.4l-19-19c-4.3-4.3-11.4-4.3-15.7,0c-4.3,4.3-4.3,11.4,0,15.7l38,37.9c2.2,2.2,5,3.3,7.9,3.3
			c2.8,0,5.7-1.1,7.9-3.3l38.8-38.8c4.3-4.3,4.3-11.4,0-15.7c-4.3-4.3-11.4-4.3-15.7,0l-19.8,19.8l0-128.5l128.5,0l-19.8,19.8
			c-4.3,4.3-4.3,11.4,0,15.7c2.2,2.2,5,3.3,7.9,3.3c2.8,0,5.7-1.1,7.9-3.3l38.8-38.8c0,0,0-0.1,0.1-0.1c1-1,1.8-2.2,2.3-3.5
			c0.6-1.4,0.9-2.8,0.9-4.3C356,177.5,355.7,176.1,355.1,174.7z"/>
	</g>
</g>
</svg>
