<?xml version="1.0" encoding="utf-8"?>
<!-- Generator: Adobe Illustrator 21.1.0, SVG Export Plug-In . SVG Version: 6.00 Build 0)  -->
<svg version="1.1" id="Layer_1" xmlns="http://www.w3.org/2000/svg" xmlns:xlink="http://www.w3.org/1999/xlink" x="0px" y="0px"
	 viewBox="0 0 500 500" style="enable-background:new 0 0 500 500;" xml:space="preserve">
<g>
	<path d="M461.9,38.5c-41.9-42-110.1-42-152.1,0L31.1,317.2c-2.2,2.2-3.5,5-3.9,8l-20.7,153c-0.6,4.4,0.9,8.7,3.9,11.7
		c2.6,2.6,6.2,4.2,9.9,4.2c0.6,0,1.2,0,1.9-0.1l92.2-12.5c7.7-1,13.1-8.1,12-15.8c-1-7.7-8.1-13.1-15.8-12l-73.9,10L51.1,357
		l112.3,112.3c2.6,2.6,6.2,4.2,9.9,4.2s7.3-1.5,9.9-4.2l278.8-278.7c20.3-20.3,31.6-47.3,31.6-76.1S482.3,58.8,461.9,38.5z
		 M315.3,72.8l46.8,46.8L107.7,374l-46.8-46.8L315.3,72.8z M173.4,439.6l-45.8-45.8L382,139.4l45.8,45.8L173.4,439.6z M447.3,165.2
		l-112-112C349.5,41.4,367.3,35,386,35c21.3,0,41.2,8.3,56.3,23.3c15.1,14.9,23.3,35,23.3,56.3C465.5,133.3,459,150.9,447.3,165.2z"
		/>
</g>
</svg>
