<?xml version="1.0" encoding="UTF-8"?>
<svg viewBox="0 0 20 20" version="1.1" xmlns="http://www.w3.org/2000/svg" xmlns:xlink="http://www.w3.org/1999/xlink">
  <g>
      <path d="M10,20 C4.4771525,20 0,15.5228475 0,10 C0,4.4771525 4.4771525,0 10,0 C15.5228475,0 20,4.4771525 20,10 C20,15.5228475 15.5228475,20 10,20 Z M8.718802,5.72379368 L9.26788686,12.0798669 C9.30116473,12.4625624 9.60066556,12.7620632 9.98336106,12.7953411 C10.4159734,12.828619 10.7986689,12.5124792 10.8319468,12.0798669 L11.4143095,5.72379368 C11.4143095,5.65723794 11.4143095,5.57404326 11.4143095,5.49084859 C11.3477537,4.74209651 10.6988353,4.20965058 9.95008319,4.25956739 C9.21797005,4.32612313 8.66888519,4.9750416 8.718802,5.72379368 Z M10.0665557,15.7570715 C10.6822476,15.7570715 11.1813644,15.2579547 11.1813644,14.6422629 C11.1813644,14.0265711 10.6822476,13.5274542 10.0665557,13.5274542 C9.45086392,13.5274542 8.95174709,14.0265711 8.95174709,14.6422629 C8.95174709,15.2579547 9.45086392,15.7570715 10.0665557,15.7570715 Z"></path>
  </g>
</svg>
