<?xml version="1.0" encoding="utf-8"?>
<!-- Generator: Adobe Illustrator 21.1.0, SVG Export Plug-In . SVG Version: 6.00 Build 0)  -->
<svg version="1.1" id="Layer_1" xmlns="http://www.w3.org/2000/svg" xmlns:xlink="http://www.w3.org/1999/xlink" x="0px" y="0px"
	 viewBox="0 0 500 500" style="enable-background:new 0 0 500 500;" xml:space="preserve">
<g>
	<path d="M250,19C122.6,19,19,122.6,19,250s103.6,231,231,231s231-103.6,231-231S377.3,19,250,19z M250,456
		c-56.6,0-107.9-22.9-145.2-60c-14.9-14.8-27.5-31.9-37.4-50.6c-15-28.5-23.5-61-23.5-95.4c0-113.6,92.4-206,206-206
		c53.9,0,103,20.8,139.7,54.8c19.1,17.6,34.8,38.8,46.1,62.4c12.9,26.9,20.1,57,20.1,88.8C456,363.6,363.5,456,250,456z"/>
	<circle cx="174.5" cy="198.5" r="25"/>
	<circle cx="329" cy="198.5" r="25"/>
	<path d="M249.5,377.9c48.3,0,94.6-24.7,121.1-65.7l-21-13.6c-24.3,37.7-68.9,58.7-113.4,53.5c-34.7-4-66.9-24-85.9-53.5l-21,13.6
		c23.1,35.7,62,59.9,104.1,64.8C238.7,377.6,244.1,377.9,249.5,377.9z"/>
</g>
</svg>
