<?xml version="1.0" encoding="utf-8"?>
<!-- Generator: Adobe Illustrator 21.1.0, SVG Export Plug-In . SVG Version: 6.00 Build 0)  -->
<svg version="1.1" id="Layer_1" xmlns="http://www.w3.org/2000/svg" xmlns:xlink="http://www.w3.org/1999/xlink" x="0px" y="0px"
	 viewBox="0 0 342 418" style="enable-background:new 0 0 342 418;" xml:space="preserve">
<g>
	<g>
		<path d="M131.6,50.9l-66.4,51.8c-4.8,3.7-5.9,10.5-2.7,15.5l4.5,12.7l-5.3,4.1l-11.9-7.9c-7.5-4.9-13.1-2.2-15.8-0.1l-22.3,17.4
			c-2.5,1.9-4,4.7-4.4,7.8l0,0c-0.4,3.1,0.5,6.2,2.4,8.6L52.9,216c1.9,2.5,4.7,4,7.8,4.4c3.1,0.4,6.2-0.5,8.6-2.4l22.4-17.4
			c2.6-2,6.6-6.7,3.6-15.3l-4.8-13.4l5.3-4.1l11.2,7.5c1.9,2,4.3,3.2,7.1,3.6c3.1,0.4,6.2-0.5,8.6-2.4l26.5-20.7c2.5-2,3-5.7,1-8.2
			c-2-2.5-5.7-3-8.2-1l-26.5,20.7c-0.4-0.5-0.9-0.9-1.4-1.3l-15.4-10.2c-2.1-1.4-4.8-1.3-6.8,0.3L80,165.3c-2,1.5-2.7,4.2-1.9,6.6
			l6.2,17.4c0.5,1.5,0.4,2.1,0.2,2.2l-22.4,17.4L19,153.6L41.5,136c0,0,0.6,0,1.9,0.8l15.4,10.2c2.1,1.4,4.8,1.3,6.8-0.3l11.9-9.3
			c2-1.6,2.8-4.2,1.9-6.6l-6.2-17.4c-0.2-0.6-0.5-1.1-0.9-1.6l66.8-52.1c0.3-0.3,33.9-31.5,65.5-27.6c12.7,1.6,21.7,2.7,33.8,8.6
			c-50.1,8.8-72.7,35-73.7,36.2c-1.3,1.5-1.7,3.5-1.1,5.4l10.7,36.1c0.6,1.9,0.4,2.9,0.4,3l-16.3,12.6c-1.2,0.9-2.3,2.3-2.2,3.9
			c-0.2,1.5,0.2,3.1,1.2,4.3l162.8,208.8c1,1.1,3.3,4.6,3,7.7c-0.4,3.2-3.5,5.9-5,7l-6.8,5.3c-1.1,1-4.6,3.3-7.7,3
			c-3.1-0.4-6-3.7-7-5L146.9,177c-2-2.5-5.7-3-8.2-1c-2.5,2-3,5.7-1,8.2L287.3,376c0.6,0.9,6.2,8.6,15,9.7
			c8.9,1.1,16.1-5.1,16.6-5.6l6.1-4.8c0.9-0.6,8.7-5.9,9.8-15.1c1.1-8.9-5.1-16.1-5.6-16.6l-159-203.9l11.7-9
			c4.3-3.3,5.6-9,3.6-15.5l-9.7-32.8c7.2-6.9,32.9-28.2,80.8-32.1c2.5-0.2,4.6-2,5.2-4.4c0.6-2.4-0.4-4.9-2.4-6.3
			c-22.9-15.2-35.6-16.8-53.3-19C169.1,16,132.7,49.8,131.6,50.9z"/>
	</g>
</g>
</svg>
