<?xml version="1.0" encoding="utf-8"?>
<!-- Generator: Adobe Illustrator 21.1.0, SVG Export Plug-In . SVG Version: 6.00 Build 0)  -->
<svg version="1.1" id="Layer_1" xmlns="http://www.w3.org/2000/svg" xmlns:xlink="http://www.w3.org/1999/xlink" x="0px" y="0px"
	 viewBox="0 0 500 500" style="enable-background:new 0 0 500 500;" xml:space="preserve">
<g>
	<g>
		<path d="M412.3,262.1H238.7V88.4c0-7-5.6-12.6-12.6-12.6c-109.6,0-198.9,89.2-198.9,198.9s89.2,198.9,198.9,198.9
			S425,384.3,425,274.7C425,267.8,419.3,262.1,412.3,262.1z M226.1,448.3c-95.7,0-173.6-77.9-173.6-173.6
			c0-91.5,71.1-166.7,161-173.2v173.2c0,7,5.6,12.6,12.6,12.6h173.2C392.8,377.2,317.6,448.3,226.1,448.3z"/>
		<path d="M472.7,226.2c-0.2-48.3-17.9-94.8-49.8-131C385.1,52.5,330.9,28,273.8,28c-7,0-12.6,5.6-12.6,12.6v186.3
			c0,7,5.6,12.6,12.6,12.6h186.3l0,0c7,0,12.6-5.6,12.6-12.6C472.7,226.7,472.7,226.5,472.7,226.2z M286.4,214.4V53.8
			c45.1,3.3,87.4,24.1,117.5,58.3c25.3,28.5,40.2,64.5,43,102.3L286.4,214.4L286.4,214.4z"/>
	</g>
</g>
</svg>
