<?xml version="1.0" encoding="utf-8"?>
<!-- Generator: Adobe Illustrator 21.1.0, SVG Export Plug-In . SVG Version: 6.00 Build 0)  -->
<svg version="1.1" id="Layer_1" xmlns="http://www.w3.org/2000/svg" xmlns:xlink="http://www.w3.org/1999/xlink" x="0px" y="0px"
	 viewBox="0 0 500 500" style="enable-background:new 0 0 500 500;" xml:space="preserve">
<g>
	<path d="M462.8,394.5l-3.4-4l-88-74.6l-5.6,7.2l-44.3-38.4l-1.7,1.5c20.8-26.8,33.3-60.6,33.3-97.3C353.1,101.1,282,30,194.3,30
		s-159,71.1-159,158.9s71.1,158.9,158.9,158.9c43.5,0,83-17.5,111.7-45.9l44.5,39.3l-4.8,5.9l89.4,75c0,0,15.5,8.6,25.1-3.8
		S462.8,394.5,462.8,394.5z M194.8,323c-12.1,0-23.8-1.6-35-4.6l2.8-9.8l0.5-29.2l-1.4-3.8c0,0-14.2-14.4-23-48.7l-5.9-3.8
		c0,0-1.2-1.7-1.4-5.9c-0.3-4.2,0-26.4,0-26.4s1-6.5,5-7.5l1.7-1.4v-49.7c0,0-0.7-40.2,57.3-40c58-0.1,57.3,40,57.3,40v49.7l1.7,1.4
		c4,1,5,7.5,5,7.5s0.2,22.1,0,26.4s-1.4,5.9-1.4,5.9l-5.9,3.8c-8.8,34.3-23,48.7-23,48.7l-1.4,3.8l0.5,29.2l2.8,9.5
		C219.2,321.3,207.2,323,194.8,323z M251.6,310.4l-2.4-3.6v-21.3c16.3-20.9,22.1-46.5,22.1-46.5c8.4-4.6,10.5-18,10.5-18
		s0-21.9,0-30.7c0-8.8-6.5-18.4-6.5-18.4v-39.1c-6-66.3-75.5-63.1-80.1-62.8c-4.6-0.3-74-3.5-80.1,62.8v39.1c0,0-6.5,9.6-6.5,18.4
		s0,30.7,0,30.7s2.1,13.4,10.5,18c0,0,5.8,25.7,22.1,46.5v21.3l-2.7,3.9c-46-21.3-78-67.8-78-121.8c0-74,60-134.1,134.1-134.1
		s134.1,60,134.1,134.1C328.9,242.7,297.2,289,251.6,310.4z"/>
	<path d="M324.5,356.9l-35-19.5l-22.5,12l42.2,23c0,0,22.5,11.7,22.5,33.4c0,21.7,0,23.8,0,23.8s-25.1,22.1-129.4,22.1h-1.2h-5.9
		H194c-104.3,0-129.4-22.1-129.4-22.1s0-2.1,0-23.8c0-21.7,22.4-33.4,22.4-33.4l42.2-23l-22.5-12l-35,19.4
		c-27.1,17.1-29.5,49.4-29.5,49.4l1,25.1c6.8,41.7,133.8,42,154.9,41.8c21.2,0.3,148.1,0,154.9-41.8l1-25.1
		C353.9,406.1,351.6,373.8,324.5,356.9z"/>
</g>
</svg>
