<?xml version="1.0" encoding="utf-8"?>
<!-- Generator: Adobe Illustrator 21.1.0, SVG Export Plug-In . SVG Version: 6.00 Build 0)  -->
<svg version="1.1" id="Layer_1" xmlns="http://www.w3.org/2000/svg" xmlns:xlink="http://www.w3.org/1999/xlink" x="0px" y="0px"
	 viewBox="0 0 500 418" style="enable-background:new 0 0 500 418;" xml:space="preserve">
<g>
	<path id="Github__x28_alt_x29_" d="M363.6,23c6.3,14.3,10.4,38.1,4.3,55.5c24.9,21.3,33.5,73,21.5,115.3
		c35.5,2.7,77.9-1.3,105.2,9.6c-25.5-3.3-60.4-9.7-93.4-7.5c-6.2,0.4-15.5-0.2-15,8.5c38.1,3,76,6.3,107.4,16
		c-31.1-5.1-68.8-12.8-107.4-13.9c-15.9,31.5-48,46.9-92.3,50.2c4.8,10.4,13.9,14.3,16.1,31c3.3,24.9-5.2,61.4,3.2,78
		c4,8,10.6,8.2,15,15c-10.8,12.8-37.7-1.4-40.8-15c-5.2-23.2,8-59.1-6.4-74.8c1,25.3-6,60.7,1.1,83.3c2.8,8.9,10.8,12.3,8.6,20.3
		c-50.4,5.1-29.3-65.3-37.6-106.8c-7.6,0.5-4.3,11.4-4.3,16c-0.2,40.6,8.3,96.2-35.4,90.8c-1.3-8.5,5.9-11.4,8.6-19.2
		c8-22.8-1.5-56.8,2.2-84.4c-16.7,12.6,1.8,56.5-8.6,79c-6,13-25.2,18.6-39.7,12.8c1.9-9.7,11.9-8.1,16.1-17.1
		c5.9-12.5,0-30.6,2.2-49.1c-30.9,6.2-54.8-0.9-66.6-20.3c-5.2-8.7-6.5-19-12.9-26.7c-6.3-7.7-16.4-8.8-19.3-19.2
		c38.3-9.2,39.7,39.4,74.1,40.6c10.5,0.4,16-3,25.8-5.3c2.7-12.2,8.6-21.4,17.2-27.8c-42.7-5.8-78-19.2-94.5-51.2
		c-38.9,1.9-74.4,7.1-107.4,14.9c29.9-10.9,66.8-14.8,106.3-16c-2.3-14-22.7-10.1-35.4-9.6c-23.6,1-53.2,4-71.9,7.5
		c27.1-9.7,65.2-8.5,102-8.5c-11.2-35.3-7.3-91.3,17.2-112.1c-6.9-17.5-4.8-46.2,4.3-59.8c27.4,1.2,44,13.2,61.2,24.6
		c21.3-6.1,43.8-9.1,73-7.5c12.3,0.7,25.1,6.2,34.3,5.3c9.1-0.9,19.1-11,27.9-14.9C340.8,25.4,350.5,23.5,363.6,23z"/>
</g>
</svg>
