<?xml version="1.0" encoding="utf-8"?>
<!-- Generator: Adobe Illustrator 21.1.0, SVG Export Plug-In . SVG Version: 6.00 Build 0)  -->
<svg version="1.1" id="Layer_1" xmlns="http://www.w3.org/2000/svg" xmlns:xlink="http://www.w3.org/1999/xlink" x="0px" y="0px"
	 viewBox="0 0 460 387" style="enable-background:new 0 0 460 387;" xml:space="preserve">
<g id="Layer_1_1_">
</g>
<g>
	<g>
		<g>
			<path d="M409.6,351.4L73.4,15.2c-2.9-2.9-7.7-2.9-10.7,0L52.1,25.9c-2.9,2.9-2.9,7.7,0,10.7l62.4,62.4
				c-29.8,23.6-52.3,55.7-64.2,92.8c-0.5,1.5-0.5,3.1,0,4.6c25.7,79.8,98.2,133.4,180.6,133.4c32.2,0,63.2-8.2,90.9-23.5l66.6,66.6
				c2.9,2.9,7.7,2.9,10.7,0l10.7-10.7C412.6,359.2,412.6,354.4,409.6,351.4z M230.9,299.6c-58.2,0-105.6-47.4-105.6-105.6
				c0-22.9,7.5-45,21.1-63.1l32.8,32.8c-5.4,9.1-8.6,19.4-8.6,30.4c0,33.3,27.1,60.3,60.3,60.3c10.9,0,21.2-3.2,30.4-8.6l32.8,32.8
				C275.9,292,253.8,299.6,230.9,299.6z"/>
			<path d="M176.9,97.3c2.3,2.3,5.7,2.8,8.6,1.5c14.4-6.9,29.7-10.4,45.4-10.4c58.2,0,105.6,47.4,105.6,105.6
				c0,15.7-3.5,31-10.4,45.4c-1.4,2.9-0.8,6.3,1.5,8.6l26.1,26.1c1.4,1.4,3.3,2.2,5.3,2.2c0,0,0,0,0,0c2,0,3.9-0.8,5.3-2.2
				c21.4-21.6,37.7-48.6,47.1-77.8c0.5-1.5,0.5-3.1,0-4.6c-25.7-79.8-98.2-133.4-180.6-133.4c-22.6,0-44.8,4-66,12
				c-2.4,0.9-4.2,3-4.7,5.5c-0.5,2.5,0.2,5.1,2,6.9L176.9,97.3z"/>
		</g>
	</g>
</g>
</svg>
