<?xml version="1.0" encoding="UTF-8"?>
<svg width="82px" height="74px" viewBox="0 0 82 74" version="1.1" xmlns="http://www.w3.org/2000/svg" xmlns:xlink="http://www.w3.org/1999/xlink">
<path d="M81.1,29.2 L42.3,0.8 C41.6,0.3 40.5,0.3 39.8,0.8 L1,29.2 C0.1,29.9 -0.2,31.2 0.5,32.2 C1.2,33.1 2.5,33.4 3.5,32.7 L8.9,28.7 L8.9,71.4 L9.1,71 L9.1,71.2 C9.1,72.4 10.1,73.3 11.2,73.3 L32.5,73.3 C33.6,73.3 34.5,72.4 34.6,71.3 C34.6,71.3 34.6,71.2 34.6,71.1 L34.6,50.6 C34.6,47.1 37.5,44.2 41,44.2 C44.5,44.2 47.4,47.1 47.4,50.6 L47.4,71.2 C47.4,71.3 47.4,71.3 47.4,71.4 C47.5,72.5 48.4,73.4 49.5,73.4 L70.8,73.4 C72,73.4 72.9,72.4 72.9,71.3 L72.9,57.7 L72.9,57.6 L72.9,28.6 L78.5,32.7 C78.9,33 79.3,33.1 79.8,33.1 C80.5,33.1 81.1,32.8 81.5,32.2 C82.3,31.2 82,29.9 81.1,29.2 Z" id="Shape"></path>
</svg>
