<?xml version="1.0" encoding="utf-8"?>
<!-- Generator: Adobe Illustrator 21.1.0, SVG Export Plug-In . SVG Version: 6.00 Build 0)  -->
<svg version="1.1" id="Layer_1" xmlns="http://www.w3.org/2000/svg" xmlns:xlink="http://www.w3.org/1999/xlink" x="0px" y="0px"
	 viewBox="0 0 85.3 82" style="enable-background:new 0 0 85.3 82;" xml:space="preserve">
<g>
	<g>
		<g>
			<path d="M82.8,33.7L43.9,5.2c-0.8-0.5-1.8-0.5-2.5,0L2.4,33.7c-1,0.7-1.2,2-0.5,3c0.7,1,2,1.2,3,0.5L42.6,9.6l37.7,27.6
				c0.4,0.3,0.8,0.4,1.3,0.4c0.7,0,1.3-0.3,1.7-0.9C84,35.8,83.7,34.4,82.8,33.7z"/>
		</g>
	</g>
	<g>
		<g>
			<path d="M72.5,37.7c-1.2,0-2.1,1-2.1,2.1v34H53.3V55.2c0-5.9-4.8-10.7-10.7-10.7s-10.7,4.8-10.7,10.7v18.5H14.9v-34
				c0-1.2-1-2.1-2.1-2.1s-2.1,1-2.1,2.1v36.1c0,1.2,1,2.1,2.1,2.1h21.3c1.1,0,2-0.9,2.1-2c0,0,0-0.1,0-0.2V55.2
				c0-3.5,2.9-6.4,6.4-6.4s6.4,2.9,6.4,6.4v20.7c0,0.1,0,0.1,0,0.2c0.1,1.1,1,2,2.1,2h21.3c1.2,0,2.1-1,2.1-2.1V39.8
				C74.6,38.6,73.7,37.7,72.5,37.7z"/>
		</g>
	</g>
</g>
</svg>
