<?xml version="1.0" encoding="utf-8"?>
<!-- Generator: Adobe Illustrator 21.1.0, SVG Export Plug-In . SVG Version: 6.00 Build 0)  -->
<svg version="1.1" id="Layer_1" xmlns="http://www.w3.org/2000/svg" xmlns:xlink="http://www.w3.org/1999/xlink" x="0px" y="0px"
	 viewBox="0 0 500 500" style="enable-background:new 0 0 500 500;" xml:space="preserve">
<g>
	<g>
		<path d="M491.2,203.4L257.7,32.5c-4.5-3.3-10.6-3.3-15.1,0L9.2,203.4c-5.7,4.2-6.9,12.2-2.8,17.9c4.2,5.7,12.2,6.9,17.9,2.8
			L250.2,58.7L476,224c2.3,1.7,4.9,2.5,7.5,2.5c3.9,0,7.8-1.8,10.3-5.2C498.1,215.6,496.9,207.6,491.2,203.4z"/>
	</g>
</g>
<g>
	<g>
		<path d="M429.3,226.9c-7.1,0-12.8,5.7-12.8,12.8v203.7H314.1V332.2c0-35.3-28.7-64-64-64s-64,28.7-64,64v111.2H83.8V239.7
			c0-7.1-5.7-12.8-12.8-12.8c-7.1,0-12.8,5.7-12.8,12.8v216.5c0,7.1,5.7,12.8,12.8,12.8h128c6.7,0,12.2-5.2,12.7-11.8
			c0-0.3,0.1-0.6,0.1-1v-124c0-21.2,17.2-38.4,38.4-38.4c21.2,0,38.4,17.2,38.4,38.4v124c0,0.4,0,0.7,0.1,1
			c0.5,6.6,6,11.8,12.7,11.8h128c7.1,0,12.8-5.7,12.8-12.8V239.7C442.1,232.7,436.4,226.9,429.3,226.9z"/>
	</g>
</g>
</svg>
