<?xml version="1.0" encoding="utf-8"?>
<!-- Generator: Adobe Illustrator 21.1.0, SVG Export Plug-In . SVG Version: 6.00 Build 0)  -->
<svg version="1.1" id="Layer_1" xmlns="http://www.w3.org/2000/svg" xmlns:xlink="http://www.w3.org/1999/xlink" x="0px" y="0px"
	 viewBox="0 0 228 125" style="enable-background:new 0 0 228 125;" xml:space="preserve">
<g>
	<g>
		<g>
			<path d="M210,13h-92.3h-6.4H18.9c-4.1,0-7.4,3.3-7.4,7.4v89.1c0,4.1,3.3,7.4,7.4,7.4h191c4.1,0,7.4-3.3,7.4-7.4V20.4
				C217.4,16.3,214.1,13,210,13z M211,109.6c0,0.6-0.5,1.1-1.1,1.1h-191c-0.6,0-1.1-0.5-1.1-1.1V20.4c0-0.6,0.5-1.1,1.1-1.1h191
				c0.6,0,1.1,0.5,1.1,1.1V109.6z"/>
			<rect x="48.4" y="96.1" width="131.6" height="6.4"/>
			<rect x="188.5" y="96.1" width="12.7" height="6.4"/>
			<rect x="27.2" y="96.1" width="12.7" height="6.4"/>
			<rect x="33.8" y="27.9" width="12.7" height="6.4"/>
			<rect x="55" y="27.9" width="12.7" height="6.4"/>
			<rect x="76.3" y="27.9" width="12.7" height="6.4"/>
			<rect x="97.5" y="27.9" width="12.7" height="6.4"/>
			<rect x="118.7" y="27.9" width="12.7" height="6.4"/>
			<rect x="139.9" y="27.9" width="12.7" height="6.4"/>
			<rect x="161.1" y="27.9" width="12.7" height="6.4"/>
			<rect x="182.4" y="27.9" width="12.7" height="6.4"/>
			<rect x="33.8" y="44.8" width="12.7" height="6.4"/>
			<rect x="55" y="44.8" width="12.7" height="6.4"/>
			<rect x="76.3" y="44.8" width="12.7" height="6.4"/>
			<rect x="97.5" y="44.8" width="12.7" height="6.4"/>
			<rect x="118.7" y="44.8" width="12.7" height="6.4"/>
			<rect x="139.9" y="44.8" width="12.7" height="6.4"/>
			<rect x="161.1" y="44.8" width="12.7" height="6.4"/>
			<rect x="182.4" y="44.8" width="12.7" height="6.4"/>
			<rect x="33.8" y="61.8" width="12.7" height="6.4"/>
			<rect x="55" y="61.8" width="12.7" height="6.4"/>
			<rect x="76.3" y="61.8" width="12.7" height="6.4"/>
			<rect x="97.5" y="61.8" width="12.7" height="6.4"/>
			<rect x="118.7" y="61.8" width="12.7" height="6.4"/>
			<rect x="139.9" y="61.8" width="12.7" height="6.4"/>
			<rect x="33.8" y="78.8" width="12.7" height="6.4"/>
			<rect x="55" y="78.8" width="12.7" height="6.4"/>
			<rect x="76.3" y="78.8" width="12.7" height="6.4"/>
			<rect x="97.5" y="78.8" width="12.7" height="6.4"/>
			<rect x="118.7" y="78.8" width="12.7" height="6.4"/>
			<rect x="139.9" y="78.8" width="12.7" height="6.4"/>
			<path d="M196.2,57.6h-19.1v10.6h-17v19.1h36.1V57.6z M189.8,80.9h-23.3v-6.4h17V63.9h6.4V80.9z"/>
		</g>
	</g>
</g>
</svg>
