<?xml version="1.0" encoding="utf-8"?>
<!-- Generator: Adobe Illustrator 21.1.0, SVG Export Plug-In . SVG Version: 6.00 Build 0)  -->
<svg version="1.1" id="Layer_1" xmlns="http://www.w3.org/2000/svg" xmlns:xlink="http://www.w3.org/1999/xlink" x="0px" y="0px"
	 viewBox="0 0 268 451" style="enable-background:new 0 0 268 451;" xml:space="preserve">
<path d="M237.1,416.2c13-10.4,10.8-23.4,7.6-31.1c-0.6-1.4-1.2-2.6-1.7-3.7c-1.1-2-3.5-4.8-3.5-4.8l-8.1-8.1L86.1,224.2l-0.1-0.1
	l0.1-0.1L239.3,71.8c0,0,17.7-23.7-2.3-39.7s-36,1-36,1S34,200.4,29,206.1c-2,2-6.2,6.9-7,13c0,0,0,0,0,0.1c-0.3,1.5-0.4,3.2-0.4,5
	c0,1.8,0.1,3.5,0.4,5c0,0,0,0,0,0.1c0.8,6.1,5,11,7,13c4.9,5.7,172,173,172,173S217.1,432.2,237.1,416.2z"/>
</svg>
