<?xml version="1.0" encoding="utf-8"?>
<!-- Generator: Adobe Illustrator 21.1.0, SVG Export Plug-In . SVG Version: 6.00 Build 0)  -->
<svg version="1.1" id="Layer_1" xmlns="http://www.w3.org/2000/svg" xmlns:xlink="http://www.w3.org/1999/xlink" x="0px" y="0px"
	 viewBox="0 0 92.1 128.1" style="enable-background:new 0 0 92.1 128.1;" xml:space="preserve">
<g>
	<g>
		<path class="st0" d="M20.5,53.6V36.9c0-14,11.3-25.4,25.4-25.4s25.4,11.3,25.4,25.4v16.7h10.5V36.9C81.8,17.2,65.7,1,45.9,1
			C26.2,1,10,17.1,10,36.9v16.7H20.5L20.5,53.6z"/>
		<rect x="0.6" y="52.3" class="st1" width="90.6" height="74.7"/>
		<path class="st2" d="M53.5,95.2c0-4.2-3.5-7.7-7.7-7.7s-7.7,3.5-7.7,7.7c0,3.4,2.1,6.1,5,7.2v10.7c0,1.5,1.2,2.6,2.6,2.6
			c1.5,0,2.6-1.2,2.6-2.6v-10.8C51.4,101.3,53.5,98.5,53.5,95.2z"/>
	</g>
</g>
</svg>
