<?xml version="1.0" encoding="utf-8"?>
<!-- Generator: Adobe Illustrator 21.1.0, SVG Export Plug-In . SVG Version: 6.00 Build 0)  -->
<svg version="1.1" id="Layer_1" xmlns="http://www.w3.org/2000/svg" xmlns:xlink="http://www.w3.org/1999/xlink" x="0px" y="0px"
	 viewBox="0 0 242 230" style="enable-background:new 0 0 242 230;" xml:space="preserve">
<g>
	<polygon points="55.5,56.5 91.5,135.8 96,135.8 125.8,57.2 127.2,56.5 127.2,121.2 114.8,133.2 114.8,135.8 169.2,135.8 169.2,134 
		156.5,120.5 156.5,40.2 169.2,28.2 169.2,25.8 131.2,25.8 103.5,93.8 72.8,26 32.5,26 47.2,45.2 47.2,113.2 31.2,133 31.2,135.5 
		70.8,135.5 70.8,132.5 55.5,112.8 	"/>
	<path d="M182,88.8h25.8c1.8,0,3.2-1.5,3.2-3.2s-1.5-3.2-3.2-3.2H182c-1.8,0-3.2,1.5-3.2,3.2S180.2,88.8,182,88.8z"/>
	<path d="M207.8,105.8H182c-1.8,0-3.2,1.5-3.2,3.2s1.5,3.2,3.2,3.2h25.8c1.8,0,3.2-1.5,3.2-3.2S209.5,105.8,207.8,105.8z"/>
	<path d="M207.8,129.5H182c-1.8,0-3.2,1.5-3.2,3.2s1.5,3.2,3.2,3.2h25.8c1.8,0,3.2-1.5,3.2-3.2S209.5,129.5,207.8,129.5z"/>
	<path d="M207.8,152.8H74.6c-1.8,0-3.2,1.5-3.2,3.2s1.5,3.2,3.2,3.2h133.2c1.8,0,3.2-1.5,3.2-3.2S209.5,152.8,207.8,152.8z"/>
	<path d="M207.8,176.2H74.6c-1.8,0-3.2,1.5-3.2,3.2s1.5,3.2,3.2,3.2h133.2c1.8,0,3.2-1.5,3.2-3.2S209.5,176.2,207.8,176.2z"/>
	<path d="M207.8,199.2H74.6c-1.8,0-3.2,1.5-3.2,3.2s1.5,3.2,3.2,3.2h133.2c1.8,0,3.2-1.5,3.2-3.2S209.5,199.2,207.8,199.2z"/>
</g>
</svg>
