<?xml version="1.0" encoding="utf-8"?>
<!-- Generator: Adobe Illustrator 21.1.0, SVG Export Plug-In . SVG Version: 6.00 Build 0)  -->
<svg version="1.1" id="Layer_1" xmlns="http://www.w3.org/2000/svg" xmlns:xlink="http://www.w3.org/1999/xlink" x="0px" y="0px"
	 viewBox="0 0 171.7 184.1" style="enable-background:new 0 0 171.7 184.1;" xml:space="preserve">
<!--<style type="text/css">
	.st0{fill:#FABE5C;}
	.st1{fill:#5C6F74;}
	.st2{fill:#203F49;}
	.st3{fill:#FBDF65;}
</style>-->
<g>
	<polygon class="st0" points="64.4,18.6 21.6,18.6 21.6,56.9 85.7,39.9 	"/>
	<polygon class="st1" points="85.5,141.3 21.6,141.3 21.6,164 30.1,164 30.1,149.8 51.5,149.8 51.5,164 60,164 60,149.8 85.5,149.8
			"/>
	<g>
		<polygon class="st2" points="85.5,141.3 85.5,149.8 111.4,149.8 111.4,164 120,164 120,149.8 141.4,149.8 141.4,164 149.9,164
			149.9,141.3 		"/>
		<rect x="81.5" y="121.4" class="st2" width="8.5" height="42.6"/>
	</g>
	<path class="st0" d="M149.9,56.9c0-9.4-7.7-17-17-17H85.7l-17,42.9l17,42.9h64.2V56.9z"/>
	<path class="st3" d="M38.6,39.9c-9.4,0-17,7.7-17,17v68.7h64.2V39.9H38.6z"/>
</g>
</svg>
