<?xml version="1.0" encoding="utf-8"?>
<!-- Generator: Adobe Illustrator 21.1.0, SVG Export Plug-In . SVG Version: 6.00 Build 0)  -->
<svg version="1.1" id="Layer_1" xmlns="http://www.w3.org/2000/svg" xmlns:xlink="http://www.w3.org/1999/xlink" x="0px" y="0px"
	 viewBox="0 0 171.7 184.1" style="enable-background:new 0 0 171.7 184.1;" xml:space="preserve">
<!--<style type="text/css">
	.st0{fill:#CCD1D9;}
	.st1{fill:#E6E9ED;}
	.st2{fill:#656D78;}
	.st3{fill:#434A54;}
	.st4{fill:#FC6E51;}
	.st5{fill:#AC92EB;}
	.st6{fill:#48CFAD;}
	.st7{fill:#5D9CEC;}
	.st8{fill:#FFCE54;}
	.st9{fill:#ED5564;}
</style>-->
<g>
	<polygon class="st0" points="107.3,149 64.6,149 69.9,122.4 102,122.4 	"/>
	<g>
		<path class="st1" d="M149.9,125c0,1.5-1.2,2.7-2.7,2.7H24.6c-1.5,0-2.7-1.2-2.7-2.7V39.7c0-1.5,1.2-2.7,2.7-2.7h122.6
			c1.5,0,2.7,1.2,2.7,2.7V125z"/>
		<path class="st1" d="M107.3,149H64.6c-1.5,0-2.7-1.2-2.7-2.7c0-1.5,1.2-2.7,2.7-2.7h42.7c1.5,0,2.7,1.2,2.7,2.7
			C110,147.8,108.8,149,107.3,149z"/>
	</g>
	<path class="st2" d="M147.3,37H24.6c-1.5,0-2.7,1.2-2.7,2.7v72h128v-72C149.9,38.2,148.7,37,147.3,37z"/>
	<path class="st3" d="M88.6,119.7c0,1.5-1.2,2.7-2.7,2.7s-2.7-1.2-2.7-2.7c0-1.5,1.2-2.7,2.7-2.7C87.4,117,88.6,118.2,88.6,119.7z"
		/>
	<path class="st4" d="M115.3,47.7h-80c-1.5,0-2.7,1.2-2.7,2.7c0,1.5,1.2,2.7,2.7,2.7h80c1.5,0,2.7-1.2,2.7-2.7
		C118,48.9,116.8,47.7,115.3,47.7z"/>
	<path class="st5" d="M35.3,63.7H78c1.5,0,2.7-1.2,2.7-2.7c0-1.5-1.2-2.7-2.7-2.7H35.3c-1.5,0-2.7,1.2-2.7,2.7
		C32.6,62.5,33.8,63.7,35.3,63.7z"/>
	<path class="st6" d="M35.3,74.4H94c1.5,0,2.7-1.2,2.7-2.7S95.4,69,94,69H35.3c-1.5,0-2.7,1.2-2.7,2.7
		C32.6,73.2,33.8,74.4,35.3,74.4z"/>
	<path class="st7" d="M35.3,85l37.3,0c1.5,0,2.7-1.2,2.7-2.7c0-1.5-1.2-2.7-2.7-2.7H35.3c-1.5,0-2.7,1.2-2.7,2.7
		C32.6,83.8,33.8,85,35.3,85z"/>
	<path class="st8" d="M104.6,90.4H35.3c-1.5,0-2.7,1.2-2.7,2.7c0,1.5,1.2,2.7,2.7,2.7h69.3c1.5,0,2.7-1.2,2.7-2.7
		C107.3,91.5,106.1,90.4,104.6,90.4z"/>
	<path class="st9" d="M56.6,101H35.3c-1.5,0-2.7,1.2-2.7,2.7c0,1.5,1.2,2.7,2.7,2.7h21.3c1.5,0,2.7-1.2,2.7-2.7
		C59.3,102.2,58.1,101,56.6,101z"/>
</g>
</svg>
