<?xml version="1.0" encoding="utf-8"?>
<!-- Generator: Adobe Illustrator 21.1.0, SVG Export Plug-In . SVG Version: 6.00 Build 0)  -->
<svg version="1.1" id="Layer_1" xmlns="http://www.w3.org/2000/svg" xmlns:xlink="http://www.w3.org/1999/xlink" x="0px" y="0px"
	 viewBox="0 0 490 492" style="enable-background:new 0 0 490 492;" xml:space="preserve">
<path d="M245,6C112.4,6,4.8,113.6,4.8,246.2c0,132.7,107.6,240.2,240.2,240.2s240.2-107.6,240.2-240.2C485.3,113.6,377.7,6,245,6z
	 M245,474.7c-126.2,0-228.5-102.3-228.5-228.5C16.6,120.1,118.9,17.8,245,17.8c126.2,0,228.5,102.3,228.5,228.5
	C473.5,372.4,371.2,474.7,245,474.7z"/>
<g>
	<path d="M287.4,139.1l-2.4,27.4l10.3,6.7l6-69.1l-60.6,33.8l10.3,6.7l22.6-12.6l-56.9,84c-12.4-5.2-27.2-1.6-35.5,9.7
		c-8.8,12-7.3,28.3,2.8,38.6L144,323.3c-3.9-1.5-8-2.4-12.4-2.4c-18.8,0-34,15.2-34,34c0,18.8,15.2,34,34,34c18.8,0,34-15.2,34-34
		c0-8.8-3.4-16.7-8.9-22.8l40.7-60.1c11.5,3.1,24.3-0.8,31.8-11c8-10.9,7.5-25.3-0.3-35.6L287.4,139.1z M216.7,251.8
		c-4.7,6.4-13.7,7.7-20.1,3c-6.4-4.7-7.7-13.7-3-20.1c4.7-6.4,13.7-7.7,20.1-3C220.1,236.5,221.5,245.5,216.7,251.8z"/>
	<polygon points="298.3,308.3 304.3,333.4 248.5,267.4 248.2,267.2 236.2,276.8 293.7,344.8 268,335.1 258.8,343.2 323.7,367.6 
		307.5,300.2 	"/>
	<polygon points="328.2,250.6 393.2,275 377,207.6 367.8,215.7 373.8,240.8 317.9,174.8 317.7,174.5 305.7,184.2 363.2,252.2 
		337.4,242.5 	"/>
</g>
</svg>
