<?xml version="1.0" encoding="utf-8"?>
<!-- Generator: Adobe Illustrator 21.1.0, SVG Export Plug-In . SVG Version: 6.00 Build 0)  -->
<svg version="1.1" id="Layer_1" xmlns="http://www.w3.org/2000/svg" xmlns:xlink="http://www.w3.org/1999/xlink" x="0px" y="0px"
	 viewBox="0 0 500 500" style="enable-background:new 0 0 500 500;" xml:space="preserve">
<path d="M378.8,49C378.8,49,378.8,49,378.8,49C378.8,49,378.8,49,378.8,49c-63.4,0-115,51.5-115,114.9c0,0.1,0.1,0.3,0.1,0.4v47.5
	H28.1C16.6,213,7.5,222.7,7.5,234.6v148.3c0,0,0,0,0,0.1c0,4.3,0.5,8.5,1.3,12.5c0.3,1.4,0.7,2.8,1,4.2c0.7,2.6,1.4,5.1,2.3,7.5
	c0.6,1.7,1.3,3.3,2.1,4.9c0.9,1.9,1.9,3.7,3,5.5c1.1,1.8,2.1,3.6,3.3,5.3c0.5,0.7,1.2,1.4,1.8,2.1c5.9,7.5,13.2,13.7,21.7,18.3
	c0.2,0.1,0.5,0.3,0.7,0.4c3,1.6,6.2,3,9.4,4.1l0,0c7,2.4,14.5,4,22.4,4h180.8c38,0,69-31,69-69V234.6c0-11.9-9.1-21.6-20.7-22.8H285
	v-47.9c0-51.8,42.1-93.8,93.8-93.9c51.7,0,93.8,42.1,93.8,93.9v48.2h21v-47.8c0-0.1,0.1-0.2,0.1-0.4C493.7,100.5,442.1,49,378.8,49z
	 M302.4,382.9c0,24.9-20.2,45.2-45.2,45.2H76.6c-14,0-26.4-6.5-34.7-16.5c-1.3-1.6-2.5-3.2-3.6-4.9c-0.5-0.9-1-1.8-1.5-2.7
	c-0.8-1.4-1.5-2.8-2.1-4.3c-0.9-2.2-1.6-4.6-2.2-7c-0.1-0.3-0.2-0.5-0.2-0.8c-0.6-2.9-0.9-5.9-0.9-9V235.3h271V382.9z M172.7,378
	c24.6,0,44.6-20,44.6-44.6c0-24.6-20-44.6-44.6-44.6c-24.6,0-44.6,20-44.6,44.6C128.1,358,148.1,378,172.7,378z M172.7,312.6
	c11.5,0,20.7,9.4,20.7,20.7c0,11.4-9.3,20.8-20.7,20.8c-11.5,0-20.7-9.4-20.7-20.7C152,322.1,161.2,312.6,172.7,312.6z"/>
</svg>
