<?xml version="1.0" encoding="utf-8"?>
<!-- Generator: Adobe Illustrator 21.1.0, SVG Export Plug-In . SVG Version: 6.00 Build 0)  -->
<svg version="1.1" id="Layer_1" xmlns="http://www.w3.org/2000/svg" xmlns:xlink="http://www.w3.org/1999/xlink" x="0px" y="0px"
	 viewBox="0 0 342 287" style="enable-background:new 0 0 342 287;" xml:space="preserve">
<path d="M308.4,102.3h-17.6V70.8c0-7.6-6.2-13.7-13.7-13.7H152.6l-25.1-35.2H33c-7.6,0-13.7,6.2-13.7,13.7v219.7h0
	c0,2.8,0.9,5.6,2.6,7.9c2.5,3.2,6.2,5.1,10.2,5.1h225.1c5.8,0,10.9-3.9,12.3-9.1l51.4-141v-0.9C321,108.6,315.7,102.3,308.4,102.3z
	 M29.3,35.6c0-2,1.7-3.7,3.7-3.7h89.3l25.1,35.2h129.7c2,0,3.7,1.6,3.7,3.7v31.5H83.3c-0.7,0-1.4,0.1-2.1,0.2
	c-4.9,0.8-9,4.4-10.2,8.9L29.3,225V35.6z M260,256.1c-0.3,1.2-1.5,2.1-2.7,2.1H32.1c-1.2,0-1.9-0.7-2.3-1.1
	c-0.3-0.4-0.8-1.3-0.6-2.1l51.3-140.6c0.3-1.2,1.5-2.1,2.7-2.1h207.6h17.6c1.9,0,2.4,2.7,2.5,4.1L260,256.1z"/>
</svg>
