<?xml version="1.0" encoding="utf-8"?>
<!-- Generator: Adobe Illustrator 21.1.0, SVG Export Plug-In . SVG Version: 6.00 Build 0)  -->
<svg version="1.1" id="Layer_1" xmlns="http://www.w3.org/2000/svg" xmlns:xlink="http://www.w3.org/1999/xlink" x="0px" y="0px"
	 viewBox="0 0 372 475" style="enable-background:new 0 0 372 475;" xml:space="preserve">
<g>
	<g>
		<path d="M50.4,145.6v47.8h-3.2c-20,0-36.3,16.3-36.3,36.3v200c0,20,16.3,36.3,36.3,36.3h279.1c20,0,36.3-16.3,36.3-36.3V229.6
			c0-20-16.3-36.3-36.3-36.3h-0.9v-47.8C325.3,69.7,263.7,8,187.9,8C112.1,8.1,50.4,69.8,50.4,145.6z M208.3,338.5
			c-2.8,2.1-3.6,4-3.6,7.3c0.1,14.7,0.1,29.3,0.1,44l0,0c0.3,6.1-2.8,12.1-8.2,14.8c-12.8,6.6-25.6-2.6-25.6-14.8v-0.1
			c0-14.7,0-29.4,0.1-44.1c0-3-0.7-5-3.3-6.9c-13.3-9.8-17.7-26.6-11-41.3c6.5-14.3,22.3-22.7,37.2-19.7
			c16.6,3.4,28.1,16.7,28.3,33.2C222.1,322.4,217.5,331.8,208.3,338.5z M110.6,145.6c0-42.7,34.7-77.3,77.3-77.3
			c42.7,0,77.3,34.7,77.3,77.3v47.8H110.6V145.6z"/>
	</g>
</g>
</svg>
