<?xml version="1.0" encoding="utf-8"?>
<!-- Generator: Adobe Illustrator 21.1.0, SVG Export Plug-In . SVG Version: 6.00 Build 0)  -->
<svg version="1.1" id="Layer_1" xmlns="http://www.w3.org/2000/svg" xmlns:xlink="http://www.w3.org/1999/xlink" x="0px" y="0px"
	 viewBox="0 0 342 347" style="enable-background:new 0 0 342 347;" xml:space="preserve">
<path d="M316.1,34c-17-17.1-47.6-17.6-65.1,0L237,47.5l-14.6-14l16.2-15.6L229.2,8L120.6,112.2l9.4,9.9L212.5,43l14.6,14L69,208.7
	c-0.5,0.5-1,1.1-1.3,1.7l0,0L10.8,317.9c-1.4,2.6-0.9,5.8,1.1,8c1.3,1.4,3.1,2.1,4.9,2.1c1,0,2-0.2,2.9-0.7l112.6-54l0,0
	c0.6-0.3,1.2-0.7,1.8-1.2l182-174.7C337.3,76.1,331.8,49.7,316.1,34z M76.8,222.5c19.7,8.6,34.3,22.4,43.5,41.4L32.5,306L76.8,222.5
	z M131.5,255.7c-10-19.5-25.7-34.6-45.7-44.1l150-144c21.3,8.8,36.7,23.6,46,43.8L131.5,255.7z M306.8,87.4l-14.6,14
	c-10-19.4-25.6-34.5-45.7-44.1l14-13.4c20.4-17.3,40.1-5.9,46.3,0C312.8,49.7,324.7,68.8,306.8,87.4z"/>
</svg>
