<?xml version="1.0" encoding="utf-8"?>
<!-- Generator: Adobe Illustrator 21.1.0, SVG Export Plug-In . SVG Version: 6.00 Build 0)  -->
<svg version="1.1" id="Layer_1" xmlns="http://www.w3.org/2000/svg" xmlns:xlink="http://www.w3.org/1999/xlink" x="0px" y="0px"
	 viewBox="0 0 85.3 82" style="enable-background:new 0 0 85.3 82;" xml:space="preserve">
<g>
	<g>
		<g>
			<path d="M76.5,75.1h-3.2v-46c0-2.1-1.7-3.9-3.9-3.9h-7.1c-2.1,0-3.9,1.7-3.9,3.9v46h-8V49.9c0-2.1-1.7-3.9-3.9-3.9h-7.1
				c-2.1,0-3.9,1.7-3.9,3.9v25.2h-8v-13c0-2.1-1.7-3.9-3.9-3.9h-7.1c-2.1,0-3.9,1.7-3.9,3.9v13H9.3c-0.8,0-1.4,0.6-1.4,1.4
				S8.5,78,9.3,78h67.2c0.8,0,1.4-0.6,1.4-1.4S77.3,75.1,76.5,75.1z M24.6,75.1h-9.1v-13c0-0.5,0.4-1,1-1h7.1c0.5,0,1,0.4,1,1
				L24.6,75.1L24.6,75.1z M47.5,75.1h-9.1V49.9c0-0.5,0.4-1,1-1h7.1c0.5,0,1,0.4,1,1V75.1z M70.4,75.1h-9.1v-46c0-0.5,0.4-1,1-1h7.1
				c0.5,0,1,0.4,1,1V75.1L70.4,75.1z"/>
		</g>
	</g>
	<g>
		<g>
			<path d="M73.3,5.5c0-0.4-0.1-0.8-0.4-1.1C72.6,4.1,72.2,4,71.8,4c0,0,0,0-0.1,0H63c-0.8,0-1.4,0.6-1.4,1.4s0.6,1.4,1.4,1.4h5.4
				L54.1,21.2l-5.4-5.4c-0.3-0.3-0.6-0.4-1-0.4c-0.4,0-0.8,0.2-1,0.4l-26,26c-0.6,0.6-0.6,1.5,0,2c0.3,0.3,0.7,0.4,1,0.4
				c0.4,0,0.7-0.1,1-0.4l25-25l5.4,5.4c0.6,0.6,1.5,0.6,2,0L70.4,8.9v4.9c0,0.8,0.6,1.4,1.4,1.4s1.4-0.6,1.4-1.4L73.3,5.5
				C73.3,5.6,73.3,5.5,73.3,5.5z"/>
		</g>
	</g>
</g>
</svg>
