<?xml version="1.0" encoding="utf-8"?>
<!-- Generator: Adobe Illustrator 21.1.0, SVG Export Plug-In . SVG Version: 6.00 Build 0)  -->
<svg version="1.1" id="Layer_1" xmlns="http://www.w3.org/2000/svg" xmlns:xlink="http://www.w3.org/1999/xlink" x="0px" y="0px"
	 viewBox="0 0 500 500" style="enable-background:new 0 0 500 500;" xml:space="preserve">
<g>
	<path d="M464.5,466.9h-20.4v-293c0-13.4-10.8-24.8-24.8-24.8h-45.2c-6.4,0-12.7,2.5-17.2,7l0,0l0,0c-4.5,4.5-7.6,10.8-7.6,17.8v293
		h-51V306.4c0-13.4-10.8-24.8-24.8-24.8h-45.2c-7,0-14,3.2-18.5,8.3l0,0l0,0c-3.8,4.5-6.4,10.2-6.4,16.6v160.5h-51v-82.8
		c0-13.4-10.8-24.8-24.8-24.8H82.4c-13.4,0-24.8,10.8-24.8,24.8v82.8h-21c-5.1,0-8.9,3.8-8.9,8.9c0,5.1,3.8,9.6,8.9,9.6h428
		c5.1,0,8.9-3.8,8.9-8.9C473.4,471.3,469.6,466.9,464.5,466.9z"/>
	<path d="M115.5,270c2.5,0,4.5-0.6,6.4-2.5l159.2-159.2l34.4,34.4c3.8,3.8,9.6,3.8,12.7,0l97.5-97.5v31.2c0,5.1,3.8,8.9,8.9,8.9
		s8.9-3.8,8.9-8.9l0.6-52.9c0-2.5-0.6-5.1-2.5-7c-1.9-1.9-4.5-2.5-7-2.5c0,0,0,0-0.6,0h-55.4c-5.1,0-8.9,3.8-8.9,8.9
		s3.8,8.9,8.9,8.9h34.4l-91.1,91.7l-34.4-34.4c-1.9-1.9-3.8-2.5-6.4-2.5s-5.1,1.3-6.4,2.5L109.1,254.8c-3.8,3.8-3.8,9.6,0,12.7
		C111,269.4,113.6,270,115.5,270z"/>
</g>
</svg>
