<?xml version="1.0" encoding="utf-8"?>
<!-- Generator: Adobe Illustrator 21.1.0, SVG Export Plug-In . SVG Version: 6.00 Build 0)  -->
<svg version="1.1" id="Layer_1" xmlns="http://www.w3.org/2000/svg" xmlns:xlink="http://www.w3.org/1999/xlink" x="0px" y="0px"
	 viewBox="0 0 500 500" style="enable-background:new 0 0 500 500;" xml:space="preserve">
<g>
	<g>
		<g>
			<path d="M467.8,471.2h-20.6V172.7c0-13.9-11.3-25.2-25.2-25.2h-46c-13.9,0-25.2,11.3-25.2,25.2v298.5h-52.2V307.9
				c0-13.9-11.3-25.2-25.2-25.2h-46c-13.9,0-25.2,11.3-25.2,25.2v163.3h-52.2v-84.6c0-13.9-11.3-25.2-25.2-25.2H79
				c-13.9,0-25.2,11.3-25.2,25.2v84.6H32.1c-5.2,0-9.4,4.2-9.4,9.4c0,5.2,4.2,9.4,9.4,9.4h435.7c5.2,0,9.4-4.2,9.4-9.4
				C477.2,475.4,473,471.2,467.8,471.2z M131.4,471.2H72.5v-84.6c0-3.6,2.9-6.5,6.5-6.5h46c3.6,0,6.5,2.9,6.5,6.5L131.4,471.2
				L131.4,471.2z M279.9,471.2h-58.9V307.9c0-3.6,2.9-6.5,6.5-6.5h46c3.6,0,6.5,2.9,6.5,6.5V471.2z M428.5,471.2h-58.9V172.7
				c0-3.6,2.9-6.5,6.5-6.5h46c3.6,0,6.5,2.9,6.5,6.5L428.5,471.2L428.5,471.2z"/>
		</g>
	</g>
	<g>
		<g>
			<path d="M447.2,19.9c0.1-2.6-0.8-5.2-2.7-7.1s-4.6-2.9-7.1-2.7c-0.2,0-0.3,0-0.5,0h-56.7c-5.2,0-9.4,4.2-9.4,9.4s4.2,9.4,9.4,9.4
				h35l-92.7,92.7l-34.9-34.9c-1.8-1.8-4.1-2.7-6.6-2.7s-4.9,1-6.6,2.7L105.9,255c-3.7,3.7-3.7,9.6,0,13.3c1.8,1.8,4.2,2.7,6.6,2.7
				s4.8-0.9,6.6-2.7L281,106.4l34.9,34.9c3.7,3.7,9.6,3.7,13.3,0L428.5,42v31.7c0,5.2,4.2,9.4,9.4,9.4s9.4-4.2,9.4-9.4V20.3
				C447.2,20.2,447.2,20,447.2,19.9z"/>
		</g>
	</g>
</g>
</svg>
