<?xml version="1.0" encoding="utf-8"?>
<!-- Generator: Adobe Illustrator 21.1.0, SVG Export Plug-In . SVG Version: 6.00 Build 0)  -->
<svg version="1.1" id="Layer_1" xmlns="http://www.w3.org/2000/svg" xmlns:xlink="http://www.w3.org/1999/xlink" x="0px" y="0px"
	 viewBox="0 0 410.7 411.8" style="enable-background:new 0 0 410.7 411.8;" xml:space="preserve">
<g id="Layer_1_1_">
</g>
<path d="M366.7,18.7L44.8,18.4c-14.6,0-26.5,11.9-26.6,26.7c0,14.8,11.8,26.8,26.4,26.9l144.4,0.3c1,0,2-0.1,3-0.2l88,0.2
	c1,0,1.9-0.1,2.9-0.2l83.5,0.2c14.6,0,26.5-11.9,26.6-26.7C393.2,30.7,381.3,18.7,366.7,18.7z M363.7,61.4l-53.3-0.1
	c-0.6,0.1-1.2,0.1-1.8,0.1l-0.8,0V29.3l56.1,0.1c9.3,0,16.9,7.2,16.9,16.1C380.6,54.3,373,61.4,363.7,61.4z"/>
<path d="M366.7,125.8l-144.4-0.3c-1,0-1.9,0.1-2.9,0.2l-83.5-0.2c-1,0-2,0.1-3,0.2l-88-0.2c-14.6,0-26.5,11.9-26.6,26.7
	c0,14.8,11.8,26.8,26.4,26.9l144.4,0.3c1,0,2-0.1,3-0.2l88,0.2c1,0,1.9-0.1,2.9-0.2l83.5,0.2c14.6,0,26.5-11.9,26.6-26.7
	C393.2,137.7,381.3,125.8,366.7,125.8z M363.7,168.1l-46.4-0.1c-0.6,0.1-1.2,0.1-1.7,0.1l-6.7,0c-0.1,0-0.2,0-0.2,0L262,168
	c-0.5,0-1.1,0.1-1.6,0.1l-9.3,0c-0.2,0-0.4,0-0.6,0l-46.5-0.1c-0.5,0.1-1.1,0.1-1.7,0.1l-4.4,0V136l17,0c0.5-0.1,1.1-0.1,1.7-0.1
	l6.7,0c0.1,0,0.2,0,0.2,0l46.6,0.1c0.5,0,1.1-0.1,1.6-0.1l92.1,0.2c9.3,0,16.9,7.2,16.9,16.1C380.6,161,373,168.1,363.7,168.1z"/>
<path d="M366.7,232.8l-144.4-0.3c-1,0-1.9,0.1-2.9,0.2l-83.5-0.2c-1,0-2,0.1-3,0.2l-88-0.2c-14.6,0-26.5,11.9-26.6,26.7
	C18.2,274,30,286,44.6,286l144.4,0.3c1,0,2-0.1,3-0.2l88,0.2c1,0,1.9-0.1,2.9-0.2l83.5,0.2c14.6,0,26.5-11.9,26.6-26.7
	C393.2,244.8,381.3,232.8,366.7,232.8z M363.7,276l-53.3-0.1c-0.6,0.1-1.2,0.1-1.8,0.1l-0.2,0v-32.1l55.4,0.1
	c9.3,0,16.9,7.2,16.9,16.1C380.6,268.9,373,276,363.7,276z"/>
<path d="M366.7,339.9l-144.4-0.3c-1,0-1.9,0.1-2.9,0.2l-83.5-0.2c-1,0-2,0.1-3,0.2l-88-0.2c-14.6,0-26.5,11.9-26.6,26.7
	c0,14.8,11.8,26.8,26.4,26.9l144.4,0.3c1,0,2-0.1,3-0.2l88,0.2c1,0,1.9-0.1,2.9-0.2l83.5,0.2c14.6,0,26.5-11.9,26.6-26.7
	C393.2,351.8,381.3,339.9,366.7,339.9z M363.7,382.7l-53.3-0.1c-0.6,0.1-1.2,0.1-1.8,0.1l-56.1-0.1c-0.6,0.1-1.2,0.1-1.9,0.1
	l-92.1-0.2c-0.8,0-1.6-0.1-2.3-0.2v-31.6c0.8-0.1,1.6-0.2,2.4-0.2l56.1,0.1c0.6-0.1,1.2-0.1,1.9-0.1l53.3,0.1
	c0.6-0.1,1.2-0.1,1.8-0.1l92.1,0.2c9.3,0,16.9,7.2,16.9,16.1C380.6,375.6,373,382.7,363.7,382.7z"/>
</svg>
