<?xml version="1.0" encoding="utf-8"?>
<!-- Generator: Adobe Illustrator 21.1.0, SVG Export Plug-In . SVG Version: 6.00 Build 0)  -->
<svg version="1.1" xmlns="http://www.w3.org/2000/svg" xmlns:xlink="http://www.w3.org/1999/xlink" x="0px" y="0px"
	 viewBox="0 0 410.7 411.8" style="enable-background:new 0 0 410.7 411.8;" xml:space="preserve">
<g id="Layer_1">
</g>
<g id="Layer_2">
	<g>
		<g>
			<g>
				<path d="M154.1,319.6c-0.5-1.2-1.7-2-3-2h-35.6v-81.3c0-1.8-1.5-3.3-3.3-3.3h-52c-1.8,0-3.3,1.5-3.3,3.3v81.3H21.1
					c-1.3,0-2.5,0.8-3,2c-0.5,1.2-0.2,2.6,0.7,3.5l64.9,65.1c0.6,0.6,1.4,1,2.3,1c0.9,0,1.7-0.3,2.3-0.9l65.1-65.1
					C154.3,322.2,154.6,320.8,154.1,319.6z"/>
			</g>
		</g>
		<g>
			<g>
				<path d="M18.1,87.6c0.5,1.2,1.7,2,3,2h35.6v81.3c0,1.8,1.5,3.3,3.3,3.3h52c1.8,0,3.3-1.5,3.3-3.3V89.6h35.8c1.3,0,2.5-0.8,3-2
					c0.5-1.2,0.2-2.6-0.7-3.5L88.5,19c-0.6-0.6-1.4-1-2.3-1s-1.7,0.3-2.3,0.9L18.8,84.1C17.9,85,17.6,86.4,18.1,87.6z"/>
			</g>
		</g>
		<path d="M370.7,18.2l-157.9-0.3c-16,0-29,12.9-29.1,28.9v0c0,16,12.9,29,28.9,29.1l157.9,0.3c16,0,29-12.9,29.1-28.9v0
			C399.7,31.2,386.7,18.2,370.7,18.2z M388.7,47.2c0,8.9-7.3,16.2-16.2,16.1l-3.7,0c-8.9,0-16.2-7.3-16.1-16.2v0
			c0-8.9,7.3-16.2,16.2-16.1l3.7,0C381.5,31,388.7,38.3,388.7,47.2L388.7,47.2z"/>
		<path d="M369.7,134.2l-158.1-0.3c-16,0-29,12.9-29.1,28.9v0c0,16,12.9,29,28.9,29.1l158.1,0.3c16,0,29-12.9,29.1-28.9v0
			C398.7,147.2,385.8,134.2,369.7,134.2z M386.7,163.2c0,8.9-7.2,16.1-16.1,16.1l-75.8-0.2c-8.9,0-16.1-7.2-16.1-16.1
			s7.2-16.1,16.1-16.1l75.8,0.2C379.5,147.1,386.7,154.3,386.7,163.2L386.7,163.2z"/>
		<g>
			<path d="M243.1,304h35.1c1.5-8.3,5.4-16.2,11.8-22.6c6.3-6.3,14.1-10.2,22.2-11.8v-0.2c2.6-0.5,5.2-0.7,8-0.7
				c2.8,0,5.5,0.3,8.1,0.8v0.1c3.5,0.7,6.8,1.8,10.1,3.3l23.3-26.9c-12-7.6-26.2-12-41.4-12c-40.1,0-73.1,30.4-77.1,69.5h0.1
				C243.2,303.7,243.1,303.8,243.1,304z"/>
		</g>
		<g>
			<path d="M359.5,294.8c0.4,0.9,0.7,1.7,1,2.6c0.1,0.2,0.1,0.4,0.2,0.6c0.2,0.7,0.5,1.5,0.7,2.3c0.1,0.4,0.2,0.7,0.3,1.1
				c0.1,0.4,0.2,0.8,0.3,1.2c0.2,1.1,0.4,2.1,0.5,3.2l34.7-3.1c-0.4-3.7-1.1-7.3-2.1-10.9c0-0.1-0.1-0.3-0.1-0.4
				c-0.2-0.8-0.5-1.6-0.7-2.4c-0.1-0.3-0.2-0.6-0.2-0.8c-0.2-0.6-0.4-1.3-0.6-1.9c-0.1-0.4-0.3-0.8-0.4-1.2c-0.2-0.5-0.4-1-0.6-1.5
				c-0.2-0.5-0.4-1.1-0.6-1.6c-0.1-0.4-0.3-0.7-0.5-1.1c-0.3-0.7-0.6-1.3-0.9-2c-0.1-0.2-0.2-0.5-0.3-0.7c-0.4-0.8-0.7-1.5-1.1-2.3
				c-0.1-0.1-0.1-0.2-0.2-0.3c-0.5-0.9-0.9-1.7-1.4-2.6c0,0,0,0,0,0c-2.1-3.6-4.4-7-7-10.2l0,0c-1.6-2-3.4-4-5.3-5.9
				c-0.5-0.5-1.1-1-1.6-1.5l-22.7,26.3c3.8,3.9,6.8,8.3,8.8,13C359.5,294.7,359.5,294.7,359.5,294.8z"/>
			<path d="M397.4,317.7l-35.5,3.1c-1.2,5.3-3.4,10.3-6.4,14.7l0.1,0.1c-1.5,2.2-3.2,4.3-5.1,6.3c-1.9,1.9-4,3.6-6.2,5.1l-0.1-0.1
				c-6.8,4.7-15.1,7.4-24,7.4c-16.9,0-31.6-9.9-38.5-24.1c0,0,0-0.1-0.1-0.1c-0.2-0.4-0.4-0.9-0.6-1.3c-0.1-0.2-0.2-0.5-0.3-0.7
				c-0.1-0.2-0.2-0.5-0.3-0.7c-0.2-0.5-0.3-0.9-0.5-1.4c0,0,0-0.1,0-0.1c-0.8-2.2-1.3-4.4-1.7-6.7h-35c0,0.2,0,0.3,0,0.5h-0.1
				c0.6,5.4,1.7,10.7,3.3,15.8c0,0.1,0.1,0.2,0.1,0.4c0.3,0.9,0.6,1.8,0.9,2.6c0.1,0.4,0.3,0.7,0.4,1.1c0.2,0.6,0.5,1.2,0.7,1.8
				c0.3,0.6,0.5,1.3,0.8,1.9c0.2,0.3,0.3,0.7,0.5,1c0.4,0.9,0.8,1.7,1.2,2.6c0,0.1,0.1,0.2,0.1,0.3c2.4,4.7,5.3,9.3,8.8,13.5l0,0
				c3.4,4.2,7.2,7.9,11.4,11.3l-0.1,0.1c30.4,24.8,75.3,23,103.6-5.4c13.1-13.1,20.5-29.7,22.3-46.8h-0.1
				C397.3,319,397.4,318.4,397.4,317.7z"/>
		</g>
		<rect x="182.7" y="234" width="14" height="155"/>
	</g>
</g>
</svg>
