<?xml version="1.0" encoding="utf-8"?>
<!-- Generator: Adobe Illustrator 21.1.0, SVG Export Plug-In . SVG Version: 6.00 Build 0)  -->
<svg version="1.1" id="Layer_1" xmlns="http://www.w3.org/2000/svg" xmlns:xlink="http://www.w3.org/1999/xlink" x="0px" y="0px"
	 viewBox="0 0 349 448" style="enable-background:new 0 0 349 448;" xml:space="preserve">
<g>
	<path d="M14.4,434.7V16.2H150c51.4,0,84.9,2.1,100.5,6.3c24,6.3,44.1,19.9,60.2,41c16.2,21,24.3,48.2,24.3,81.5
		c0,25.7-4.7,47.3-14,64.8c-9.3,17.5-21.2,31.3-35.5,41.3c-14.4,10-29,16.6-43.8,19.8c-20.2,4-49.4,6-87.6,6H98.9v157.9H14.4z
		 M98.9,87v118.8h46.3c33.3,0,55.6-2.2,66.8-6.6c11.2-4.4,20-11.2,26.4-20.6c6.4-9.3,9.6-20.2,9.6-32.5c0-15.2-4.5-27.8-13.4-37.7
		c-8.9-9.9-20.3-16.1-34-18.6c-10.1-1.9-30.4-2.9-60.8-2.9H98.9z"/>
</g>
</svg>
