<!--
@Author: Wahaj Shamim <wahaj>
@Date:   2018-04-26T13:20:35+10:00
@Email:  wahaj@southbanksoftware.com
@Last modified by:   wahaj
@Last modified time: 2018-04-26T15:09:28+10:00
-->



<?xml version="1.0" encoding="utf-8"?>
<!-- Generator: Adobe Illustrator 20.1.0, SVG Export Plug-In . SVG Version: 6.00 Build 0)  -->
<svg version="1.1" id="Capa_1" xmlns="http://www.w3.org/2000/svg" xmlns:xlink="http://www.w3.org/1999/xlink" x="0px" y="0px"
	 viewBox="0 0 60 60" style="enable-background:new 0 0 60 60;" xml:space="preserve">
<style type="text/css">
	.st0{fill:none;}
</style>
<g>
	<path class="st0" d="M41,21.2c-0.8-9.4-9.1-16.4-18.6-15.6C13.1,6.5,6.1,14.8,6.9,24.2c0.8,9.4,9.1,16.4,18.6,15.6
		C34.9,39,41.8,30.6,41,21.2z M34.7,25.6c0,1.3-0.7,2.4-1.9,2.9c-0.6,1.7-1.4,3.2-2.4,4.6c-0.2,0.3-0.4,0.5-0.6,0.8v2.7
		c0,0.2,0.1,0.5,0.1,0.7c-0.5,0.2-1,0.4-1.5,0.5c-0.1-0.4-0.2-0.8-0.2-1.2v-3.3l0.2-0.2c0.2-0.2,0.4-0.5,0.7-0.9
		c1-1.4,1.7-2.9,2.3-4.5l0.1-0.4l0.4-0.1c0.7-0.2,1.1-0.8,1.1-1.5v-3.2c0-0.4-0.2-0.9-0.5-1.2L32.3,21l0-5.1c0,0,0.3-2.3-1.3-4
		c-1.3-1.5-3.6-2.3-6.7-2.3c-3.1,0-5.4,0.8-6.7,2.3c-1.6,1.8-1.3,4-1.3,4l0,0.1v5l-0.3,0.2c-0.3,0.3-0.5,0.7-0.5,1.2v3.2
		c0,0.5,0.3,1,0.7,1.3l0.3,0.2l0.1,0.3c0.7,3.2,2.7,5.6,2.7,5.6l0.2,0.2v3.2c0,0.4-0.1,0.7-0.2,1c-0.5-0.2-1-0.4-1.5-0.6
		c0-0.2,0.1-0.3,0.1-0.5v-2.6c-0.5-0.7-2.1-2.9-2.8-5.8c-0.8-0.6-1.2-1.5-1.2-2.5v-3.2c0-0.8,0.3-1.5,0.8-2.1V16
		c0-0.4-0.2-3,1.7-5.2C18.1,9,20.7,8,24.3,8s6.3,0.9,7.9,2.8c1.9,2.2,1.7,4.8,1.7,5.2v4.2c0.5,0.6,0.8,1.3,0.8,2.1V25.6z" fill="none"/>
	<path d="M38.7,42.2L35,40.4c-0.6,0.3-1.1,0.6-1.7,0.9l4.7,2.3c1.9,1,3.1,2.9,3.1,5V51c0,1.1-5.9,3.2-16.7,3.2S7.6,52.1,7.6,51v-2.6
		c0-2,1.1-3.9,2.9-4.9l4.5-2.4c-0.6-0.3-1.1-0.6-1.6-0.9l-3.6,2C7.5,43.4,6,45.8,6,48.5V51c0,3.8,12,4.8,18.3,4.8s18.3-1,18.3-4.8
		v-2.4C42.7,45.9,41.1,43.4,38.7,42.2z"/>
	<path d="M33.9,16c0-0.4,0.2-3-1.7-5.2C30.6,9,27.9,8,24.3,8s-6.3,0.9-7.9,2.8c-1.9,2.2-1.7,4.8-1.7,5.2v4.2
		c-0.5,0.6-0.8,1.3-0.8,2.1v3.2c0,1,0.4,1.9,1.2,2.5c0.7,2.9,2.3,5.1,2.8,5.8v2.6c0,0.2,0,0.3-0.1,0.5c0.5,0.2,1,0.4,1.5,0.6
		c0.1-0.3,0.2-0.7,0.2-1v-3.2L19.4,33c0,0-2-2.4-2.7-5.6l-0.1-0.3l-0.3-0.2c-0.5-0.3-0.7-0.8-0.7-1.3v-3.2c0-0.4,0.2-0.9,0.5-1.2
		l0.3-0.2v-5l0-0.1c0,0-0.3-2.2,1.3-4c1.3-1.5,3.6-2.3,6.7-2.3c3.1,0,5.4,0.8,6.7,2.3c1.6,1.8,1.3,4,1.3,4l0,5.1l0.3,0.2
		c0.3,0.3,0.5,0.7,0.5,1.2v3.2c0,0.7-0.5,1.3-1.1,1.5l-0.4,0.1l-0.1,0.4c-0.5,1.7-1.3,3.2-2.3,4.5c-0.2,0.3-0.5,0.6-0.7,0.9
		l-0.2,0.2v3.3c0,0.4,0.1,0.8,0.2,1.2c0.5-0.1,1-0.3,1.5-0.5c-0.1-0.2-0.1-0.4-0.1-0.7v-2.7c0.2-0.2,0.4-0.5,0.6-0.8
		c1-1.4,1.8-2.9,2.4-4.6c1.1-0.5,1.9-1.6,1.9-2.9v-3.2c0-0.8-0.3-1.5-0.8-2.1V16z"/>
	<path d="M55.3,47.7L45,39l-0.7,0.9l-5.8-5c3.1-3.7,4.8-8.6,4.3-13.8C41.9,10.7,32.7,3,22.3,3.9C11.9,4.8,4.2,14,5.1,24.4
		C6,34.8,15.2,42.5,25.6,41.6c4.6-0.4,8.6-2.4,11.6-5.4l5.8,5.1L42.5,42l10.3,8.7c0.8,0.7,2,0.6,2.7-0.2
		C56.2,49.6,56.1,48.4,55.3,47.7z M25.5,39.8c-9.4,0.8-17.7-6.1-18.6-15.6C6.1,14.8,13.1,6.5,22.5,5.7c9.4-0.8,17.7,6.1,18.6,15.6
		C41.8,30.6,34.9,39,25.5,39.8z"/>
</g>
</svg>
