<?xml version="1.0" encoding="utf-8"?>
<!-- Generator: Adobe Illustrator 20.1.0, SVG Export Plug-In . SVG Version: 6.00 Build 0)  -->
<svg version="1.1" id="Capa_1" xmlns="http://www.w3.org/2000/svg" xmlns:xlink="http://www.w3.org/1999/xlink" x="0px" y="0px"
	 viewBox="0 0 58 58" style="enable-background:new 0 0 58 58;" xml:space="preserve">
<style type="text/css">
	.st0{fill:none;}
</style>
<g>
	<path class="st0" d="M22.8,5.4c-9.6,0-17.3,7.8-17.3,17.3c0,9.6,7.8,17.3,17.3,17.3s17.3-7.8,17.3-17.3
		C40.1,13.2,32.4,5.4,22.8,5.4z M31.2,25.6c0,0.9-0.6,1.7-1.5,2c-0.2,0.5-0.4,1-0.6,1.5v6.5c-0.6,0.3-1.2,0.6-1.8,0.8c0,0,0,0,0,0
		c-0.2,0.1-0.5,0.1-0.7,0.2c0,0,0,0,0,0c-0.2,0.1-0.5,0.1-0.7,0.2c-5.5,1.3-9.9-1.2-9.9-1.2v-6.5l0,0c-0.2-0.5-0.4-1.1-0.6-1.8
		c-0.6-0.4-1-1-1-1.8v-2.8c0-0.6,0.3-1.2,0.7-1.6v-4.1c0,0-0.8-6.3,7.7-6.3c8.5,0,7.7,6.3,7.7,6.3v4.1c0.4,0.4,0.7,0.9,0.7,1.6V25.6
		z"/>
	<path d="M55.3,51.2l-14-14l-0.9,0.9l-1.8-2c3-3.6,4.9-8.3,4.9-13.3c0-11.4-9.3-20.7-20.7-20.7S2.1,11.3,2.1,22.7
		s9.3,20.7,20.7,20.7c5.1,0,9.8-1.9,13.4-4.9c0.6,0.5,1.4,1.5,1.9,1.9l-0.8,0.8l14,14c1.1,1.1,2.9,1.1,4,0
		C56.4,54.1,56.4,52.3,55.3,51.2z M22.8,40.1c-9.6,0-17.3-7.8-17.3-17.3c0-9.6,7.8-17.3,17.3-17.3s17.3,7.8,17.3,17.3
		C40.1,32.3,32.4,40.1,22.8,40.1z"/>
	<path d="M23,47.1c-5.7,0-11-2-15.2-5.3c-4.1,2.4-4.7,4.9-4.7,4.9v5.9h39.4v-1.8l-6.9-7.4C31.9,45.8,27.6,47.1,23,47.1z"/>
	<path d="M30.5,17.2c0,0,0.8-6.3-7.7-6.3c-8.6,0-7.7,6.3-7.7,6.3v4.1c-0.4,0.4-0.7,0.9-0.7,1.6v2.8c0,0.7,0.4,1.4,1,1.8
		c0.1,0.6,0.3,1.2,0.6,1.8l0,0v6.5c0,0,4.4,2.5,9.9,1.2c0.3-0.1,0.5-0.1,0.7-0.2c0,0,0,0,0,0c0.2-0.1,0.5-0.1,0.7-0.2c0,0,0,0,0,0
		c0.6-0.2,1.2-0.5,1.8-0.8v-6.5c0.2-0.5,0.4-1,0.6-1.5c0.9-0.3,1.5-1.1,1.5-2v-2.8c0-0.6-0.3-1.2-0.7-1.6V17.2z"/>
</g>
</svg>
