<?xml version="1.0" encoding="utf-8"?>
<!-- Generator: Adobe Illustrator 21.1.0, SVG Export Plug-In . SVG Version: 6.00 Build 0)  -->
<svg version="1.1" id="Layer_1" xmlns="http://www.w3.org/2000/svg" xmlns:xlink="http://www.w3.org/1999/xlink" x="0px" y="0px"
	 viewBox="0 0 500 500" style="enable-background:new 0 0 500 500;" xml:space="preserve">
<g>
	<path d="M48.5,217.1C60.1,151.2,106.5,97.4,168,75.2l-2.9,5c-4,7-1.6,15.9,5.3,19.9c2.3,1.3,4.8,2,7.3,2c5,0,9.9-2.6,12.6-7.3
		L210.5,60c1.9-3.3,2.5-7.3,1.5-11.1c-1-3.7-3.4-6.9-6.8-8.8L170.3,20c-7-4-15.9-1.6-19.9,5.3c-4,7-1.6,15.9,5.3,19.9l3.6,2.1
		C87.6,72.7,33.3,135.4,19.8,212c-6.5,37-3.2,75.2,9.6,110.4c2.2,5.9,7.7,9.6,13.7,9.6c1.7,0,3.3-0.3,5-0.9
		c7.6-2.8,11.5-11.1,8.7-18.7C45.7,282,42.8,249,48.5,217.1z"/>
	<path d="M406.4,381.5c-6.4-5.4-15.9-4.5-21.2,1.8c-43.8,52.1-112.6,77.2-179.6,65.3c-32.5-5.7-62.8-19.8-88.1-40.5h4.8
		c8.3,0,15.1-6.7,15.1-15.1c0-8.3-6.7-15.1-15.1-15.1H82.2c-3.9-0.4-7.9,0.8-11.1,3.4c-3.1,2.6-4.9,6.3-5.3,10c0,0,0,0,0,0
		c0,0,0,0,0,0c0,0.4-0.1,0.9-0.1,1.3c0,0.1,0,0.1,0,0.2l0,41.5c0,8.3,6.7,15.1,15.1,15.1h0c8.3,0,15.1-6.7,15.1-15.1l0-5.2
		c29.7,25.1,65.8,42.2,104.5,49c12.7,2.2,25.5,3.3,38.1,3.3c64.7,0,127.3-28.5,169.7-79C413.6,396.3,412.7,386.8,406.4,381.5z"/>
	<path d="M482,292.1c-4-6.9-12.9-9.3-19.8-5.3l-4.8,2.7c0.2-1,0.4-2,0.6-3.1c9.9-56-2.6-112.4-35.2-158.9s-81.3-77.6-137.3-87.4
		c-7.9-1.4-15.4,3.9-16.8,11.7c-1.4,7.9,3.9,15.4,11.7,16.8c48.3,8.5,90.4,35.3,118.6,75.5c28.1,40.1,38.9,88.8,30.5,137l-2.1-3.7
		c-4-6.9-12.9-9.3-19.8-5.3c-6.9,4-9.3,12.9-5.3,19.8l20,34.6c1.9,3.3,5.1,5.8,8.8,6.7c1.2,0.3,2.5,0.5,3.7,0.5c2.5,0,5-0.7,7.2-1.9
		l34.6-20C483.6,307.9,486,299,482,292.1z"/>
</g>
</svg>
