<?xml version="1.0" encoding="utf-8"?>
<!-- Generator: Adobe Illustrator 21.1.0, SVG Export Plug-In . SVG Version: 6.00 Build 0)  -->
<svg version="1.1" id="Layer_1" xmlns="http://www.w3.org/2000/svg" xmlns:xlink="http://www.w3.org/1999/xlink" x="0px" y="0px"
	 viewBox="0 0 446 448" style="enable-background:new 0 0 446 448;" xml:space="preserve">
<g>
	<path d="M9.6,247.3l56.5,55.9c12.8,12.8,16.6,12.9,29.5,0l56.5-55.9c8.1-13.2,1.5-24.1-14.7-24.1h-26.2V223
		c0-72.8,58.1-134,132.3-133.7c36.1,0.2,69.4,14.7,93.1,38.6c25.7,24.5,42.8,58,42.6,96.2c0,72.9-58.2,134.2-132.3,133.9
		c-36.1-0.2-69.4-14.8-93-38.7l-43.2,41.7c34.9,35.2,83,56.9,136.2,56.9c106,0,191.8-86.8,192.5-193.5h0.1l0-0.7l0-0.6h-0.1
		c-0.4-53.8-23.4-101.5-59.5-136.9c-34.9-35.1-83-56.8-136.2-56.8C137.2,29.6,51,116.3,50.8,223.2H24.3
		C8.1,223.2,1.5,234.1,9.6,247.3z"/>
</g>
</svg>
