<?xml version="1.0" encoding="utf-8"?>
<!-- Generator: Adobe Illustrator 21.1.0, SVG Export Plug-In . SVG Version: 6.00 Build 0)  -->
<svg version="1.1" id="Layer_1" xmlns="http://www.w3.org/2000/svg" xmlns:xlink="http://www.w3.org/1999/xlink" x="0px" y="0px"
	 viewBox="0 0 500 500" style="enable-background:new 0 0 500 500;" xml:space="preserve">
<g>
	<g>
		<g>
			<path d="M438.3,137c-28,0-50.7,22.7-50.7,50.7c0,10.2,3,19.7,8.2,27.6l-54.8,54.8c-8-5.2-17.5-8.2-27.6-8.2
				c-10.6,0-20.4,3.3-28.5,8.8l-55.3-55.3c5.2-8,8.2-17.4,8.2-27.6c0-28-22.7-50.7-50.7-50.7s-50.7,22.7-50.7,50.7
				c0,10.2,3,19.7,8.2,27.6l-54.8,54.8c-8-5.2-17.4-8.2-27.6-8.2c-28,0-50.7,22.7-50.7,50.7s22.7,50.7,50.7,50.7
				s50.7-22.7,50.7-50.7c0-10.2-3-19.7-8.2-27.6l54.8-54.8c8,5.2,17.5,8.2,27.6,8.2c10.2,0,19.7-3,27.6-8.2l55.6,55.6
				c-4.9,7.8-7.7,16.9-7.7,26.8c0,28,22.7,50.7,50.7,50.7c28,0,50.7-22.7,50.7-50.7c0-10.2-3-19.7-8.2-27.6l54.8-54.8
				c8,5.2,17.4,8.2,27.6,8.2c28,0,50.7-22.7,50.7-50.7C489,159.7,466.3,137,438.3,137z M62.3,342.3c-16.4,0-29.7-13.3-29.7-29.7
				c0-16.4,13.3-29.7,29.7-29.7c16.4,0,29.7,13.3,29.7,29.7C92,329,78.7,342.3,62.3,342.3z M187.1,217.4
				c-16.4,0-29.7-13.3-29.7-29.7c0-16.4,13.3-29.7,29.7-29.7s29.7,13.3,29.7,29.7S203.5,217.4,187.1,217.4z M313.4,342.3
				c-16.4,0-29.7-13.3-29.7-29.7s13.3-29.7,29.7-29.7c16.4,0,29.7,13.3,29.7,29.7C343.2,329,329.8,342.3,313.4,342.3z M438.3,217.4
				c-16.4,0-29.7-13.3-29.7-29.7c0-16.4,13.3-29.7,29.7-29.7c16.4,0,29.7,13.3,29.7,29.7S454.7,217.4,438.3,217.4z"/>
		</g>
	</g>
	<g>
		<g>
			<path d="M176.4,265.7c-4.1-4.1-10.7-4.1-14.8,0L140.3,287c-4.1,4.1-4.1,10.7,0,14.8c2,2,4.7,3.1,7.4,3.1c2.7,0,5.4-1,7.4-3.1
				l21.3-21.3C180.5,276.4,180.5,269.8,176.4,265.7z"/>
		</g>
	</g>
	<g>
		<g>
			<path d="M360.3,198.8c-4.1-4.1-10.7-4.1-14.8,0l-21.3,21.3c-4.1,4.1-4.1,10.7,0,14.8c2,2,4.7,3.1,7.4,3.1c2.7,0,5.4-1,7.4-3.1
				l21.3-21.3C364.4,209.5,364.4,202.9,360.3,198.8z"/>
		</g>
	</g>
</g>
</svg>
