<?xml version="1.0" encoding="utf-8"?>
<!-- Generator: Adobe Illustrator 21.1.0, SVG Export Plug-In . SVG Version: 6.00 Build 0)  -->
<svg version="1.1" id="Layer_1" xmlns="http://www.w3.org/2000/svg" xmlns:xlink="http://www.w3.org/1999/xlink" x="0px" y="0px"
	 viewBox="0 0 490 492" style="enable-background:new 0 0 490 492;" xml:space="preserve">
<path d="M245,6C112.4,6,4.8,113.6,4.8,246.2c0,132.7,107.6,240.2,240.2,240.2s240.2-107.6,240.2-240.2C485.3,113.6,377.7,6,245,6z
	 M245,474.7c-126.2,0-228.5-102.3-228.5-228.5C16.6,120.1,118.9,17.8,245,17.8c126.2,0,228.5,102.3,228.5,228.5
	C473.5,372.4,371.2,474.7,245,474.7z"/>
<path d="M333,277.1c-11.6,0-22.1,4.8-29.5,12.5l-71.7-44.4l70.9-42.4c7.5,8.3,18.3,13.5,30.4,13.5c22.8,0,41.2-18.5,41.2-41.2
	S355.8,134,333,134c-22.8,0-41.2,18.5-41.2,41.2c0,5.2,1.1,10.1,2.8,14.6l-69.4,41.5c-6.4-23-27.5-39.9-52.5-39.9
	c-30.1,0-54.6,24.4-54.6,54.6s24.4,54.6,54.6,54.6c25.5,0,46.9-17.5,52.9-41.2l69.5,43c-2,4.9-3.2,10.3-3.2,15.9
	c0,22.8,18.5,41.2,41.2,41.2c22.8,0,41.2-18.5,41.2-41.2C374.2,295.6,355.8,277.1,333,277.1z"/>
</svg>
