<?xml version="1.0" encoding="UTF-8" standalone="no"?>
<svg
   xmlns:dc="http://purl.org/dc/elements/1.1/"
   xmlns:cc="http://creativecommons.org/ns#"
   xmlns:rdf="http://www.w3.org/1999/02/22-rdf-syntax-ns#"
   xmlns:svg="http://www.w3.org/2000/svg"
   xmlns="http://www.w3.org/2000/svg"
   viewBox="0 0 506.66666 508"
   height="508"
   width="506.66666"
   xml:space="preserve"
   id="svg2"
   version="1.1"><metadata
     id="metadata8"><rdf:RDF><cc:Work
         rdf:about=""><dc:format>image/svg+xml</dc:format><dc:type
           rdf:resource="http://purl.org/dc/dcmitype/StillImage" /></cc:Work></rdf:RDF></metadata><defs
     id="defs6" /><g
     transform="matrix(1.3333333,0,0,-1.3333333,0,508)"
     id="g10"><g
       transform="scale(0.1)"
       id="g12"><path
       class="p1"
         id="path14"
         style="fill:#ffc10e;fill-opacity:1;fill-rule:nonzero;stroke:none"
         d="M 3791.48,1905.73 C 3791.48,858.738 2942.73,9.98828 1895.74,9.98828 848.75,9.98828 0,858.738 0,1905.73 c 0,1046.99 848.75,1895.74 1895.74,1895.74 1046.99,0 1895.74,-848.75 1895.74,-1895.74 z" /><path
         id="path16"
         style="fill:#333333;fill-opacity:1;fill-rule:nonzero;stroke:none"
         d="m 2853.36,968.66 c -529.81,540.94 -1394.02,538.71 -1920.739,-5.629 -67.152,-69.293 38.59,-175.269 105.779,-105.82 470.98,486.639 1235.12,489.649 1709.14,5.629 67.62,-69.059 173.4,36.871 105.82,105.82 z" /><path
         id="path18"
         style="fill:#333333;fill-opacity:1;fill-rule:nonzero;stroke:none"
         d="m 1617.23,2559.6 c 0,-164.42 -133.28,-297.7 -297.74,-297.7 -164.41,0 -297.73,133.28 -297.73,297.7 0,164.45 133.32,297.73 297.73,297.73 164.46,0 297.74,-133.28 297.74,-297.73 z" /><path
         id="path20"
         style="fill:#333333;fill-opacity:1;fill-rule:nonzero;stroke:none"
         d="m 2743.05,2559.6 c 0,-164.42 -133.28,-297.7 -297.7,-297.7 -164.45,0 -297.73,133.28 -297.73,297.7 0,164.45 133.28,297.73 297.73,297.73 164.42,0 297.7,-133.28 297.7,-297.73 z" /></g></g></svg>