<?xml version="1.0" encoding="utf-8"?>
<!-- Generator: Adobe Illustrator 21.1.0, SVG Export Plug-In . SVG Version: 6.00 Build 0)  -->
<svg version="1.1" xmlns="http://www.w3.org/2000/svg" xmlns:xlink="http://www.w3.org/1999/xlink" x="0px" y="0px"
	 viewBox="0 0 394 459" style="enable-background:new 0 0 394 459;" xml:space="preserve">
<g id="Layer_1">
</g>
<g id="Layer_2">
	<path d="M358,74.2c-15.7,0-85.9,0-129.8,0V9l-94.1,92l92,94.8v-65.3h85.6c0,0,0-0.1,0-0.1c6.3,0,10.5,0,10.5,0s4.2,0.7,4.2,5.6
		c0,4.9,0,248.5,0,248.5s-0.7,7-4.2,7s-246.4,0-246.4,0s-8.4-1.4-8.4-7c0-5.6,0-310.3,0-310.3H35.1c0,0-25.3,4.2-25.3,25.3
		c0,21.1,0,320.1,0,320.1S11.9,449,38.6,449c26.7,0,319.4,0,319.4,0s26.7-2.1,26.7-27.4c0-25.3,0-323.6,0-323.6S381.1,74.2,358,74.2
		z"/>
</g>
</svg>
