<?xml version="1.0" encoding="utf-8"?>
<!-- Generator: Adobe Illustrator 21.1.0, SVG Export Plug-In . SVG Version: 6.00 Build 0)  -->
<svg version="1.1" id="Layer_1" xmlns="http://www.w3.org/2000/svg" xmlns:xlink="http://www.w3.org/1999/xlink" x="0px" y="0px"
	 viewBox="0 0 349 448" style="enable-background:new 0 0 349 448;" xml:space="preserve">
<g>
	<path d="M10.7,296.3l79.3-7.7c4.8,26.6,14.5,46.2,29.1,58.7c14.6,12.5,34.3,18.7,59.1,18.7c26.3,0,46-5.6,59.4-16.7
		c13.3-11.1,20-24.1,20-39c0-9.5-2.8-17.7-8.4-24.4c-5.6-6.7-15.4-12.5-29.3-17.5c-9.5-3.3-31.3-9.2-65.3-17.6
		c-43.7-10.8-74.4-24.1-92-39.9c-24.8-22.2-37.2-49.3-37.2-81.3c0-20.6,5.8-39.8,17.5-57.7C54.4,54,71.2,40.4,93.2,31
		c21.9-9.4,48.4-14,79.5-14c50.7,0,88.8,11.1,114.4,33.3c25.6,22.2,39.1,51.9,40.4,89l-81.5,3.6c-3.5-20.7-11-35.7-22.4-44.8
		C212,89,194.8,84.5,171.8,84.5c-23.7,0-42.2,4.9-55.6,14.6c-8.6,6.2-12.9,14.6-12.9,25.1c0,9.6,4,17.7,12.1,24.5
		c10.3,8.6,35.3,17.6,74.9,27s69,19.1,88,29.1c19,10,33.9,23.7,44.6,41s16.1,38.8,16.1,64.3c0,23.1-6.4,44.8-19.3,65
		c-12.9,20.2-31,35.2-54.5,45c-23.5,9.8-52.8,14.7-87.9,14.7c-51,0-90.3-11.8-117.6-35.4C32.3,375.8,16,341.5,10.7,296.3z"/>
</g>
</svg>
