<?xml version="1.0" encoding="utf-8"?>
<!-- Generator: Adobe Illustrator 21.1.0, SVG Export Plug-In . SVG Version: 6.00 Build 0)  -->
<svg version="1.1" id="Layer_1" xmlns="http://www.w3.org/2000/svg" xmlns:xlink="http://www.w3.org/1999/xlink" x="0px" y="0px"
	 viewBox="0 0 500 500" style="enable-background:new 0 0 500 500;" xml:space="preserve">
<g>
	<g>
		<path d="M456.3,201.7l-32.3-5.5c-3.4-10.9-7.7-21.3-13-31.3l19-26.6c8.1-11.3,6.8-26.8-3.1-36.6L398.4,73
			c-5.4-5.4-12.5-8.4-20.1-8.4c-6,0-11.6,1.8-16.4,5.3l-26.7,19c-10.4-5.5-21.2-10-32.5-13.4l-5.4-31.9C295,30,283.2,20,269.2,20
			h-40.5c-13.9,0-25.8,10-28.1,23.7l-5.6,32.7c-10.8,3.4-21.2,7.8-31.2,13.2l-26.4-19c-4.8-3.5-10.6-5.3-16.5-5.3
			c-7.6,0-14.8,3-20.1,8.4l-28.7,28.6c-9.8,9.8-11.1,25.3-3.1,36.6l19.2,27c-5.3,10.1-9.5,20.6-12.8,31.4l-31.9,5.4
			c-13.7,2.3-23.7,14.1-23.7,28.1v40.5c0,13.9,10,25.8,23.7,28.1l32.7,5.6c3.4,10.8,7.8,21.2,13.2,31.2l-18.9,26.3
			c-8.1,11.3-6.8,26.8,3.1,36.6l28.6,28.6c5.4,5.4,12.5,8.4,20.1,8.4c6,0,11.6-1.8,16.4-5.3l27-19.2c9.7,5.1,19.9,9.2,30.4,12.5
			l5.4,32.3c2.3,13.7,14.1,23.7,28.1,23.7h40.6c13.9,0,25.8-10,28.1-23.7l5.5-32.3c10.9-3.4,21.3-7.7,31.3-13l26.6,19
			c4.8,3.5,10.6,5.3,16.5,5.3l0,0c7.6,0,14.7-3,20.1-8.4l28.6-28.6c9.8-9.8,11.1-25.3,3.1-36.6l-19-26.7c5.3-10.1,9.7-20.6,13-31.3
			l32.3-5.4c13.7-2.3,23.7-14.1,23.7-28.1v-40.5C480.1,215.8,470.1,204,456.3,201.7z M454.1,270.2c0,1.2-0.9,2.3-2.1,2.5l-40.4,6.7
			c-5.1,0.9-9.1,4.6-10.4,9.5c-3.7,14.1-9.2,27.7-16.7,40.3c-2.6,4.4-2.4,9.9,0.6,14.1l23.7,33.4c0.7,1,0.6,2.4-0.3,3.3l-28.6,28.6
			c-0.7,0.7-1.3,0.8-1.8,0.8c-0.6,0-1.1-0.2-1.4-0.5l-33.3-23.7c-4.1-3-9.7-3.2-14.1-0.6c-12.6,7.5-26.1,13.1-40.3,16.7
			c-5,1.2-8.7,5.4-9.5,10.4l-6.8,40.4c-0.2,1.2-1.2,2.1-2.5,2.1h-40.5c-1.2,0-2.3-0.9-2.5-2.1l-6.7-40.4c-0.9-5.1-4.6-9.1-9.5-10.4
			c-13.7-3.6-27-9-39.4-16.1c-2-1.2-4.3-1.7-6.5-1.7c-2.6,0-5.3,0.8-7.5,2.4l-33.6,23.9c-0.5,0.3-1,0.5-1.4,0.5
			c-0.4,0-1.2-0.1-1.8-0.8l-28.6-28.6c-0.9-0.9-1-2.2-0.3-3.3l23.6-33.2c3-4.2,3.2-9.8,0.6-14.2c-7.5-12.5-13.3-26-16.9-40.2
			c-1.3-4.9-5.4-8.6-10.4-9.5l-40.6-6.9c-1.2-0.2-2.1-1.2-2.1-2.5v-40.5c0-1.2,0.9-2.3,2.1-2.5l40.1-6.7c5.1-0.9,9.2-4.6,10.5-9.6
			c3.6-14.1,9-27.8,16.4-40.4c2.6-4.4,2.3-9.9-0.7-14l-23.9-33.6c-0.7-1-0.6-2.4,0.3-3.3L119.2,92c0.7-0.7,1.3-0.8,1.8-0.8
			c0.6,0,1.1,0.2,1.4,0.5l33.2,23.6c4.2,3,9.8,3.2,14.2,0.6c12.5-7.5,26-13.3,40.2-16.9c4.9-1.3,8.6-5.4,9.5-10.4l6.9-40.6
			c0.2-1.2,1.2-2.1,2.5-2.1h40.5c1.2,0,2.3,0.9,2.5,2.1l6.7,40.1c0.9,5.1,4.6,9.2,9.6,10.5c14.5,3.7,28.3,9.3,41.2,16.9
			c4.4,2.6,9.9,2.4,14.1-0.6L376.8,91c0.5-0.3,1-0.5,1.4-0.5c0.4,0,1.2,0.1,1.8,0.8l28.6,28.6c0.9,0.9,1,2.2,0.3,3.3l-23.7,33.3
			c-3,4.1-3.2,9.7-0.6,14.1c7.5,12.6,13.1,26.1,16.7,40.3c1.2,5,5.4,8.7,10.4,9.5l40.4,6.8c1.2,0.2,2.1,1.2,2.1,2.5L454.1,270.2
			L454.1,270.2z"/>
		<path d="M249.9,150.7c-54.8,0-99.3,44.5-99.3,99.3s44.5,99.3,99.3,99.3s99.3-44.5,99.3-99.3S304.7,150.7,249.9,150.7z
			 M249.9,323.3c-40.5,0-73.3-32.9-73.3-73.3s32.9-73.3,73.3-73.3s73.3,32.9,73.3,73.3S290.4,323.3,249.9,323.3z"/>
	</g>
</g>
</svg>
