<?xml version="1.0" encoding="utf-8"?>
<!-- Generator: Adobe Illustrator 21.1.0, SVG Export Plug-In . SVG Version: 6.00 Build 0)  -->
<svg version="1.1" id="Layer_1" xmlns="http://www.w3.org/2000/svg" xmlns:xlink="http://www.w3.org/1999/xlink" x="0px" y="0px"
	 viewBox="0 0 472 468" style="enable-background:new 0 0 472 468;" xml:space="preserve">
<path d="M454.6,140.4V55.3c0-18.3-14.9-33.3-33.3-33.3H54.6c-18.3,0-33.3,14.9-33.3,33.3v85.1c0,10.6,5.1,20,12.8,26.1
	c-7.8,6.1-12.8,15.5-12.8,26.1v85.1c0,10.6,5.1,20,12.8,26.1c-7.8,6.1-12.8,15.5-12.8,26.1v85.1c0,18.4,14.9,33.3,33.3,33.3h366.7
	c18.3,0,33.3-14.9,33.3-33.3v-85.1c0-10.6-5.1-20-12.8-26.1c7.8-6.1,12.8-15.5,12.8-26.1v-85.1c0-10.6-5.1-20-12.8-26.1
	C449.5,160.3,454.6,151,454.6,140.4z M440.1,414.7c0,10.4-8.4,18.8-18.8,18.8H54.6c-10.4,0-18.8-8.4-18.8-18.8v-85.1
	c0-10.4,8.4-18.8,18.8-18.8h366.7c10.4,0,18.8,8.4,18.8,18.8V414.7z M60.2,234.7c0-18.7,15.2-33.9,33.9-33.9
	c18.7,0,33.9,15.2,33.9,33.9c0,18.7-15.2,33.9-33.9,33.9C75.5,268.6,60.2,253.4,60.2,234.7z M271.2,231c-4.2,0-7.5-3.4-7.5-7.5
	c0-4.2,3.4-7.5,7.5-7.5c4.2,0,7.5,3.4,7.5,7.5C278.7,227.6,275.3,231,271.2,231z M286.2,238.5c4.2,0,7.5,3.4,7.5,7.5
	c0,4.2-3.4,7.5-7.5,7.5c-4.2,0-7.5-3.4-7.5-7.5C278.7,241.9,282.1,238.5,286.2,238.5z M301.3,231c-4.2,0-7.5-3.4-7.5-7.5
	c0-4.2,3.4-7.5,7.5-7.5c4.2,0,7.5,3.4,7.5,7.5C308.8,227.6,305.5,231,301.3,231z M316.4,238.5c4.2,0,7.5,3.4,7.5,7.5
	c0,4.2-3.4,7.5-7.5,7.5s-7.5-3.4-7.5-7.5C308.8,241.9,312.2,238.5,316.4,238.5z M331.4,231c-4.2,0-7.5-3.4-7.5-7.5
	c0-4.2,3.4-7.5,7.5-7.5c4.2,0,7.5,3.4,7.5,7.5C339,227.6,335.6,231,331.4,231z M346.5,238.5c4.2,0,7.5,3.4,7.5,7.5
	c0,4.2-3.4,7.5-7.5,7.5c-4.2,0-7.5-3.4-7.5-7.5C339,241.9,342.3,238.5,346.5,238.5z M361.6,231c-4.2,0-7.5-3.4-7.5-7.5
	c0-4.2,3.4-7.5,7.5-7.5c4.2,0,7.5,3.4,7.5,7.5C369.1,227.6,365.7,231,361.6,231z M376.6,238.5c4.2,0,7.5,3.4,7.5,7.5
	c0,4.2-3.4,7.5-7.5,7.5c-4.2,0-7.5-3.4-7.5-7.5C369.1,241.9,372.5,238.5,376.6,238.5z M391.7,231c-4.2,0-7.5-3.4-7.5-7.5
	c0-4.2,3.4-7.5,7.5-7.5c4.2,0,7.5,3.4,7.5,7.5C399.2,227.6,395.9,231,391.7,231z M406.8,238.5c4.2,0,7.5,3.4,7.5,7.5
	c0,4.2-3.4,7.5-7.5,7.5c-4.2,0-7.5-3.4-7.5-7.5C399.2,241.9,402.6,238.5,406.8,238.5z M440.1,140.3c0,10.4-8.4,18.8-18.8,18.8H54.6
	v0c-10.4,0-18.8-8.4-18.8-18.8V55.3c0-10.4,8.4-18.8,18.8-18.8h366.7c10.4,0,18.8,8.4,18.8,18.8V140.3z"/>
</svg>
