<?xml version="1.0" encoding="utf-8"?>
<!-- Generator: Adobe Illustrator 21.1.0, SVG Export Plug-In . SVG Version: 6.00 Build 0)  -->
<svg version="1.1" id="Layer_1" xmlns="http://www.w3.org/2000/svg" xmlns:xlink="http://www.w3.org/1999/xlink" x="0px" y="0px"
	 viewBox="0 0 490 492" style="enable-background:new 0 0 490 492;" xml:space="preserve">
<path d="M245,6C112.4,6,4.8,113.6,4.8,246.2c0,132.7,107.6,240.2,240.2,240.2s240.2-107.6,240.2-240.2C485.3,113.6,377.7,6,245,6z
	 M245,474.7c-126.2,0-228.5-102.3-228.5-228.5C16.6,120.1,118.9,17.8,245,17.8c126.2,0,228.5,102.3,228.5,228.5
	C473.5,372.4,371.2,474.7,245,474.7z"/>
<path d="M361,195.8v-45.2c0-9.7-7.9-17.7-17.7-17.7H148.6c-9.7,0-17.7,7.9-17.7,17.7v45.2c0,5.6,2.7,10.6,6.8,13.9
	c-4.1,3.2-6.8,8.2-6.8,13.9v45.2c0,5.6,2.7,10.6,6.8,13.9c-4.1,3.2-6.8,8.2-6.8,13.9v45.2c0,9.8,7.9,17.7,17.7,17.7h194.7
	c9.7,0,17.7-7.9,17.7-17.7v-45.2c0-5.6-2.7-10.6-6.8-13.9c4.1-3.2,6.8-8.2,6.8-13.9v-45.2c0-5.6-2.7-10.6-6.8-13.9
	C358.3,206.4,361,201.5,361,195.8z M353.3,341.5c0,5.5-4.5,10-10,10H148.6c-5.5,0-10-4.5-10-10v-45.2c0-5.5,4.5-10,10-10h194.7
	c5.5,0,10,4.5,10,10V341.5z M151.6,245.9c0-9.9,8.1-18,18-18s18,8.1,18,18s-8.1,18-18,18C159.7,263.9,151.6,255.8,151.6,245.9z
	 M263.6,243.9c-2.2,0-4-1.8-4-4c0-2.2,1.8-4,4-4c2.2,0,4,1.8,4,4S265.8,243.9,263.6,243.9z M271.6,247.9c2.2,0,4,1.8,4,4
	c0,2.2-1.8,4-4,4c-2.2,0-4-1.8-4-4C267.6,249.7,269.4,247.9,271.6,247.9z M279.6,243.9c-2.2,0-4-1.8-4-4c0-2.2,1.8-4,4-4
	c2.2,0,4,1.8,4,4S281.8,243.9,279.6,243.9z M287.6,247.9c2.2,0,4,1.8,4,4c0,2.2-1.8,4-4,4c-2.2,0-4-1.8-4-4
	C283.6,249.7,285.4,247.9,287.6,247.9z M295.6,243.9c-2.2,0-4-1.8-4-4c0-2.2,1.8-4,4-4c2.2,0,4,1.8,4,4
	C299.6,242.1,297.8,243.9,295.6,243.9z M303.6,247.9c2.2,0,4,1.8,4,4c0,2.2-1.8,4-4,4c-2.2,0-4-1.8-4-4
	C299.6,249.7,301.4,247.9,303.6,247.9z M311.6,243.9c-2.2,0-4-1.8-4-4c0-2.2,1.8-4,4-4c2.2,0,4,1.8,4,4S313.8,243.9,311.6,243.9z
	 M319.6,247.9c2.2,0,4,1.8,4,4c0,2.2-1.8,4-4,4c-2.2,0-4-1.8-4-4C315.6,249.7,317.4,247.9,319.6,247.9z M327.6,243.9
	c-2.2,0-4-1.8-4-4c0-2.2,1.8-4,4-4c2.2,0,4,1.8,4,4S329.8,243.9,327.6,243.9z M335.6,247.9c2.2,0,4,1.8,4,4c0,2.2-1.8,4-4,4
	c-2.2,0-4-1.8-4-4C331.6,249.7,333.4,247.9,335.6,247.9z M353.3,195.8c0,5.5-4.5,10-10,10H148.6l0,0c-5.5,0-10-4.5-10-10v-45.1
	c0-5.5,4.5-10,10-10h194.7c5.5,0,10,4.5,10,10V195.8z"/>
</svg>
