<?xml version="1.0" encoding="utf-8"?>
<!-- Generator: Adobe Illustrator 21.1.0, SVG Export Plug-In . SVG Version: 6.00 Build 0)  -->
<svg version="1.1" id="Layer_1" xmlns="http://www.w3.org/2000/svg" xmlns:xlink="http://www.w3.org/1999/xlink" x="0px" y="0px"
	 viewBox="0 0 500 500" style="enable-background:new 0 0 500 500;" xml:space="preserve">
<g>
	<g>
		<path d="M424.7,261.9H237.9V75c0-7.6-6-13.6-13.6-13.6c-118,0-214.1,96.1-214.1,214.1s96.1,214.1,214.1,214.1
			s214.1-96.1,214.1-214.1C438.3,268.1,432.2,261.9,424.7,261.9z M224.3,462.4c-103,0-186.9-83.9-186.9-186.9
			c0-98.5,76.5-179.4,173.3-186.4v186.4c0,7.6,6,13.6,13.6,13.6h186.4C403.7,385.9,322.7,462.4,224.3,462.4z"/>
		<path d="M489.7,223.4c-0.2-52-19.2-102-53.6-141C395.4,36.4,337,10,275.6,10c-7.6,0-13.6,6-13.6,13.6v200.5
			c0,7.6,6,13.6,13.6,13.6h200.5l0,0c7.6,0,13.6-6,13.6-13.6C489.7,223.9,489.7,223.7,489.7,223.4z M289.2,210.6V37.8
			c48.5,3.5,94,26,126.5,62.7c27.2,30.7,43.3,69.4,46.3,110.1L289.2,210.6L289.2,210.6z"/>
	</g>
</g>
</svg>
