<?xml version="1.0" encoding="utf-8"?>
<!-- Generator: Adobe Illustrator 21.1.0, SVG Export Plug-In . SVG Version: 6.00 Build 0)  -->
<svg version="1.1" id="Layer_1" xmlns="http://www.w3.org/2000/svg" xmlns:xlink="http://www.w3.org/1999/xlink" x="0px" y="0px"
	 viewBox="0 0 228 153" style="enable-background:new 0 0 228 153;" xml:space="preserve">
<g>
	<path d="M213.8,83.9l-55.5,55.5c-3.5,3.5-9.2,3.5-12.8,0c-3.5-3.5-3.5-9.2,0-12.8l49.1-49.1l-49.1-49.1c-3.5-3.5-3.5-9.2,0-12.8
		c3.5-3.5,9.2-3.5,12.8,0l55.5,55.5c1.8,1.8,2.6,4.1,2.6,6.4C216.4,79.8,215.6,82.1,213.8,83.9z"/>
</g>
<g>
	<path d="M12.9,71.1l55.5-55.5c3.5-3.5,9.2-3.5,12.8,0c3.5,3.5,3.5,9.2,0,12.8L32.1,77.5l49.1,49.1c3.5,3.5,3.5,9.2,0,12.8
		c-3.5,3.5-9.2,3.5-12.8,0L12.9,83.9c-1.8-1.8-2.6-4.1-2.6-6.4C10.3,75.2,11.2,72.9,12.9,71.1z"/>
</g>
</svg>
