<?xml version="1.0" encoding="utf-8"?>
<!-- Generator: Adobe Illustrator 21.1.0, SVG Export Plug-In . SVG Version: 6.00 Build 0)  -->
<svg version="1.1" id="Layer_1" xmlns="http://www.w3.org/2000/svg" xmlns:xlink="http://www.w3.org/1999/xlink" x="0px" y="0px"
	 viewBox="0 0 228 225" style="enable-background:new 0 0 228 225;" xml:space="preserve">
<g>
	<g>
		<path d="M211,46.9h-20V16.7c0-2.2-1.8-4-4-4H17.4c-2.2,0-4,1.8-4,4v67c0,2.2,1.8,4,4,4h169.6c2.2,0,4-1.8,4-4V55h15.9v49.4
			l-105.5,18.7c-1.9,0.3-3.3,2-3.3,4v17.2h-7c-2.2,0-4,1.8-4,4v52c0,8.3,6.8,15.1,15.1,15.1c8.3,0,15.1-6.8,15.1-15.1v-52
			c0-2.2-1.8-4-4-4h-7v-13.8l105.5-18.7c1.9-0.3,3.3-2,3.3-4V50.9C215,48.7,213.2,46.9,211,46.9z M21.4,79.6V67.5H144
			c2.2,0,4-1.8,4-4c0-2.2-1.8-4-4-4H21.4V20.8h161.5v58.9H21.4z M109.2,152.3v48c0,3.9-3.2,7-7,7c-3.9,0-7-3.2-7-7v-48H109.2z"/>
	</g>
</g>
</svg>
