<?xml version="1.0" encoding="utf-8"?>
<!-- Generator: Adobe Illustrator 21.1.0, SVG Export Plug-In . SVG Version: 6.00 Build 0)  -->
<svg version="1.1" id="Layer_1" xmlns="http://www.w3.org/2000/svg" xmlns:xlink="http://www.w3.org/1999/xlink" x="0px" y="0px"
	 viewBox="0 0 500 500" style="enable-background:new 0 0 500 500;" xml:space="preserve">
<g>
	<path d="M459,109.4H319.6c-5.7,0-10.3,4.6-10.3,10.3s4.6,10.3,10.3,10.3H459c5.7,0,10.3-4.6,10.3-10.3S464.7,109.4,459,109.4z"/>
	<path d="M316.7,184.5H416c4,0,7.5-4.6,7.5-10.3c0-5.7-4-10.3-8-10.3h-98.7c-4,0-7.5,4.6-7.5,10.3
		C309.3,180,312.7,184.5,316.7,184.5z"/>
	<path d="M434.9,219.5h-117c-4.6,0-8.6,4.6-8.6,10.3c0,5.7,4,10.3,8.6,10.3h117c4.6,0,8.6-4.6,8.6-10.3
		C443.5,224.1,440.1,219.5,434.9,219.5z"/>
	<path d="M382.7,294.1c2.9,0,5.2-4.6,5.2-10.3c0-5.7-2.9-10.3-5.7-10.3h-67.7c-2.9,0-5.2,4.6-5.2,10.3c0,5.7,2.3,10.3,5.2,10.3
		H382.7z"/>
	<path d="M402.8,325.7h-87.2c-3.4,0-6.3,4.6-6.3,10.3s2.9,10.3,6.3,10.3h87.2c3.4,0,6.3-4.6,6.3-10.3S406.2,325.7,402.8,325.7z"/>
	<path d="M333.9,375h-23.5c-1.1,0-1.7,4.6-1.7,10.3c0,5.7,0.6,10.3,1.7,10.3h23.5c1.1,0,1.7-4.6,1.7-10.3
		C335.7,379.6,335.1,375,333.9,375z"/>
	<path d="M285.6,86.7H43.2C37.1,86.7,32,91.8,32,98v307.3c0,6.2,5.1,11.2,11.2,11.2h242.3c6.2,0,11.2-5.1,11.2-11.2V98
		C296.8,91.8,291.7,86.7,285.6,86.7z M93.7,392.9H52v-42.2h41.7V392.9z M93.7,331.7H52v-42.2h41.7V331.7z M93.7,272.4H52v-42.2h41.7
		V272.4z M93.7,209.8H52v-42.2h41.7V209.8z M93.7,150.5H52v-42.2h41.7V150.5z M185.5,392.9h-72.6v-42.2h72.6V392.9z M185.5,331.7
		h-72.6v-42.2h72.6V331.7z M185.5,272.4h-72.6v-42.2h72.6V272.4z M185.5,209.8h-72.6v-42.2h72.6V209.8z M185.5,150.5h-72.6v-42.2
		h72.6V150.5z M276.8,392.9h-72.6v-42.2h72.6V392.9z M276.8,331.7h-72.6v-42.2h72.6V331.7z M276.8,272.4h-72.6v-42.2h72.6V272.4z
		 M276.8,209.8h-72.6v-42.2h72.6V209.8z M276.8,150.5h-72.6v-42.2h72.6V150.5z"/>
</g>
</svg>
