<!--
@Author: Wahaj Shamim <wahaj>
@Date:   2018-04-26T13:48:48+10:00
@Email:  wahaj@southbanksoftware.com
@Last modified by:   wahaj
@Last modified time: 2018-04-26T15:14:22+10:00
-->



<?xml version="1.0" encoding="utf-8"?>
<!-- Generator: Adobe Illustrator 20.1.0, SVG Export Plug-In . SVG Version: 6.00 Build 0)  -->
<svg version="1.1" id="Layer_1" xmlns="http://www.w3.org/2000/svg" xmlns:xlink="http://www.w3.org/1999/xlink" x="0px" y="0px"
	 viewBox="0 0 85.3 82" style="enable-background:new 0 0 85.3 82;" xml:space="preserve">
<style type="text/css">
	.st0{fill:none;}
</style>
<g>
	<rect x="16.1" y="14.4" class="st0" width="15.3" height="7.3" fill="none"/>
	<rect x="16.1" y="23.7" class="st0" width="15.3" height="7.5" fill="none"/>
	<rect x="16.1" y="43.1" class="st0" width="15.3" height="7.1" fill="none"/>
	<rect x="16.1" y="61.1" class="st0" width="15.3" height="6.5" fill="none"/>
	<rect x="16.1" y="33.3" class="st0" width="15.3" height="7.7" fill="none"/>
	<rect x="6.6" y="14.2" class="st0" width="7.4" height="7.5" fill="none"/>
	<rect x="16.1" y="52.3" class="st0" width="15.3" height="6.8" fill="none"/>
	<rect x="6.6" y="23.7" class="st0" width="7.4" height="7.5" fill="none"/>
	<rect x="6.6" y="52.3" class="st0" width="7.4" height="6.8" fill="none"/>
	<path class="st0" d="M6.6,67.3c0,0.1,0.1,0.2,0.2,0.3h7.3v-6.5H6.6V67.3z" fill="none"/>
	<rect x="6.6" y="33.3" class="st0" width="7.4" height="7.7" fill="none"/>
	<rect x="6.6" y="43.1" class="st0" width="7.4" height="7.1" fill="none"/>
	<rect x="33.5" y="14.4" class="st0" width="15.3" height="7.3" fill="none"/>
	<path class="st0" d="M47.5,61.1H33.5v6.5h15.1c0.1-0.1,0.1-0.1,0.2-0.2v-6.3L47.5,61.1C47.5,61.1,47.5,61.1,47.5,61.1z" fill="none"/>
	<polygon class="st0" points="46.2,23.7 33.5,23.7 33.5,31.2 48.7,31.2 48.7,23.7 46.2,23.7 	" fill="none"/>
	<polygon class="st0" points="46.3,33.3 33.5,33.3 33.5,41 48.7,41 48.7,33.3 46.3,33.3 	" fill="none"/>
	<polygon class="st0" points="46.9,52.3 33.5,52.3 33.5,59 48.7,59 48.7,52.3 46.9,52.3 	" fill="none"/>
	<polygon class="st0" points="46.5,43.1 33.5,43.1 33.5,50.2 48.7,50.2 48.7,43.1 46.5,43.1 	" fill="none"/>
	<path d="M48.9,12.4L7,12.3c-1.3,0-2.4,1.1-2.4,2.4v52.6c0,0.8,0.4,1.5,1,2l0.9,0.4c0.2,0,0.3,0.1,0.5,0.1h41.2c0,0,0,0,0,0h0.2
		c0,0,0,0,0,0h0.5l0.9-0.4c0.6-0.4,1-1.2,1-2v-0.9v-9.2v-5V43v-5v-9.2v-4.9l0-9.2C50.7,13.5,50,12.6,48.9,12.4z M14.1,67.6H6.8
		c-0.1-0.1-0.2-0.2-0.2-0.3v-6.2h7.4V67.6z M14.1,59H6.6v-6.8h7.4V59z M14.1,50.2H6.6v-7.1h7.4V50.2z M14.1,41H6.6v-7.7h7.4V41z
		 M14.1,31.2H6.6v-7.5h7.4V31.2z M14.1,21.8H6.6v-7.5h7.4V21.8z M31.4,67.6H16.1v-6.5h15.3V67.6z M31.4,59H16.1v-6.8h15.3V59z
		 M31.4,50.2H16.1v-7.1h15.3V50.2z M31.4,41H16.1v-7.7h15.3V41z M31.4,31.2H16.1v-7.5h15.3V31.2z M31.4,21.6H16.1v-7.3h15.3V21.6z
		 M48.7,67.4c0,0.1-0.1,0.2-0.2,0.2H33.5v-6.5h14.1c0,0,0,0,0,0h1.2V67.4z M48.7,59H33.5v-6.8h13.4v0h1.8V59z M48.7,50.2H33.5v-7.1
		h13v0h2.3V50.2z M48.7,41H33.5v-7.7h12.8v0h2.5V41z M48.7,31.2H33.5v-7.5h12.7v0h2.5V31.2z M48.7,21.6H33.5v-7.3h15.3V21.6z"/>
	<path d="M54.7,19.8h24.3c1,0,1.8-0.8,1.8-1.8s-0.8-1.8-1.8-1.8H54.7c-1,0-1.8,0.8-1.8,1.8S53.7,19.8,54.7,19.8z"/>
	<path d="M71.4,25.7H54.2c-0.7,0-1.3,0.8-1.3,1.8s0.6,1.8,1.3,1.8h17.3c0.7,0,1.3-0.8,1.3-1.8S72.1,25.7,71.4,25.7z"/>
	<path d="M74.8,35.4H54.4c-0.8,0-1.5,0.8-1.5,1.8s0.7,1.8,1.5,1.8h20.4c0.8,0,1.5-0.8,1.5-1.8S75.7,35.4,74.8,35.4z"/>
	<path d="M65.6,44.8H53.8c-0.5,0-0.9,0.8-0.9,1.8s0.4,1.8,0.9,1.8h11.9c0.5,0,0.9-0.8,0.9-1.8S66.1,44.8,65.6,44.8z"/>
	<path d="M69.2,53.9H54c-0.6,0-1.1,0.8-1.1,1.8s0.5,1.8,1.1,1.8h15.2c0.6,0,1.1-0.8,1.1-1.8S69.8,53.9,69.2,53.9z"/>
	<path d="M57.2,62.5h-4.1c-0.2,0-0.3,0.8-0.3,1.8s0.1,1.8,0.3,1.8h4.1c0.2,0,0.3-0.8,0.3-1.8S57.4,62.5,57.2,62.5z"/>
</g>
</svg>
