<?xml version="1.0" encoding="utf-8"?>
<!-- Generator: Adobe Illustrator 21.1.0, SVG Export Plug-In . SVG Version: 6.00 Build 0)  -->
<svg version="1.1" id="Layer_1" xmlns="http://www.w3.org/2000/svg" xmlns:xlink="http://www.w3.org/1999/xlink" x="0px" y="0px"
	 viewBox="0 0 500 418" style="enable-background:new 0 0 500 418;" xml:space="preserve">
<g>
	<g>
		<path d="M493.9,57.4c-18,8-37.3,13.4-57.6,15.8c20.7-12.4,36.6-32.1,44.1-55.5c-19.4,11.5-40.9,19.8-63.7,24.4
			c-18.3-19.5-44.3-31.7-73.2-31.7c-55.4,0-100.3,44.9-100.3,100.3c0,7.9,0.9,15.5,2.6,22.9C162.4,129.4,88.5,89.4,39.1,28.8
			c-8.6,14.8-13.6,32-13.6,50.4c0,34.8,17.7,65.5,44.6,83.5c-16.4-0.5-31.9-5.1-45.4-12.6v1.3c0,48.6,34.6,89.1,80.4,98.3
			c-8.4,2.3-17.3,3.5-26.4,3.5c-6.5,0-12.7-0.6-18.9-1.9c12.8,39.9,49.8,68.9,93.7,69.7c-34.3,26.9-77.6,42.9-124.6,42.9
			c-8.1,0-16.1-0.5-23.9-1.4c44.4,28.5,97.1,45.1,153.7,45.1c184.5,0,285.4-152.8,285.4-285.4l-0.3-13
			C463.5,95.2,480.5,77.5,493.9,57.4z"/>
	</g>
</g>
</svg>
