<?xml version="1.0" encoding="utf-8"?>
<!-- Generator: Adobe Illustrator 21.1.0, SVG Export Plug-In . SVG Version: 6.00 Build 0)  -->
<svg version="1.1" id="Layer_1" xmlns="http://www.w3.org/2000/svg" xmlns:xlink="http://www.w3.org/1999/xlink" x="0px" y="0px"
	 viewBox="0 0 490 492" style="enable-background:new 0 0 490 492;" xml:space="preserve">
<path d="M245,6C112.4,6,4.8,113.6,4.8,246.2c0,132.7,107.6,240.2,240.2,240.2s240.2-107.6,240.2-240.2C485.3,113.6,377.7,6,245,6z
	 M245,474.7c-126.2,0-228.5-102.3-228.5-228.5C16.6,120.1,118.9,17.8,245,17.8c126.2,0,228.5,102.3,228.5,228.5
	C473.5,372.4,371.2,474.7,245,474.7z"/>
<g>
	<path d="M291.8,311.1l-39.9-19.9c-3.8-1.9-6.1-5.7-6.1-9.9v-14.1c1-1.2,2-2.5,3-4c5.2-7.3,9.3-15.4,12.3-24.2
		c5.9-2.7,9.7-8.5,9.7-15.1v-16.7c0-4-1.5-7.9-4.2-11V174c0.2-2.3,1.2-16-8.7-27.2c-8.6-9.8-22.5-14.7-41.4-14.7s-32.8,5-41.4,14.7
		c-9.9,11.3-9,24.9-8.7,27.2v22.2c-2.7,3-4.2,6.9-4.2,11v16.7c0,5.1,2.3,9.8,6.2,13c3.8,15.1,11.8,26.6,14.6,30.2v13.8
		c0,4-2.2,7.7-5.7,9.7l-37.2,20.3c-12.1,6.6-19.6,19.3-19.6,33.1v17.7h192v-16.9C312.6,330.4,304.6,317.5,291.8,311.1z"/>
	<path d="M352.1,315.8l-40.6-17.6c-1-0.5-2-1.7-2.9-3.2l27.2,0c0,0,1.6,0.2,4,0.2c4.5,0,11-0.5,16.7-3c3.4-1.5,5.9-4.4,7-8
		c1-3.6,0.4-7.5-1.8-10.5c-7.8-11.1-26-40-26.5-69.4c0-0.5-1.7-50.4-51-50.9c-5,0-9.6,0.7-14.1,1.7c3.3,8.7,3,16.6,2.8,19.1V194
		c2.7,3.8,4.2,8.4,4.2,13.1v16.7c0,8-4.2,15.3-10.9,19.5c-3.1,8.4-7.3,16.3-12.3,23.5c-0.6,0.9-1.2,1.7-1.8,2.5v11.9
		c0,1.8,1,3.4,2.6,4.3l39.9,19.9c15,7.5,24.3,22.5,24.3,39.3v16.9h52.2v-15.4C371.1,333.3,363.9,321.7,352.1,315.8z"/>
</g>
</svg>
