<?xml version="1.0" encoding="utf-8"?>
<!-- Generator: Adobe Illustrator 21.1.0, SVG Export Plug-In . SVG Version: 6.00 Build 0)  -->
<svg version="1.1" id="Layer_1" xmlns="http://www.w3.org/2000/svg" xmlns:xlink="http://www.w3.org/1999/xlink" x="0px" y="0px"
	 viewBox="0 0 500 500" style="enable-background:new 0 0 500 500;" xml:space="preserve">
<g>
	<g>
		<path d="M248.2,268.2c0.5,0,1,0,1.6,0c0.2,0,0.4,0,0.6,0c0.3,0,0.7,0,1,0c28.6-0.5,51.8-10.6,68.9-29.8
			c37.6-42.4,31.4-115.1,30.7-122c-2.4-52.1-27.1-77-47.4-88.6C288.4,19.1,270.7,14.4,251,14h-0.7c-0.1,0-0.3,0-0.4,0h-0.6
			c-10.8,0-32.1,1.8-52.6,13.4c-20.5,11.6-45.5,36.5-48,89c-0.7,6.9-6.9,79.6,30.7,122C196.4,257.7,219.6,267.8,248.2,268.2z
			 M174.8,118.8c0-0.3,0.1-0.6,0.1-0.8c3.2-70.1,53-77.6,74.3-77.6h0.4c0.2,0,0.5,0,0.8,0c26.4,0.6,71.2,11.3,74.3,77.6
			c0,0.3,0,0.6,0.1,0.8c0.1,0.7,6.9,67.1-24.1,102.1c-12.3,13.9-28.7,20.7-50.3,20.9c-0.2,0-0.3,0-0.5,0l0,0c-0.2,0-0.3,0-0.5,0
			c-21.5-0.2-38-7-50.2-20.9C168.1,186.2,174.7,119.4,174.8,118.8z"/>
		<path d="M450.6,388.8c0-0.1,0-0.2,0-0.3c0-0.8-0.1-1.6-0.1-2.4c-0.6-19.3-1.9-64.6-44.3-79c-0.3-0.1-0.7-0.2-1-0.3
			c-44.1-11.2-80.7-36.6-81.1-36.9c-6-4.2-14.2-2.7-18.4,3.2s-2.7,14.2,3.2,18.4c1.7,1.2,40.6,28.2,89.2,40.7
			c22.8,8.1,25.3,32.4,26,54.7c0,0.9,0,1.7,0.1,2.4c0.1,8.8-0.5,22.4-2.1,30.2c-15.8,9-77.9,40.1-172.3,40.1
			c-94,0-156.4-31.2-172.4-40.2c-1.6-7.8-2.2-21.4-2.1-30.2c0-0.8,0.1-1.6,0.1-2.4c0.7-22.3,3.2-46.6,26-54.7
			c48.7-12.5,87.6-39.7,89.2-40.7c6-4.2,7.4-12.4,3.2-18.4c-4.2-6-12.4-7.4-18.4-3.2c-0.4,0.3-36.8,25.7-81.1,36.9
			c-0.4,0.1-0.7,0.2-1,0.3c-42.4,14.6-43.7,59.8-44.3,79c0,0.9,0,1.7-0.1,2.4c0,0.1,0,0.2,0,0.3c-0.1,5.1-0.2,31.2,5,44.3
			c1,2.5,2.7,4.7,5.1,6.2c2.9,2,73.2,46.7,190.7,46.7s187.8-44.9,190.7-46.7c2.2-1.5,4.1-3.6,5.1-6.2
			C450.8,420,450.7,393.9,450.6,388.8z"/>
	</g>
</g>
</svg>
