<?xml version="1.0" encoding="utf-8"?>
<!-- Generator: Adobe Illustrator 21.1.0, SVG Export Plug-In . SVG Version: 6.00 Build 0)  -->
<svg version="1.1" id="Layer_1" xmlns="http://www.w3.org/2000/svg" xmlns:xlink="http://www.w3.org/1999/xlink" x="0px" y="0px"
	 viewBox="0 0 490 492" style="enable-background:new 0 0 490 492;" xml:space="preserve">
<path d="M245,6C112.4,6,4.8,113.6,4.8,246.2c0,132.7,107.6,240.2,240.2,240.2s240.2-107.6,240.2-240.2C485.3,113.6,377.7,6,245,6z
	 M245,474.7c-126.2,0-228.5-102.3-228.5-228.5C16.6,120.1,118.9,17.8,245,17.8c126.2,0,228.5,102.3,228.5,228.5
	C473.5,372.4,371.2,474.7,245,474.7z"/>
<path d="M351.3,315.5l-40.7-17.6c-1-0.5-2-1.6-2.9-3.2l27.2,0c0.5,0,11.7,1.1,20.7-2.8c3.4-1.5,5.9-4.4,6.9-7.9
	c1-3.6,0.4-7.4-1.8-10.5c-7.8-11-25.9-39.9-26.5-69.2c0-0.5-1.7-50.3-50.8-50.7c-7.2,0.1-13.9,1.3-20,3.6c-1.3-3.4-3.3-6.9-6.2-10.2
	c-8.5-9.8-22.4-14.7-41.2-14.7s-32.7,4.9-41.2,14.7c-9.9,11.2-8.9,24.9-8.7,27.2v22.1c-2.7,3-4.2,6.9-4.2,10.9v16.7
	c0,5.1,2.3,9.8,6.2,12.9c3.8,15.1,11.8,26.5,14.6,30.1v13.8c0,4-2.2,7.7-5.7,9.7l-37.1,20.3c-12.1,6.6-19.6,19.2-19.6,33v17.6h183.2
	h8.3H370v-15.4C370,332.9,362.8,321.3,351.3,315.5z M303.4,352.8H128.5v-9.3c0-10.7,5.8-20.5,15.2-25.7l37.1-20.3
	c6.2-3.4,10.1-9.9,10.1-17v-16.7l-1-1.2c-0.1-0.1-10.3-12.5-14.2-29.4l-0.4-1.6l-1.4-0.9c-2.4-1.6-3.9-4.2-3.9-7v-16.7
	c0-2.3,1-4.5,2.8-6.1l1.4-1.2v-25.9l0-0.5c0-0.1-1.4-11.7,6.7-20.9c6.9-7.9,18.7-11.9,35-11.9c16.3,0,28,4,34.9,11.8
	c3.4,3.9,5.2,8.2,6,11.9c0.1,0.3,0.1,0.6,0.2,0.9c0.1,0.3,0.1,0.6,0.2,0.9c0.1,0.3,0.1,0.6,0.1,0.9c0,0.2,0.1,0.4,0.1,0.7
	c0.1,0.5,0.1,1,0.1,1.5c0,0,0,0.1,0,0.1c0,0.4,0,0.9,0.1,1.3c0,0.1,0,0.1,0,0.2c0,0.3,0,0.7,0,1c0,0,0,0.1,0,0.1
	c0,1-0.1,1.6-0.1,1.6l0,26.5l1.4,1.2c1.8,1.6,2.8,3.8,2.8,6.1v16.7c0,3.6-2.4,6.8-5.9,7.9l-2.1,0.6l-0.7,2.1
	c-2.8,8.7-6.8,16.7-11.8,23.8c-1.2,1.8-2.4,3.3-3.5,4.5l-1,1.2V281c0,1.1,0.1,2.1,0.3,3.1c0,0.2,0.1,0.4,0.1,0.6
	c0.2,0.8,0.4,1.7,0.6,2.5c0.1,0.2,0.1,0.4,0.2,0.6c0.3,0.9,0.7,1.7,1.1,2.5c0,0.1,0.1,0.2,0.1,0.3c0.6,1.1,1.3,2.1,2.1,3l0.9,1.2
	h0.2c1.4,1.4,3.1,2.6,4.9,3.6l39.8,19.9c10,5,16.2,15,16.2,26.1V352.8z M361.7,352.8h-50v-8.5c0-14.3-8-27.2-20.8-33.6l-28.6-14.3
	c0.7-1.6,0.8-3.4,0.2-5.2c-1-2.9-3.7-4.8-6.8-4.8h-9.2c-0.2-0.3-0.3-0.7-0.5-1.1c-0.2-0.5-0.5-0.9-0.6-1.5c-0.3-0.9-0.4-1.9-0.4-2.9
	v-14.1c1-1.2,2-2.5,3-4c5.2-7.3,9.3-15.4,12.3-24.1c5.9-2.7,9.7-8.5,9.7-15.1v-16.7c0-4-1.5-7.9-4.2-10.9V174c0.1-1,0.3-4.5-0.3-8.9
	c5.4-2.1,11.4-3.2,17.9-3.2c41,0.3,42.5,40.8,42.5,42.6c0.6,31.6,19.8,62.1,28,73.8c0.7,1,0.9,2.3,0.6,3.4c-0.2,0.7-0.7,1.9-2.2,2.6
	c-7,3-16.5,2.2-17,2.1h-28.7c-2.7,0-5.1,1.4-6.5,3.6c-1.4,2.3-1.5,5-0.4,7.4c1.3,2.6,3.6,6.1,7.4,8l40.6,17.6c8.6,4.4,14,13,14,22.7
	V352.8z"/>
</svg>
