<?xml version="1.0" encoding="utf-8"?>
<!-- Generator: Adobe Illustrator 21.1.0, SVG Export Plug-In . SVG Version: 6.00 Build 0)  -->
<svg version="1.1" id="Layer_1" xmlns="http://www.w3.org/2000/svg" xmlns:xlink="http://www.w3.org/1999/xlink" x="0px" y="0px"
	 viewBox="0 0 342 347" style="enable-background:new 0 0 342 347;" xml:space="preserve">
<path d="M291.2,278.7c24.9-28.1,40.1-65.1,40.1-105.5c0-42.1-16.4-80.4-43.2-108.9v0c0,0-0.1,0-0.1-0.1
	c-27.9-29.6-66.9-48.6-110.4-50.1l0,0l-3.1-0.1c-0.8,0-1.6-0.1-2.4-0.1s-1.6,0-2.4,0.1l-3.1,0.1l0,0c-43.4,1.5-82.5,20.5-110.4,50.1
	c0,0-0.1,0-0.1,0.1c0,0,0,0,0,0C29.4,92.8,13,131.1,13,173.2c0,40.4,15.2,77.4,40.1,105.5c0,0,0,0.1,0.1,0.2
	c0.1,0.1,0.2,0.2,0.3,0.3c28,31.3,68.2,51.5,113.1,53l0,0l3.1,0.1c0.8,0,1.6,0,2.4,0s1.6,0,2.4-0.1l3.1-0.1l0,0
	c44.9-1.5,85.2-21.8,113.2-53.2c0.1-0.1,0.2-0.1,0.3-0.2C291.2,278.8,291.2,278.7,291.2,278.7z M24.1,178.7H90
	c0.6,23.3,5.2,45.9,13.3,67.1c-15.6,5.6-30.5,13.2-44.5,22.7C38.2,243.9,25.4,212.7,24.1,178.7z M61.7,74.5
	c13.7,8.9,28.2,16,43.4,21.3c-9.3,22.5-14.4,46.8-15.1,71.9H24.1C25.4,132,39.4,99.4,61.7,74.5z M320.2,167.7h-65.9
	c-0.7-25-5.8-49.3-15.1-71.9c15.2-5.3,29.7-12.4,43.4-21.3C304.9,99.4,318.9,132,320.2,167.7z M166.7,96.1
	c-15.9-0.5-31.4-2.8-46.5-7c11.1-22.8,26.8-43.4,46.5-60.6V96.1z M166.7,107.1v60.6H101c0.7-23.9,5.7-47,14.6-68.5
	C132.1,104,149.2,106.6,166.7,107.1z M177.7,107.1c17.4-0.5,34.6-3.1,51.1-7.9c9,21.5,14,44.6,14.6,68.5h-65.7V107.1z M177.7,96.1
	V28.5c19.7,17.2,35.4,37.7,46.5,60.6C209.1,93.3,193.5,95.7,177.7,96.1z M234.8,85.7c-10.5-22.1-25.2-42.2-43.3-59.5
	c32.1,4.2,61.1,18.7,83.3,40.2C262.2,74.5,248.8,80.9,234.8,85.7z M109.5,85.7c-14-4.8-27.4-11.3-40-19.3
	c22.3-21.4,51.2-36,83.3-40.2C134.7,43.5,120.1,63.7,109.5,85.7z M101,178.7h65.7v55.1c-18.2,0.5-35.9,3.3-53,8.5
	C105.9,222.1,101.6,200.7,101,178.7z M166.7,244.7v73.1c-21-18.4-37.5-40.7-48.8-65.4C133.7,247.8,150,245.2,166.7,244.7z
	 M177.7,317.8v-73.1c16.7,0.5,33,3.1,48.8,7.7C215.2,277.2,198.7,299.5,177.7,317.8z M177.7,233.7v-55.1h65.7
	c-0.6,22.1-5,43.5-12.7,63.6C213.6,237.1,195.8,234.2,177.7,233.7z M254.3,178.7h65.9c-1.3,34.1-14,65.3-34.6,89.7
	c-14-9.5-28.9-17-44.5-22.7C249.2,224.5,253.7,201.9,254.3,178.7z M66.2,276.6c13-8.6,26.8-15.6,41.3-20.8
	c10.7,23.9,26,45.7,45.4,64.2C119.1,315.6,88.9,299.8,66.2,276.6z M191.5,320.1c19.4-18.5,34.7-40.3,45.4-64.2
	c14.4,5.2,28.3,12.1,41.3,20.8C255.5,299.8,225.3,315.6,191.5,320.1z"/>
</svg>
