<?xml version="1.0" encoding="utf-8"?>
<!-- Generator: Adobe Illustrator 22.1.0, SVG Export Plug-In . SVG Version: 6.00 Build 0)  -->
<svg version="1.1" id="Layer_1" xmlns="http://www.w3.org/2000/svg" xmlns:xlink="http://www.w3.org/1999/xlink" x="0px" y="0px"
	 viewBox="0 0 77 77" style="enable-background:new 0 0 77 77;" xml:space="preserve">
<style type="text/css">
	.st0{fill:#DFDEED;}
	.st1{fill:#BABAC6;}
	.st2{fill:#F73445;}
	.st3{fill:#FED966;}
	.st4{fill:#92B1F9;}
	.st5{fill:#F59536;}
	.st6{fill:#393939;}
	.st7{fill:#646464;}
</style>
<g>
	<path class="st0" d="M65,35.4L71.7,6l-32.3,5.6L6,6l7.8,30.1L6,66.2l33.4,6.7l33.4-6.7L65,35.4z"/>
	<path class="st1" d="M39.4,11.5L6,6l7.8,30.1L6,66.2l33.4,6.7V11.5z"/>
	<path class="st2" d="M14.9,13.8l19,3.3v5.6l-19-3.3V13.8z"/>
	<path class="st3" d="M60.6,37.2l-16.7,3.3v5.6l16.7-3.3V37.2z"/>
	<path class="st4" d="M27.1,39.1v5.6l7.8,1.4v-5.6L27.1,39.1z"/>
	<path class="st5" d="M62.8,14.6v5.6L55,21.6V16L62.8,14.6z"/>
	<g>
		<path class="st6" d="M15.8,26l0.4-2.2l19,3.3l-0.4,2.2L15.8,26z"/>
		<path class="st6" d="M27,34.5l0.4-2.2l8.9,1.6L35.9,36L27,34.5z"/>
		<path class="st6" d="M18,32.7l0.4-2.2l6.3,1.1l-0.4,2.2L18,32.7z"/>
		<path class="st6" d="M25.8,64.6l0.4-2.2l8.9,1.6l-0.4,2.2L25.8,64.6z"/>
		<path class="st6" d="M16.9,62.8l0.4-2.2l6.3,1.1l-0.4,2.2L16.9,62.8z"/>
		<path class="st6" d="M15.8,56.1l0.4-2.2l19,3.3l-0.4,2.2L15.8,56.1z"/>
		<path class="st6" d="M18,41.6l0.4-2.2l5.6,1.1l-0.4,2.2L18,41.6z"/>
		<path class="st6" d="M16.9,49.4l0.4-2.2l17.8,3.3l-0.4,2.2L16.9,49.4z"/>
	</g>
	<path class="st7" d="M43.7,27.2l19-3.3L63,26l-19,3.3L43.7,27.2z"/>
	<path class="st7" d="M42.6,33.9l8.9-1.6l0.4,2.2L42.9,36L42.6,33.9z"/>
	<path class="st7" d="M54.1,31.6l6.3-1.1l0.4,2.2l-6.3,1.1L54.1,31.6z"/>
	<path class="st7" d="M43.7,64l8.9-1.6l0.4,2.2l-8.9,1.6L43.7,64z"/>
	<path class="st7" d="M55.2,61.7l6.3-1.1l0.4,2.2l-6.3,1.1L55.2,61.7z"/>
	<path class="st7" d="M43.7,57.3l19-3.3l0.4,2.2l-19,3.3L43.7,57.3z"/>
	<path class="st7" d="M45.9,19.4l5.6-1.1l0.4,2.2l-5.6,1.1L45.9,19.4z"/>
	<path class="st7" d="M43.7,50.6l17.8-3.4l0.4,2.2l-17.8,3.4L43.7,50.6z"/>
</g>
</svg>
