<?xml version="1.0" encoding="utf-8"?>
<!-- Generator: Adobe Illustrator 21.1.0, SVG Export Plug-In . SVG Version: 6.00 Build 0)  -->
<svg version="1.1" id="Layer_1" xmlns="http://www.w3.org/2000/svg" xmlns:xlink="http://www.w3.org/1999/xlink" x="0px" y="0px"
	 viewBox="0 0 82 78.8" style="enable-background:new 0 0 82 78.8;" xml:space="preserve">
<style type="text/css">
	.st0{fill:#EFCE4A;}
	.st1{fill:#D6A416;}
</style>
<g>
	<path class="st0" d="M63.4,69.8H5.7c-1.3,0-2.3-1.3-1.9-2.5l13.1-35.9c0.2-0.9,1-1.5,1.9-1.5h57.7c1.3,0,1.9,1.3,1.9,2.5L65.3,68.3
		C65.1,69.2,64.3,69.8,63.4,69.8z"/>
	<g>
		<path class="st1" d="M68.5,18.2H35.9l-6.4-9H5.9c-1.2,0-2.2,1-2.2,2.2v55.1c0.1,0,0.2,0,0.3,0l12.9-35.2c0.2-0.9,1-1.5,1.9-1.5
			h51.9v-9.4C70.7,19.2,69.7,18.2,68.5,18.2z"/>
	</g>
</g>
</svg>
