<?xml version="1.0" encoding="utf-8"?>
<!-- Generator: Adobe Illustrator 22.1.0, SVG Export Plug-In . SVG Version: 6.00 Build 0)  -->
<svg version="1.1" id="Layer_1" xmlns="http://www.w3.org/2000/svg" xmlns:xlink="http://www.w3.org/1999/xlink" x="0px" y="0px"
	 viewBox="0 0 77 84.2" style="enable-background:new 0 0 77 84.2;" xml:space="preserve">
<style type="text/css">
	.st0{fill:#4C4459;}
	.st1{fill:#FFFFFF;}
</style>
<g>
	<g>
		<path class="st0" d="M15.5,9.9c-0.7,0-1.2,0.5-1.2,1.2v42.8c0,0.7,0.5,1.2,1.2,1.2c0.7,0,1.2-0.5,1.2-1.2V11.1
			C16.7,10.5,16.1,9.9,15.5,9.9z"/>
		<path class="st0" d="M15.5,67c-0.7,0-1.2,0.5-1.2,1.2v4.8c0,0.7,0.5,1.2,1.2,1.2c0.7,0,1.2-0.5,1.2-1.2v-4.8
			C16.7,67.5,16.1,67,15.5,67z"/>
		<path class="st0" d="M37.9,9.9c-0.7,0-1.2,0.5-1.2,1.2v23.8c0,0.7,0.5,1.2,1.2,1.2s1.2-0.5,1.2-1.2V11.1
			C39.1,10.5,38.5,9.9,37.9,9.9z"/>
		<path class="st0" d="M37.9,48c-0.7,0-1.2,0.5-1.2,1.2v23.8c0,0.7,0.5,1.2,1.2,1.2s1.2-0.5,1.2-1.2V49.1C39.1,48.5,38.5,48,37.9,48
			z"/>
		<path class="st0" d="M60.3,28.9c-0.7,0-1.2,0.5-1.2,1.2v42.8c0,0.7,0.5,1.2,1.2,1.2c0.7,0,1.2-0.5,1.2-1.2V30.1
			C61.4,29.5,60.9,28.9,60.3,28.9z"/>
		<path class="st0" d="M60.3,9.9c-0.7,0-1.2,0.5-1.2,1.2v4.8c0,0.7,0.5,1.2,1.2,1.2c0.7,0,1.2-0.5,1.2-1.2v-4.8
			C61.4,10.5,60.9,9.9,60.3,9.9z"/>
	</g>
	<rect x="9.5" y="53.6" class="st1" width="12.1" height="14.5"/>
	<rect x="32.4" y="34.3" class="st1" width="12.1" height="14.5"/>
	<rect x="55.3" y="15" class="st1" width="12.1" height="14.5"/>
</g>
</svg>
