<?xml version="1.0" encoding="utf-8"?>
<!-- Generator: Adobe Illustrator 21.1.0, SVG Export Plug-In . SVG Version: 6.00 Build 0)  -->
<svg version="1.1" id="Layer_1" xmlns="http://www.w3.org/2000/svg" xmlns:xlink="http://www.w3.org/1999/xlink" x="0px" y="0px"
	 viewBox="0 0 82 78.8" style="enable-background:new 0 0 82 78.8;" xml:space="preserve">
<style type="text/css">
	.st0{fill:#FFFFFF;}
	.st1{fill:#D7DADB;}
	.st2{fill:#3D516A;}
	.st3{fill:#2D384C;}
	.st4{fill:#0F2A48;}
	.st5{fill:#2C3D51;}
	.st6{fill:#E2EBF2;}
	.st7{fill:#3C526A;}
	.st8{fill:#E1EBED;}
</style>
<g>
	<path class="st0" d="M39.6,13.4L9.2,29.9v43.2c0,0,31.6-0.2,31.6-0.1l31.1,0.1V29.5L39.6,13.4z"/>
	<path class="st1" d="M9.2,35.8l37.9-21.1l-6.8-3.1L9.2,32.7C9.2,32.7,9.1,35.7,9.2,35.8z"/>
	<polygon class="st2" points="74.4,27.7 40.6,7.2 6.7,27.7 6.7,34.6 40.6,14.6 74.4,34.6 	"/>
	<rect x="57.6" y="11" class="st2" width="8.7" height="13"/>
	<path class="st3" d="M66.3,14.7L56.4,11h9.9C66.3,11,66.3,14.5,66.3,14.7z"/>
	<rect x="55.8" y="7.9" class="st4" width="12.4" height="3.7"/>
	<g>
		<rect x="19.7" y="37.7" class="st5" width="18.6" height="33.5"/>
		<rect x="21" y="39.5" class="st6" width="7.5" height="14.9"/>
		<rect x="29.7" y="39.5" class="st6" width="7.5" height="14.9"/>
	</g>
	<g>
		<rect x="46.5" y="37.7" class="st7" width="18.6" height="18.6"/>
		<rect x="47.7" y="38.9" class="st8" width="7.5" height="7.5"/>
		<rect x="56.4" y="38.9" class="st8" width="7.5" height="7.5"/>
		<rect x="47.7" y="47.6" class="st8" width="7.5" height="7.5"/>
		<rect x="56.4" y="47.6" class="st8" width="7.5" height="7.5"/>
	</g>
</g>
</svg>
