<?xml version="1.0" encoding="utf-8"?>
<!-- Generator: Adobe Illustrator 21.1.0, SVG Export Plug-In . SVG Version: 6.00 Build 0)  -->
<svg version="1.1" id="Layer_1" xmlns="http://www.w3.org/2000/svg" xmlns:xlink="http://www.w3.org/1999/xlink" x="0px" y="0px"
	 viewBox="0 0 95 78.8" style="enable-background:new 0 0 95 78.8;" xml:space="preserve">
<style type="text/css">
	.st0{fill:#D7DADB;}
	.st1{fill:#FFFFFF;}
	.st2{fill:#656D78;}
</style>
<g>
	<path class="st0" d="M21.4,34.4h-2.9v-7.5c0-5,4.1-9.1,9.1-9.1h10.9c3.4,0,6.2-2.8,6.2-6.2V7.3h2.9v4.3c0,5-4.1,9.1-9.1,9.1H27.6
		c-3.4,0-6.2,2.8-6.2,6.2L21.4,34.4L21.4,34.4z"/>
	<g>
		<path class="st1" d="M86,71.2H8.5c-2.1,0-3.8-1.7-3.8-3.8V37.9c0-2.1,1.7-3.8,3.8-3.8H86c2.1,0,3.8,1.7,3.8,3.8v29.5
			C89.8,69.5,88.1,71.2,86,71.2z"/>
		<g>
			<path class="st2" d="M82.9,49.1h-4.2c-0.5,0-0.9,0.4-0.9,0.9v5.2c0,0.5,0.4,0.9,0.9,0.9h4.2c0.5,0,0.9-0.4,0.9-0.9V50
				C83.8,49.5,83.4,49.1,82.9,49.1z"/>
			<path class="st2" d="M83.8,46.9V41c0-0.5-0.4-0.9-0.9-0.9h-4.2c-0.5,0-0.9,0.4-0.9,0.9v5.9c0,0.5,0.4,0.9,0.9,0.9h4.2
				C83.4,47.8,83.8,47.4,83.8,46.9z"/>
			<path class="st2" d="M71.6,56.1h4c0.5,0,0.9-0.4,0.9-0.9V50c0-0.5-0.4-0.9-0.9-0.9h-4c-0.5,0-0.9,0.4-0.9,0.9v5.2
				C70.7,55.7,71.1,56.1,71.6,56.1z"/>
			<path class="st2" d="M71.6,65.1h4c0.5,0,0.9-0.4,0.9-0.9v-5.9c0-0.5-0.4-0.9-0.9-0.9h-4c-0.5,0-0.9,0.4-0.9,0.9v5.9
				C70.7,64.7,71.1,65.1,71.6,65.1z"/>
			<path class="st2" d="M71.6,47.8h4c0.5,0,0.9-0.4,0.9-0.9V41c0-0.5-0.4-0.9-0.9-0.9h-4c-0.5,0-0.9,0.4-0.9,0.9v5.9
				C70.7,47.4,71.1,47.8,71.6,47.8z"/>
			<path class="st2" d="M77.8,58.3v5.9c0,0.5,0.4,0.9,0.9,0.9h4.2c0.5,0,0.9-0.4,0.9-0.9v-5.9c0-0.5-0.4-0.9-0.9-0.9h-4.2
				C78.2,57.5,77.8,57.9,77.8,58.3z"/>
		</g>
		<g>
			<path class="st2" d="M27.9,64.3v-6c0-0.5-0.4-0.8-0.8-0.8h-6c-0.5,0-0.8,0.4-0.8,0.8v6c0,0.5,0.4,0.8,0.8,0.8h6
				C27.5,65.1,27.9,64.7,27.9,64.3z"/>
			<path class="st2" d="M32,49.1h-6c-0.5,0-0.8,0.4-0.8,0.8v5.3c0,0.5,0.4,0.8,0.8,0.8h6c0.5,0,0.8-0.4,0.8-0.8V50
				C32.8,49.5,32.5,49.1,32,49.1z"/>
			<path class="st2" d="M45.2,57.5H30.1c-0.5,0-0.8,0.4-0.8,0.8v6c0,0.5,0.4,0.8,0.8,0.8h15.1c0.5,0,0.8-0.4,0.8-0.8v-6
				C46,57.8,45.6,57.5,45.2,57.5z"/>
			<path class="st2" d="M16.6,50v5.3c0,0.5,0.4,0.8,0.8,0.8h5.5c0.5,0,0.8-0.4,0.8-0.8V50c0-0.5-0.4-0.8-0.8-0.8h-5.5
				C17,49.1,16.6,49.5,16.6,50z"/>
			<path class="st2" d="M34.2,50v5.3c0,0.5,0.4,0.8,0.8,0.8h6c0.5,0,0.8-0.4,0.8-0.8V50c0-0.5-0.4-0.8-0.8-0.8h-6
				C34.6,49.1,34.2,49.5,34.2,50z"/>
			<path class="st2" d="M63.8,46.9v-6c0-0.5-0.4-0.8-0.8-0.8h-5.6c-0.5,0-0.8,0.4-0.8,0.8v6c0,0.5,0.4,0.8,0.8,0.8h5.6
				C63.4,47.8,63.8,47.4,63.8,46.9z"/>
			<path class="st2" d="M48.2,65.1h6c0.5,0,0.8-0.4,0.8-0.8v-6c0-0.5-0.4-0.8-0.8-0.8h-6c-0.5,0-0.8,0.4-0.8,0.8v6
				C47.4,64.7,47.7,65.1,48.2,65.1z"/>
			<path class="st2" d="M27.9,46.9v-6c0-0.5-0.4-0.8-0.8-0.8h-6c-0.5,0-0.8,0.4-0.8,0.8v6c0,0.5,0.4,0.8,0.8,0.8h6
				C27.5,47.8,27.9,47.4,27.9,46.9z"/>
			<path class="st2" d="M11.6,56.1h2.8c0.5,0,0.8-0.4,0.8-0.8V50c0-0.5-0.4-0.8-0.8-0.8h-2.8c-0.5,0-0.8,0.4-0.8,0.8v5.3
				C10.8,55.7,11.1,56.1,11.6,56.1z"/>
			<path class="st2" d="M11.6,65.1h6.3c0.5,0,0.8-0.4,0.8-0.8v-6c0-0.5-0.4-0.8-0.8-0.8h-6.3c-0.5,0-0.8,0.4-0.8,0.8v6
				C10.8,64.7,11.1,65.1,11.6,65.1z"/>
			<path class="st2" d="M11.6,47.8h6.3c0.5,0,0.8-0.4,0.8-0.8v-6c0-0.5-0.4-0.8-0.8-0.8h-6.3c-0.5,0-0.8,0.4-0.8,0.8v6
				C10.8,47.4,11.1,47.8,11.6,47.8z"/>
			<path class="st2" d="M36.9,46.9v-6c0-0.5-0.4-0.8-0.8-0.8h-6c-0.5,0-0.8,0.4-0.8,0.8v6c0,0.5,0.4,0.8,0.8,0.8h6
				C36.6,47.8,36.9,47.4,36.9,46.9z"/>
			<path class="st2" d="M56.5,58.3v6c0,0.5,0.4,0.8,0.8,0.8h5.6c0.5,0,0.8-0.4,0.8-0.8v-6c0-0.5-0.4-0.8-0.8-0.8h-5.6
				C56.8,57.5,56.5,57.8,56.5,58.3z"/>
			<path class="st2" d="M50.2,49.1h-6c-0.5,0-0.8,0.4-0.8,0.8v5.3c0,0.5,0.4,0.8,0.8,0.8h6c0.5,0,0.8-0.4,0.8-0.8V50
				C51,49.5,50.6,49.1,50.2,49.1z"/>
			<path class="st2" d="M46,46.9v-6c0-0.5-0.4-0.8-0.8-0.8h-6c-0.5,0-0.8,0.4-0.8,0.8v6c0,0.5,0.4,0.8,0.8,0.8h6
				C45.6,47.8,46,47.4,46,46.9z"/>
			<path class="st2" d="M62.9,49.1h-9.7c-0.5,0-0.8,0.4-0.8,0.8v5.3c0,0.5,0.4,0.8,0.8,0.8h9.7c0.5,0,0.8-0.4,0.8-0.8V50
				C63.8,49.5,63.4,49.1,62.9,49.1z"/>
			<path class="st2" d="M55.1,46.9v-6c0-0.5-0.4-0.8-0.8-0.8h-6c-0.5,0-0.8,0.4-0.8,0.8v6c0,0.5,0.4,0.8,0.8,0.8h6
				C54.7,47.8,55.1,47.4,55.1,46.9z"/>
		</g>
	</g>
</g>
</svg>
