<?xml version="1.0" encoding="utf-8"?>
<!-- Generator: Adobe Illustrator 21.1.0, SVG Export Plug-In . SVG Version: 6.00 Build 0)  -->
<svg version="1.1" id="Layer_1" xmlns="http://www.w3.org/2000/svg" xmlns:xlink="http://www.w3.org/1999/xlink" x="0px" y="0px"
	 viewBox="0 0 82 87.8" style="enable-background:new 0 0 82 87.8;" xml:space="preserve">
<style type="text/css">
	.st0{fill:#D2555A;}
	.st1{fill:#FF6464;}
	.st2{fill:#BE4B50;}
	.st3{fill:#F0DCBE;}
	.st4{fill:#E1C3A0;}
</style>
<g>
	<path class="st0" d="M59.8,23.7l7.1-16.6c0.4-0.9-0.3-1.8-1.2-1.8H47.9H40c-1.5,0-2.6,1.2-2.6,2.6c0,1.5,1.2,2.6,2.6,2.6v31.6h25.6
		c0.9,0,1.6-1,1.2-1.8L59.8,23.7z"/>
	<path class="st1" d="M42.7,52.6h-25V15.8h25v-2.6h2.6V50C45.3,51.5,44.1,52.6,42.7,52.6z"/>
	<path class="st2" d="M37.4,7.9L37.4,7.9c0,1.5,1.2,2.6,2.6,2.6h2.6c1.5,0,2.6,1.2,2.6,2.6l0,0c0,1.5-1.2,2.6-2.6,2.6h-5.3V7.9
		L37.4,7.9z"/>
	<rect x="17.7" y="15.8" class="st0" width="3.9" height="36.8"/>
	<path class="st3" d="M17.7,10.6h-1.3c-0.7,0-1.3,0.6-1.3,1.3v68.4c0,0.7,0.6,1.3,1.3,1.3h1.3c0.7,0,1.3-0.6,1.3-1.3V11.9
		C19,11.1,18.4,10.6,17.7,10.6z"/>
	<path class="st4" d="M17.7,10.6h-1.3c-0.7,0-1.3,0.6-1.3,1.3v1.3H19v-1.3C19,11.1,18.4,10.6,17.7,10.6z"/>
</g>
</svg>
