<?xml version="1.0" encoding="utf-8"?>
<!-- Generator: Adobe Illustrator 21.1.0, SVG Export Plug-In . SVG Version: 6.00 Build 0)  -->
<svg version="1.1" id="Layer_1" xmlns="http://www.w3.org/2000/svg" xmlns:xlink="http://www.w3.org/1999/xlink" x="0px" y="0px"
	 viewBox="0 0 82 78.8" style="enable-background:new 0 0 82 78.8;" xml:space="preserve">
<style type="text/css">
	.st0{fill:#FFFFFF;}
	.st1{fill:#EFCE4A;}
	.st2{fill:#D6A416;}
</style>
<g>
	<path class="st0" d="M26.3,33.6v-9.4c0-7.8,6.4-14.2,14.2-14.2s14.2,6.4,14.2,14.2v9.4h5.9v-9.4c0-11.1-9-20.1-20.1-20.1
		c-11.1,0-20.1,9-20.1,20.1v9.4H26.3L26.3,33.6z"/>
	<rect x="15.1" y="32.9" class="st1" width="50.9" height="41.9"/>
	<path class="st2" d="M44.8,57c0-2.4-1.9-4.3-4.3-4.3c-2.4,0-4.3,1.9-4.3,4.3c0,1.9,1.2,3.4,2.8,4.1v6c0,0.8,0.6,1.5,1.5,1.5
		c0.8,0,1.5-0.6,1.5-1.5V61C43.6,60.4,44.8,58.8,44.8,57z"/>
</g>
</svg>
