<?xml version="1.0" encoding="utf-8"?>
<!-- Generator: Adobe Illustrator 21.1.0, SVG Export Plug-In . SVG Version: 6.00 Build 0)  -->
<svg version="1.1" id="Layer_1" xmlns="http://www.w3.org/2000/svg" xmlns:xlink="http://www.w3.org/1999/xlink" x="0px" y="0px"
	 viewBox="0 0 82 78.8" style="enable-background:new 0 0 82 78.8;" xml:space="preserve">
<style type="text/css">
	.st0{fill:#AEAFAF;}
	.st1{fill:#D7DADB;}
	.st2{fill:#FFFFFF;}
	.st3{fill:#6A9CCE;}
	.st4{fill:#ADC88F;}
	.st5{fill:#D6A416;}
	.st6{fill:#CF7769;}
</style>
<g>
	<rect x="33.1" y="50.7" class="st0" width="15.8" height="21.5"/>
	<rect x="2" y="3.9" class="st1" width="77.9" height="57"/>
	<rect x="5.8" y="7.7" class="st2" width="70.3" height="43"/>
	<g>
		<rect x="25.7" y="69.2" class="st1" width="30.6" height="6.1"/>
	</g>
	<polygon class="st1" points="68.8,11.9 59.8,13.5 67.2,20.9 	"/>
	<polygon class="st1" points="66.8,14.9 50.2,31.5 42.1,23.4 33.8,31.7 25.9,23.9 12,37.8 10.6,36.5 25.9,21.2 33.8,29.1 42.1,20.8 
		50.2,28.9 65.5,13.6 	"/>
	<path class="st3" d="M21.8,46.5V33c-1.7,1.7-3.7,3.7-5.4,5.4v8.1L21.8,46.5L21.8,46.5z"/>
	<path class="st4" d="M30.2,46.5V33.1c-1.6-1.5-3.2-3.2-4.3-4.3c-0.3,0.3-0.7,0.7-1.2,1.2v16.4L30.2,46.5L30.2,46.5z"/>
	<path class="st3" d="M38.5,46.5V32.1l-4.7,4.7c0,0-0.3-0.3-0.7-0.7v10.4L38.5,46.5L38.5,46.5L38.5,46.5z"/>
	<polygon class="st5" points="46.9,46.5 46.9,33.2 42.1,28.4 41.4,29.1 41.4,46.5 	"/>
	<polygon class="st4" points="55.2,46.5 55.2,31.5 50.2,36.5 49.8,36.1 49.8,46.5 	"/>
	<polygon class="st6" points="63.6,46.5 63.6,23.2 58.1,28.6 58.1,46.5 	"/>
	<circle class="st0" cx="41" cy="55.7" r="2.8"/>
	<circle class="st3" cx="50.3" cy="30" r="2.5"/>
	<circle class="st4" cx="42.2" cy="22.5" r="2.5"/>
	<circle class="st5" cx="25.9" cy="23" r="2.5"/>
	<g>
		<circle class="st6" cx="33.8" cy="30.3" r="2.5"/>
		<circle class="st6" cx="11.8" cy="36.5" r="2.5"/>
	</g>
</g>
</svg>
