<?xml version="1.0" encoding="utf-8"?>
<!-- Generator: Adobe Illustrator 21.1.0, SVG Export Plug-In . SVG Version: 6.00 Build 0)  -->
<svg version="1.1" id="Layer_1" xmlns="http://www.w3.org/2000/svg" xmlns:xlink="http://www.w3.org/1999/xlink" x="0px" y="0px"
	 viewBox="0 0 82 78.8" style="enable-background:new 0 0 82 78.8;" xml:space="preserve">
<style type="text/css">
	.st0{fill:#FFFFFF;}
	.st1{fill:#D7DADB;}
</style>
<path class="st0" d="M72.2,33.3h-3.6c-0.7-3.1-1.9-5.9-3.5-8.5l2.5-2.5c0.9-0.9,0.9-2.3,0-3.2l-5.8-5.8c-0.9-0.9-2.3-0.9-3.2,0
	L56,15.7c-2.6-1.6-5.4-2.8-8.5-3.5V8.6c0-1.3-1-2.3-2.3-2.3h-8.3c-1.3,0-2.3,1-2.3,2.3v3.6c-3.1,0.7-5.9,1.9-8.5,3.5l-2.5-2.5
	c-0.9-0.9-2.3-0.9-3.2,0L14.5,19c-0.9,0.9-0.9,2.3,0,3.2l2.5,2.5c-1.6,2.6-2.8,5.4-3.5,8.5H9.9c-1.3,0-2.3,1-2.3,2.3v8.3
	c0,1.3,1,2.3,2.3,2.3h3.6c0.7,3.1,1.9,5.9,3.5,8.5l-2.5,2.5c-0.9,0.9-0.9,2.3,0,3.2l5.8,5.8c0.9,0.9,2.3,0.9,3.2,0l2.5-2.5
	c2.6,1.6,5.4,2.8,8.5,3.5v3.6c0,1.3,1,2.3,2.3,2.3h8.3c1.3,0,2.3-1,2.3-2.3v-3.6c3.1-0.7,5.9-1.9,8.5-3.5l2.5,2.5
	c0.9,0.9,2.3,0.9,3.2,0l5.8-5.8c0.9-0.9,0.9-2.3,0-3.2L65,54.6c1.6-2.6,2.8-5.4,3.5-8.5h3.6c1.3,0,2.3-1,2.3-2.3v-8.3
	C74.4,34.3,73.4,33.3,72.2,33.3z M41,51.2c-6.4,0-11.6-5.2-11.6-11.6c0-6.4,5.2-11.6,11.6-11.6s11.6,5.2,11.6,11.6
	C52.6,46.1,47.4,51.2,41,51.2z"/>
<path class="st1" d="M41,19.2c-11.3,0-20.5,9.2-20.5,20.5S29.7,60.2,41,60.2S61.6,51,61.6,39.7S52.4,19.2,41,19.2z M41,53.9
	c-7.8,0-14.2-6.4-14.2-14.2c0-7.8,6.4-14.2,14.2-14.2s14.2,6.4,14.2,14.2C55.3,47.5,48.9,53.9,41,53.9z"/>
</svg>
