<?xml version="1.0" encoding="utf-8"?>
<!-- Generator: Adobe Illustrator 22.1.0, SVG Export Plug-In . SVG Version: 6.00 Build 0)  -->
<svg version="1.1" id="Layer_1" xmlns="http://www.w3.org/2000/svg" xmlns:xlink="http://www.w3.org/1999/xlink" x="0px" y="0px"
	 viewBox="0 0 77 77" style="enable-background:new 0 0 77 77;" xml:space="preserve">
<style type="text/css">
	.st0{fill:#415661;}
	.st1{fill:#2B414D;}
	.st2{fill:#E2574C;}
	.st3{fill:#E66B62;}
	.st4{fill:#FFFFFF;}
	.st5{fill:#324D5B;}
</style>
<g>
	<path class="st0" d="M15.5,4.9h46.3c5.8,0,10.5,4.7,10.5,10.5v46.3c0,5.8-4.7,10.5-10.5,10.5H15.5C9.7,72.2,5,67.4,5,61.6V15.4
		C5,9.6,9.7,4.9,15.5,4.9z"/>
	<path class="st1" d="M15.5,9.1h46.3c3.5,0,6.3,2.8,6.3,6.3V48c0,3.5-2.8,6.3-6.3,6.3H15.5c-3.5,0-6.3-2.8-6.3-6.3V15.4
		C9.2,11.9,12,9.1,15.5,9.1z"/>
	<path class="st2" d="M16.5,12.2h44.2c2.3,0,4.2,1.9,4.2,4.2v30.5c0,2.3-1.9,4.2-4.2,4.2H16.5c-2.3,0-4.2-1.9-4.2-4.2V16.4
		C12.3,14.1,14.2,12.2,16.5,12.2z"/>
	<path class="st3" d="M64.9,46.9V16.4c0-2.3-1.9-4.2-4.2-4.2H38.6v38.9h22.1C63,51.1,64.9,49.2,64.9,46.9z"/>
	<path class="st4" d="M47.8,30.5l-12.9-8c-1-0.6-2-0.1-2,1.2v16.1c0,1.3,1,1.8,2,1.2L47.8,33C49.1,32.2,48.6,31,47.8,30.5z"/>
	<path class="st1" d="M30.2,59c-0.6,0-1.1,0.5-1.1,1.1v5.3c0,0.6,0.5,1.1,1.1,1.1c0.6,0,1.1-0.5,1.1-1.1v-5.3
		C31.3,59.5,30.8,59,30.2,59z M34.4,59c-0.6,0-1.1,0.5-1.1,1.1v5.3c0,0.6,0.5,1.1,1.1,1.1c0.6,0,1.1-0.5,1.1-1.1v-5.3
		C35.5,59.5,35,59,34.4,59z M38.6,59c-0.6,0-1.1,0.5-1.1,1.1v5.3c0,0.6,0.5,1.1,1.1,1.1c0.6,0,1.1-0.5,1.1-1.1v-5.3
		C39.7,59.5,39.2,59,38.6,59z M42.8,59c-0.6,0-1.1,0.5-1.1,1.1v5.3c0,0.6,0.5,1.1,1.1,1.1c0.6,0,1.1-0.5,1.1-1.1v-5.3
		C43.9,59.5,43.4,59,42.8,59z M47,59c-0.6,0-1.1,0.5-1.1,1.1v5.3c0,0.6,0.5,1.1,1.1,1.1c0.6,0,1.1-0.5,1.1-1.1v-5.3
		C48.1,59.5,47.6,59,47,59z"/>
	<path class="st4" d="M57,59c-2.1,0-3.7,1.6-3.7,3.7c0,2.1,1.6,3.7,3.7,3.7c2.1,0,3.7-1.6,3.7-3.7C60.7,60.6,59.1,59,57,59z
		 M20.2,59c-2.1,0-3.7,1.6-3.7,3.7c0,2.1,1.6,3.7,3.7,3.7s3.7-1.6,3.7-3.7C23.9,60.6,22.3,59,20.2,59z"/>
	<path class="st5" d="M20.2,61.1c-0.9,0-1.6,0.7-1.6,1.6c0,0.9,0.7,1.6,1.6,1.6c0.9,0,1.6-0.7,1.6-1.6
		C21.8,61.9,21.1,61.1,20.2,61.1z M57,61.1c-0.9,0-1.6,0.7-1.6,1.6c0,0.9,0.7,1.6,1.6,1.6c0.9,0,1.6-0.7,1.6-1.6
		C58.6,61.9,57.9,61.1,57,61.1z"/>
</g>
</svg>
